<?xml version="1.0" encoding="utf-8"?>
<!-- Generator: Adobe Illustrator 19.0.0, SVG Export Plug-In . SVG Version: 6.00 Build 0)  -->
<svg version="1.1" id="图层_1" xmlns="http://www.w3.org/2000/svg" xmlns:xlink="http://www.w3.org/1999/xlink" x="0px" y="0px"
	 viewBox="-205 329.3 100 35" style="enable-background:new -205 329.3 100 35;" xml:space="preserve">
<style type="text/css">
	.st0{opacity:0.5;}
	.st1{fill:#FFFFFF;}
	.st2{fill-rule:evenodd;clip-rule:evenodd;fill:#FFFFFF;}
</style>
<g id="XMLID_25_">
	<g id="XMLID_289_">
		<g id="XMLID_290_" class="st0">
			<g>
				<path class="st1" d="M-140.2,356.3c-1.7,0-3,1-3,3.3v1.4c0,2.3,1.3,3.3,3,3.3c1.7,0,3-1,3-3.3v-1.4
					C-137.2,357.3-138.4,356.3-140.2,356.3z M-138.6,361c0,1.4-0.5,2-1.5,2c-1,0-1.5-0.6-1.5-2v-1.4c0-1.4,0.5-2,1.5-2
					c1,0,1.5,0.6,1.5,2V361z M-130.6,356.3h-0.9c-0.1,0-0.2,0.1-0.2,0.2l0,5.7c0,0.1,0,0.1-0.1,0.1c0,0-0.1,0-0.1-0.1l-2.4-5.6
					c-0.1-0.3-0.2-0.3-0.5-0.3h-1.1c-0.2,0-0.4,0.2-0.4,0.4l0,7.3c0,0.1,0.1,0.2,0.2,0.2h0.9c0.1,0,0.2-0.1,0.2-0.2l0-5.4
					c0-0.1,0-0.1,0.1-0.1s0.1,0,0.1,0.1l2.3,5.3c0.2,0.4,0.4,0.4,0.6,0.4h1.1c0.2,0,0.4-0.2,0.4-0.4l0-7.3
					C-130.4,356.4-130.5,356.3-130.6,356.3z M-125,356.5c-0.3-0.1-0.7-0.1-2-0.1c-1.4,0-2.4,0.4-2.4,2.1v3.7c0,1.8,1.1,2.1,2.4,2.1
					c1.2,0,1.7-0.1,2-0.1c0.2,0,0.2-0.1,0.2-0.2v-0.7c0-0.1-0.1-0.2-0.2-0.2h-2.1c-0.6,0-0.8-0.2-0.8-0.9v-1.4h2.8
					c0.1,0,0.2-0.1,0.2-0.2v-0.8c0-0.1-0.1-0.2-0.2-0.2h-2.8v-1.1c0-0.7,0.2-0.9,0.8-0.9h2.1c0.1,0,0.2-0.1,0.2-0.2v-0.7
					C-124.8,356.5-124.8,356.5-125,356.5z M-119.8,357.4c-0.3-1-1-1.1-1.5-1.1c-0.5,0-1.2,0.1-1.5,1.1l-1.7,6.7l0,0.1
					c0,0.1,0.1,0.2,0.2,0.2h1.1c0.1,0,0.2-0.1,0.2-0.2l0.5-2h2.4l0.5,2c0,0.1,0.1,0.2,0.2,0.2h1.1c0.1,0,0.2-0.1,0.2-0.2l0-0.1
					L-119.8,357.4z M-122.2,360.9l0.8-3.2c0-0.1,0.1-0.2,0.2-0.2c0.1,0,0.1,0,0.2,0.2l0.8,3.2H-122.2z M-115.3,356.3
					c-0.8,0-1.5,0.1-2.1,0.1c-0.2,0-0.3,0.1-0.3,0.3l0,7.3c0,0.1,0.1,0.2,0.2,0.2h1c0.1,0,0.2-0.1,0.2-0.2l0-2.8c0.2,0,0.7,0,0.9,0
					c1.6,0,3-0.6,3-2.4v-0.1C-112.3,356.9-113.7,356.3-115.3,356.3z M-113.7,358.8c0,0.8-0.4,1.3-1.6,1.3c-0.2,0-0.8,0-0.9,0v-2.5
					c0.2,0,0.7,0,0.9,0C-114.2,357.5-113.7,357.9-113.7,358.8L-113.7,358.8z M-105.3,356.3h-0.9c-0.2,0-0.3,0.1-0.4,0.3l-1.6,3.2
					c-0.1,0.1-0.1,0.1-0.1,0.1s-0.1-0.1-0.1-0.1l-1.6-3.2c-0.1-0.1-0.2-0.3-0.4-0.3h-0.9c-0.2,0-0.4,0.2-0.4,0.4v7.4
					c0,0.1,0.1,0.2,0.2,0.2h1.1c0.1,0,0.2-0.1,0.2-0.2V359c0-0.1,0-0.1,0-0.1l0.1,0.1l1,2c0.1,0.1,0.2,0.2,0.3,0.2h1.1
					c0.1,0,0.3-0.1,0.3-0.2l1-2l0.1-0.1c0,0,0,0,0,0.1v5.1c0,0.1,0.1,0.2,0.2,0.2h1.1c0.1,0,0.2-0.1,0.2-0.2v-7.4
					C-104.9,356.5-105.1,356.3-105.3,356.3z"/>
			</g>
		</g>
	</g>
	<g id="XMLID_26_">
		<path id="XMLID_286_" class="st1" d="M-198.1,352c-4.5,0-6.9-3.1-6.9-7.2v-2.3c0-4.1,2.4-7.2,6.9-7.2s6.9,3.1,6.9,7.2v2.3
			C-191.2,348.9-193.6,352-198.1,352z M-195,342.4c0-2.4-1.1-3.9-3.1-3.9s-3.1,1.5-3.1,3.9v2.3c0,2.4,1.1,3.9,3.1,3.9
			s3.1-1.5,3.1-3.9V342.4z"/>
		<path id="XMLID_284_" class="st1" d="M-177,351.7h-2.6c-0.3,0-0.6-0.3-0.6-0.6v-9.4c0-2.5-0.2-3.2-2.4-3.2c-1,0-2,0.4-3.3,1v11.6
			c0,0.3-0.3,0.6-0.6,0.6h-2.6c-0.3,0-0.6-0.3-0.6-0.6V336c0-0.3,0.3-0.6,0.6-0.6h2.5c0.3,0,0.6,0.3,0.6,0.6v0.7
			c1.7-1.1,2.8-1.4,4.7-1.4c4.1,0,5,2.8,5,6.4v9.4C-176.4,351.4-176.7,351.7-177,351.7z"/>
		<path id="XMLID_281_" class="st1" d="M-148,351.8h-2.4c-0.3,0-0.6-0.3-0.6-0.6v-0.5c-1.3,0.8-2.7,1.3-4.1,1.3c-2.4,0-5-0.9-5-4.8
			V347c0-3.3,2-5,7-5h1.8v-1.4c0-1.9-0.8-2.3-2.5-2.3c-1.8,0-3.7,0.1-4.7,0.2c-0.1,0-0.1,0-0.1,0c-0.3,0-0.5-0.1-0.5-0.5v-1.9
			c0-0.3,0.2-0.5,0.5-0.6c1.2-0.2,2.8-0.5,4.8-0.5c4.1,0,6.3,1.8,6.3,5.5v10.7C-147.4,351.5-147.7,351.8-148,351.8z M-151.2,344.6
			h-1.8c-2.6,0-3.2,0.8-3.2,2.4v0.1c0,1.4,0.6,1.8,2.1,1.8c1,0,2.1-0.3,2.9-0.8V344.6z"/>
		<path id="XMLID_37_" class="st1" d="M-125.6,344.6h-9.4v0.1c0,1.7,0.7,3.7,3.5,3.7c2.1,0,4.1-0.2,5.3-0.3c0,0,0.1,0,0.1,0
			c0.3,0,0.5,0.1,0.5,0.4v1.9c0,0.5-0.1,0.7-0.6,0.7c-1.6,0.3-3,0.5-5.6,0.5c-2.9,0-7-1.7-7-7.4v-2.1c0-4.5,2.5-7.3,6.9-7.3
			c4.4,0,6.9,3,6.9,7.3v1.6C-125.1,344.4-125.2,344.6-125.6,344.6z M-128.9,341.8c0-2.2-1.2-3.5-3-3.5s-3.1,1.3-3.1,3.5v0.1h6.1
			V341.8z"/>
		<path id="XMLID_36_" class="st2" d="M-141.8,348h-2.6c-0.3,0-0.6,0.3-0.6,0.6v2.6c0,0.3,0.3,0.6,0.6,0.6h2.6
			c0.3,0,0.6-0.3,0.6-0.6v-2.6C-141.2,348.3-141.5,348-141.8,348z"/>
		<path id="XMLID_35_" class="st2" d="M-141.3,329.7h-3.7c-0.3,0-0.6,0.3-0.6,0.6l0.5,15.5c0,0.3,0.3,0.6,0.6,0.6h2.6
			c0.3,0,0.6-0.3,0.6-0.6l0.5-15.5C-140.7,330-141,329.7-141.3,329.7z"/>
		<path id="XMLID_33_" class="st1" d="M-115.8,338.3c-1,0-2.8,0.2-4.1,1.5v11.4c0,0.3-0.3,0.6-0.6,0.6h-2.6c-0.3,0-0.6-0.3-0.6-0.6
			v-15.1c0-0.3,0.3-0.6,0.6-0.6h2.5c0.3,0,0.6,0.3,0.6,0.6v0.9c1.1-1.7,3.1-1.5,4.2-1.5c0.3,0,0.6,0.3,0.6,0.6v1.7
			C-115.2,338.1-115.5,338.3-115.8,338.3z"/>
		<path id="XMLID_32_" class="st1" d="M-105.5,349h-1.5c-1,0-1.1-0.2-1.1-1.6v-9h2.7c0.3,0,0.6-0.3,0.6-0.6v-1.7
			c0-0.3-0.3-0.6-0.6-0.6h-2.7l0-2.1c0-0.3-0.3-0.5-0.6-0.6h-2.7c-0.3,0.1-0.6,0.3-0.6,0.6v2.1h-1.4c-0.3,0-0.6,0.3-0.6,0.6v1.7
			c0,0.3,0.3,0.6,0.6,0.6h1.4v9c0,3.9,1.3,4.6,4.6,4.6c0.6,0,1.2-0.1,2-0.2c0.4-0.1,0.5-0.2,0.5-0.5v-1.8
			C-104.9,349.1-105.1,349-105.5,349z"/>
		<g id="XMLID_27_">
			<path id="XMLID_29_" class="st1" d="M-161.7,344.6h-9.4v0.1c0,1.7,0.7,3.7,3.5,3.7c2.1,0,4.1-0.2,5.3-0.3c0,0,0.1,0,0.1,0
				c0.3,0,0.5,0.1,0.5,0.4v1.9c0,0.5-0.1,0.7-0.6,0.7c-1.6,0.3-3,0.5-5.6,0.5c-2.9,0-7-1.7-7-7.4v-2.1c0-4.5,2.5-7.3,6.9-7.3
				c4.4,0,6.9,3,6.9,7.3v1.6C-161.1,344.4-161.3,344.6-161.7,344.6z M-165,341.8c0-2.2-1.2-3.5-3-3.5s-3.1,1.3-3.1,3.5v0.1h6.1
				V341.8z"/>
		</g>
	</g>
</g>
</svg>
