<svg id="图层_1" data-name="图层 1" xmlns="http://www.w3.org/2000/svg" viewBox="0 0 128.47 108.82"><defs><style>.cls-1{opacity:0.7;}.cls-2{fill:#fff;}</style></defs><title>APM1</title><g class="cls-1"><path class="cls-2" d="M1015,1429.73c-1.25,0-4.24.12-5.32,0.24v14.22c1,0.06,4.3.18,5.32,0.18,6.45,0,9-2.39,9-7.17v-0.54C1024,1431.65,1021,1429.73,1015,1429.73Z" transform="translate(-956.85 -1385.04)"/><path class="cls-2" d="M1082.92,1422.08q-6.15-23-27.48-31.94t-46.85-2.15q-29.19,7.82-42.62,24.92t-7.1,40.69c0.64,2.41,1.39,4.69,2.22,6.89l8.25-31.54c1.43-5.56,5.73-6.09,8.3-6.09s6.87,0.54,8.3,6.09l9.8,37.46a2.54,2.54,0,0,0,.06.3,1,1,0,0,1-1.08,1h-6.33a1.26,1.26,0,0,1-1.14-1l-2.75-11.35H970.77L968,1466.71a1.26,1.26,0,0,1-1.14,1h-2.54a46.31,46.31,0,0,0,22.1,21q20.7,9.41,49.57,1.68,26.58-7.12,39.19-22.65h-5.09a1.13,1.13,0,0,1-1-1.19v-27.78c0-.42-0.06-0.6-0.18-0.6a1,1,0,0,0-.3.36l-5.73,11.41a2.16,2.16,0,0,1-1.91,1h-6a2.16,2.16,0,0,1-1.91-1l-5.79-11.41a1,1,0,0,0-.3-0.36c-0.12,0-.18.18-0.18,0.6v27.78a1.13,1.13,0,0,1-1,1.19h-6a0.91,0.91,0,0,1-1-.9v-41.1a2.4,2.4,0,0,1,2.39-2.39h4.9a2.51,2.51,0,0,1,2.21,1.43l9,18.28a0.68,0.68,0,1,0,1.31,0l9-18.28a2.51,2.51,0,0,1,2.21-1.43h4.9a2.4,2.4,0,0,1,2.39,2.39v39.44l0.13-.17Q1089.69,1447.36,1082.92,1422.08Zm-50.68,15.12c0,10.57-8,14-17.2,14-1.55,0-3.94-.18-5.32-0.24v15.59a1.15,1.15,0,0,1-1.14,1.19h-6a1.2,1.2,0,0,1-1.19-1.19v-41.1c0-1.19.72-1.61,1.91-1.79a81.63,81.63,0,0,1,11.71-.78c9.2,0,17.2,3.23,17.2,13.8v0.54Z" transform="translate(-956.85 -1385.04)"/><path class="cls-2" d="M977.64,1429.85c-0.6,0-.78.24-1,1l-4.3,17.74H982.9l-4.3-17.74C978.42,1430.09,978.24,1429.85,977.64,1429.85Z" transform="translate(-956.85 -1385.04)"/></g></svg>