<?xml version="1.0" encoding="utf-8"?>
<!-- Generator: Adobe Illustrator 19.0.0, SVG Export Plug-In . SVG Version: 6.00 Build 0)  -->
<svg version="1.1" id="图层_1" xmlns="http://www.w3.org/2000/svg" xmlns:xlink="http://www.w3.org/1999/xlink" x="0px" y="0px"
	 viewBox="33 0 1065 1000" style="enable-background:new 33 0 1065 1000;" xml:space="preserve">
<style type="text/css">
	.st0{fill:#FFFFFF;}
	.st1{opacity:0.6;}
</style>
<g id="d0059551-6f9e-4032-a555-d93b47960d56.psd">
	<g id="BI">
		<g id="形状_4_拷贝">
			<g>
				<path class="st0" d="M154.6,661.6v-3.9c0-17.1-8.3-28.8-22.5-34.7c14.1-5.9,21.3-19.4,21.3-34.5v-4.6
					c0-34.5-29.4-46.4-71.3-46.4c-18.1,0-32.6,1.4-38.7,2.3C36,540.9,33,543.9,33,552.1v144c0,8.5,3.5,11,11.1,12.3
					c7.2,1.4,21.3,2.5,40,2.5C127.3,711,154.6,697.9,154.6,661.6z M65.3,564.3c4.9-0.2,11.3-0.5,16.9-0.5c29.6,0,40,5.9,40,21.9v3.2
					c0,11.7-6,21.7-27.5,21.7H65.3V564.3L65.3,564.3z M123.2,661.1c0,16-9.3,23.5-38.9,23.5c-4.9,0-13.4-0.5-19-0.5v-50.3h29.4
					c21.8,0,28.5,11.7,28.5,24.2V661.1z M236.8,599.7v-16.5c0-2.5-2.1-4.6-4.6-4.6c-9.3,0-21.8,2.3-33.1,11v-4.8
					c0-2.5-2.1-4.6-4.6-4.6h-20.1c-2.5,0-4.6,2.1-4.6,4.6v119.5c0,2.5,2.1,4.8,4.6,4.8h21.3c2.5,0,4.6-2.3,4.6-4.8v-91.8
					c9.7-5,19.4-8.2,31.9-8.2C234.7,604.3,236.8,602.2,236.8,599.7z M290.3,578.7c-36.3,0-55.3,24.2-55.3,56.9v18.5
					c0,32.7,19,56.9,55.3,56.9s55.3-24.2,55.3-56.9v-18.5C345.6,602.9,326.6,578.7,290.3,578.7z M315,654.1
					c0,18.7-8.6,30.8-24.8,30.8s-24.8-12.1-24.8-30.8v-18.5c0-18.7,8.6-30.8,24.8-30.8c16.2,0,24.8,12.1,24.8,30.8V654.1z
					 M504.2,690.6l21-105.1v-0.7c0-2.5-2.1-4.6-4.6-4.6h-22.5c-2.3,0-3.9,2.1-4.2,4.1L479.3,681c-0.2,2.1-0.7,3.2-1.2,3.2
					s-1.2-0.9-1.6-3.2l-19.2-76.8c-2.3-8.9-5.1-9.8-13-9.8h-16.2c-7.9,0-10.6,0.9-13,9.8l-19,76.8c-0.5,2.3-1.2,3.2-1.6,3.2
					c-0.5,0-0.9-1.1-1.2-3.2l-14.6-96.7c-0.2-2.1-1.9-4.1-4.2-4.1h-22.4c-2.5,0-4.6,2.1-4.6,4.6v0.7l21.1,105.1
					c2.8,13.7,6.5,19.2,20.6,19.2h6.2c12.5,0,19-5.9,22-17.8l18.3-69.9c0.2-0.9,0.2-1.1,0.7-1.1s0.5,0.2,0.7,1.1l18.3,69.9
					c3,11.9,9.5,17.8,22,17.8h6.2C497.7,709.8,501.4,704.3,504.2,690.6z M549.5,644.5l31.7,19.2c7.4,4.6,10.2,7.3,10.2,11.7
					c0,6.2-2.1,11-16.4,11c-6.9,0-27.8-1.1-38.9-2.5h-0.9c-2.3,0-3.9,1.8-3.9,3.7v13.7c0,2.7,1.6,4.6,4.4,5.3
					c13,3.4,32.4,4.6,41.4,4.6c30.3,0,45.4-15.8,45.4-35.6c0-11.7-2.8-23.1-22.2-34.7L570,622.6c-5.8-3.4-9.3-5.7-9.3-9.4
					c0-7.1,4.9-9.6,16-9.6c13.2,0,31.7,1.8,38.2,2.7h0.9c2.3,0,3.7-1.6,3.7-4.3v-13.5c0-2.7-1.4-4.6-4.2-5.3
					c-11.8-2.5-22.4-4.6-41.2-4.6c-29.4,0-44,11.4-44,34.3C530.1,626.2,538.2,637.6,549.5,644.5z M688,578.7
					c-35.4,0-55.6,22.4-55.6,58v16.9c0,45,32.9,57.4,56,57.4c20.8,0,29.9-1.1,44.9-3.9c4.2-0.7,4.9-2.3,4.9-5.9v-15.1
					c0-2.3-1.9-3.4-4.2-3.4h-0.7c-9.7,0.9-25.7,2.3-42.6,2.3c-22.2,0-27.8-15.8-27.8-29v-0.7h75.5c3.2,0,4.6-2.1,4.6-5.7v-12.8
					C743,602.7,723.6,578.7,688,578.7z M712.3,633.7h-49.1v-0.9c0-18,10.4-28.1,24.8-28.1c14.3,0,24.3,10.3,24.3,28.1V633.7z
					 M820.1,578.7c-9.3,0-21.8,2.3-33.1,11v-4.8c0-2.5-2.1-4.6-4.6-4.6h-20.1c-2.6,0-4.6,2.1-4.6,4.6v119.5c0,2.5,2.1,4.8,4.6,4.8
					h21.3c2.6,0,4.6-2.3,4.6-4.8v-91.9c9.7-5,19.4-8.2,31.9-8.2c2.5,0,4.6-2.1,4.6-4.6v-16.5C824.8,580.7,822.7,578.7,820.1,578.7z
					 M60.6,780.1H37.7c-2.5,0-4.6,1.9-4.6,4.4V948c0,2.6,2.1,4.6,4.6,4.6h22.9c2.5,0,4.6-2.1,4.6-4.6V784.5
					C65.2,782,63.2,780.1,60.6,780.1z M152.9,820.1c-15.3,0-24.1,2.6-37.5,11.2v-4.9c0-2.6-2.1-4.6-4.6-4.6H90.7
					c-2.5,0-4.6,2.1-4.6,4.6v121.5c0,2.6,2.1,4.9,4.6,4.9H112c2.5,0,4.6-2.3,4.6-4.9v-93.4c9.7-5.1,18.3-8.4,26.1-8.4
					c17.8,0,19.7,5.8,19.7,26v75.7c0,2.6,2.1,4.9,4.6,4.9h21.3c2.5,0,4.6-2.3,4.6-4.9v-75.7C192.9,842.6,186.2,820.1,152.9,820.1z
					 M276.8,883l-30.3-18.5c-5.8-3.5-9.2-5.8-9.2-9.5c0-7.2,4.9-9.8,16-9.8c13.2,0,31.7,1.9,38.2,2.8h0.9c2.3,0,3.7-1.6,3.7-4.4
					v-13.5c0-2.8-1.4-4.6-4.2-5.3c-11.8-2.6-22.4-4.6-41.2-4.6c-29.4,0-43.9,11.6-43.9,34.8c0,13.5,8.1,25.1,19.4,32.1l31.7,19.5
					c7.4,4.6,10.2,7.4,10.2,11.8c0,6.3-2.1,11.2-16.4,11.2c-6.9,0-27.8-1.2-38.9-2.6h-0.9c-2.3,0-3.9,1.9-3.9,3.7v13.9
					c0,2.8,1.6,4.6,4.4,5.3c13,3.5,32.4,4.6,41.4,4.6c30.3,0,45.3-16,45.3-36.2C299,906.5,296.2,894.9,276.8,883z M340.2,774.6
					h-22.4c-2.5,0-4.9,2.1-4.9,4.6v20.4c0,2.6,2.3,4.6,4.9,4.6h22.4c2.5,0,4.6-2.1,4.6-4.6v-20.4
					C344.8,776.7,342.7,774.6,340.2,774.6z M339.5,821.7h-21.3c-2.5,0-4.6,2.1-4.6,4.6v121.5c0,2.6,2.1,4.9,4.6,4.9h21.3
					c2.5,0,4.6-2.3,4.6-4.9V826.4C344.1,823.8,342,821.7,339.5,821.7z M470.6,821.7h-54.1c-40,0-55,19.5-55,42.7v1.6
					c0,11.6,2.5,20,9.5,27.2c-6.2,4.4-9.2,11.6-9.2,18.8v0.2c0,8.4,3.9,16.5,10.4,21.4c-7.4,6.7-11.8,16-11.8,25.6v2.1
					c0,24.4,19.9,38.6,57.4,38.6c39.3,0,56.7-12.8,56.7-36.5v-1.6c0-24.9-20.4-29.7-51.8-37.2l-27.3-6.5c-5.3-1.2-7.9-3-7.9-7.7
					c0-2.1,1.2-4.2,3.9-6c4.6,1.9,13,3.9,25.2,3.9c34.9,0,54.8-13.2,54.8-42.3v-1.5c0-8.1-2.1-13.2-5.8-18.6l7.6-3
					c2.8-1.2,3.7-1.6,3.7-5.1V828C476.8,824.5,474,821.7,470.6,821.7z M390.1,959.2c0-8.4,2.3-11.4,5.8-16.3l20.6,4.9
					c24.3,5.8,27.3,8.8,27.3,13.9v1.6c0,8.4-3.9,13.2-26.1,13.2c-21.7,0-27.5-5.8-27.5-15.3L390.1,959.2L390.1,959.2z M441.2,866.8
					c0,11.6-5.6,18.4-24.7,18.4c-21.5,0-25-9.8-25-18.4v-1.9c0-10.9,5.3-19.7,25-19.7c19.9,0,24.7,8.6,24.7,19.7V866.8z
					 M552.2,820.1c-16.4,0-26.1,3.3-34.9,8.6v-48.1c0-2.6-2.1-4.6-4.6-4.6h-21.3c-2.5,0-4.6,2.1-4.6,4.6v167.3
					c0,2.6,2.1,4.9,4.6,4.9h21.3c2.5,0,4.6-2.3,4.6-4.9V854c9.7-5.1,19-7.9,26.8-7.9c15.5,0,19,5.1,19,25.3v76.4
					c0,2.6,2.1,4.9,4.6,4.9H589c2.5,0,4.6-2.3,4.6-4.9v-76.4C593.6,842.9,584.1,820.1,552.2,820.1z M675.4,930.7h-12.3
					c-8.3,0-9-1.4-9-13v-72.9h20.8c2.5,0,4.6-2.1,4.6-4.6v-13.7c0-2.6-2.1-4.6-4.6-4.6h-20.8V798c0-2.3-1.6-3.5-3.7-3.5h-0.9
					l-21.5,3.7c-2.5,0.5-4.6,2.1-4.6,4.6v19h-21.7c-2.5,0-4.6,2.1-4.6,4.6v10.5c0,2.6,2.1,4.2,4.6,4.6l21.7,3.3v72.9
					c0,31.1,10.6,36.9,36.8,36.9c5.1,0,10.2-0.7,15.7-1.6c3-0.5,4.4-1.9,4.4-4.2v-14.6C680.3,931.8,678.4,930.7,675.4,930.7z"/>
			</g>
		</g>
		<g id="形状_4_拷贝_3">
			<g>
				<path class="st0" d="M958.8,163.6C940.9,96,900.9,49,838.9,22.6S708.7-7,634.5,13.1c-84.9,23-146.9,59.7-185.9,110
					s-49.4,110.2-31,179.6c13.8,52,37.1,92.7,70,122.1V211.4c0-14.9,5.3-20.3,18.5-22.3c10.7-1.7,36.5-4.1,68.5-4.1
					c74.3,0,126.4,21.5,126.4,84v8.3c0,27.3-12.7,51.7-37.7,62.4c25,10.8,39.8,31.8,39.8,62.9v7c0,33.7-12.8,56.2-35.4,70.3
					c26.5-1.6,54.4-6.3,83.9-14.1V277.2c0-4.5,3.7-8.3,8.2-8.3h37.8c4.5,0,8.2,3.7,8.2,8.3V448c57.5-22.8,100.4-54.4,128.6-95
					C970.3,301.1,978.5,238,958.8,163.6z M806.9,229.6c0,4.5-3.7,8.3-8.2,8.3h-39.8c-4.5,0-8.6-3.7-8.6-8.3v-36.4
					c0-4.6,4.1-8.3,8.6-8.3h39.8c4.5,0,8.2,3.7,8.2,8.3V229.6z M596.8,359.5h-52.1v91c9.8,0,25,0.8,33.6,0.8
					c52.5,0,68.9-13.7,68.9-42.6v-5.4C647.3,380.6,635.4,359.5,596.8,359.5z M645.6,278v-5.8c0-28.9-18.5-39.7-71-39.7
					c-9.8,0-21.3,0.4-30,0.8v84h52.1C634.9,317.3,645.6,299.1,645.6,278z"/>
			</g>
		</g>
		<g id="形状_4_拷贝_2" class="st1">
			<g>
				<path class="st0" d="M62.3,399c-17,0-29.3,9.8-29.3,33.1v14.3c0,23.4,12.3,33.1,29.3,33.1s29.3-9.8,29.3-33.1v-14.3
					C91.6,408.8,79.2,399,62.3,399z M77.2,446.4c0,14-4.8,20.3-14.9,20.3s-14.9-6.3-14.9-20.3v-14.3c0-14,4.8-20.3,14.9-20.3
					s14.9,6.3,14.9,20.3V446.4z M155.7,399h-8.8c-1.1,0-2,0.8-2,2l-0.1,57.6c0,0.6-0.3,1-0.5,1c-0.3,0-0.6-0.3-0.8-0.8l-23.9-56.4
					c-1.2-2.8-2.4-3.4-4.5-3.4H104c-2.3,0-4.1,1.9-4.1,4.2l-0.1,74.3c0,1.2,0.9,2.1,2.1,2.1h8.7c1.1,0,2-1,2-2.1l0.1-55.2
					c0-0.6,0.2-0.8,0.5-0.8s0.6,0.2,0.9,0.8l22.7,53.5c1.6,3.8,3.8,3.8,6.3,3.8h10.4c2.3,0,4.1-1.9,4.1-4.2l0.1-74.4
					C157.6,399.8,156.8,399,155.7,399z M211.2,400.5c-3.3-0.5-7.3-1.5-19.5-1.5c-13.4,0-23.8,3.7-23.8,21.8v37
					c0,18,10.4,21.8,23.8,21.8c12.2,0,16.3-1,19.5-1.5c1.5-0.2,2.1-0.7,2.1-2.2v-6.8c0-1.2-0.9-2.1-2.1-2.1h-21
					c-6,0-8.1-2.1-8.1-9.1v-13.7H210c1.1,0,2.1-1,2.1-2.1v-7.6c0-1.2-0.9-2.1-2.1-2.1h-27.9v-11.5c0-7,2.2-9.1,8.1-9.1h21
					c1.1,0,2.1-1,2.1-2.1v-6.8C213.3,401.2,212.8,400.7,211.2,400.5z M261.9,409.8c-2.5-9.9-9.9-10.8-14.3-10.8s-11.8,1-14.3,10.8
					l-16.9,67.5l-0.1,0.5c0,1.1,0.8,1.8,1.9,1.8h10.9c0.9,0,1.7-0.8,2-1.8l4.7-20.2h23.7l4.7,20.2c0.2,1,1,1.8,2,1.8h10.9
					c1,0,1.9-0.7,1.9-1.8l-0.1-0.5L261.9,409.8z M238.5,445.6l7.4-32.5c0.3-1.3,0.6-1.7,1.6-1.7s1.3,0.4,1.6,1.7l7.4,32.5H238.5z
					 M306.7,398.9c-7.5,0-14.8,0.5-20.2,1.4c-2.1,0.3-3.3,1.1-3.3,3.2l0.1,74.1c0,1.2,0.9,2.1,2.1,2.1h10.3c1.1,0,2-1,2-2.1
					l-0.1-28.8c2.4,0.1,6.5,0.4,9.2,0.4c15.8,0,29.6-6,29.6-24.8v-1C336.4,404.6,322.6,398.9,306.7,398.9z M322.2,424.4
					c0,8.5-4.3,12.7-15.4,12.7c-1.7,0-7.5-0.2-9.2-0.3v-25.3c1.9-0.2,7-0.4,9.2-0.4c10.3,0,15.4,3.4,15.4,12.3V424.4z M404.5,398.9
					h-8.4c-1.6,0-3.1,1.1-3.8,2.5l-15.5,32.5c-0.5,1-0.7,1.5-1.1,1.5s-0.6-0.5-1.1-1.5L359,401.5c-0.7-1.5-2.2-2.5-3.8-2.5h-8.4
					c-2.3,0-4.1,1.9-4.1,4.2v75c0,1.1,0.8,1.6,1.7,1.6h10.4c0.9,0,1.6-1.1,1.6-2.1v-51.3c0-0.7,0.1-1.1,0.3-1.1l0.5,0.6l10,20.3
					c0.6,1.2,2,1.8,3.3,1.8h10.4c1.3,0,2.7-0.6,3.3-1.8l9.9-20.3l0.5-0.6c0.2,0,0.3,0.3,0.3,1.1v51.3c0,1.1,0.7,2.1,1.6,2.1h10.4
					c0.9,0,1.7-0.5,1.7-1.6v-75C408.7,400.8,406.8,398.9,404.5,398.9z"/>
			</g>
		</g>
	</g>
</g>
</svg>
