<?xml version="1.0" encoding="utf-8"?>
<!-- Generator: Adobe Illustrator 18.1.0, SVG Export Plug-In . SVG Version: 6.00 Build 0)  -->
<svg version="1.1" id="图层_1" xmlns="http://www.w3.org/2000/svg" xmlns:xlink="http://www.w3.org/1999/xlink" x="0px" y="0px"
	 viewBox="874.6 575.1 1045.4 504.9" enable-background="new 874.6 575.1 1045.4 504.9" xml:space="preserve">
<g>
	<g>
		<path fill="#FFFFFF" d="M1262.3,680.5c0-25.8-20.9-47-47-47c-25.8,0-47,20.9-47,47c0,25.8,20.9,47,47,47
			C1241.4,727.6,1262.3,706.7,1262.3,680.5z M1198.1,680.5c0-9.4,7.7-17.4,17.4-17.4c9.4,0,17.4,7.7,17.4,17.4
			c0,9.4-7.7,17.4-17.4,17.4S1198.1,690.3,1198.1,680.5z M1567.8,766.3c-55.7,0-107.7-44.6-162.3-91.6
			c-57.2-49.1-116.4-99.6-184.3-99.6s-126.8,50.5-183.9,99.6c-54.7,47-106.6,91.6-162.4,91.6V798c67.2,0,126.1-50.5,182.9-99.3
			c55-47,107.3-92,163.4-92c56.4,0,108.3,44.6,163.7,92c56.8,48.8,115.7,99.3,182.9,99.3L1567.8,766.3L1567.8,766.3z M1428.1,669.1
			c46.3-35.2,91.6-64.4,139.3-64.4v-29.6c-59.9,0-113.2,35.5-164.4,74.6c2.8,2.1,5.9,4.5,8.7,6.6
			C1417.3,660.7,1422.8,664.9,1428.1,669.1z M1355.9,692.4c-44.6,35.2-88.1,64.4-134.4,64.4s-89.9-29.3-134.4-64.4
			c-5.2,4.2-10.8,8.7-16.4,13.2c-2.4,2.1-5.2,4.2-7.7,6.3c49.1,39,100.7,74.6,158.5,74.6s109.4-35.5,158.5-74.6
			c-2.4-2.1-5.2-4.2-7.7-6.3C1366.8,701.1,1361.2,696.6,1355.9,692.4z M1030.6,656.2c2.8-2.1,5.6-4.5,8.7-6.6
			c-51.2-39-104.5-74.5-164.4-74.5v29.6c47.7,0,93,29.3,139.3,64.4C1019.8,664.9,1025,660.7,1030.6,656.2z M940,912.2
			c5.6,0,11.2,0.7,16.4,2.4c5.2,1.7,10.1,3.5,14.6,5.6l8-18.5c-11.9-5.9-24.7-8.7-39-8.7c-13.2,0-25.1,2.8-34.8,8.4
			c-9.7,5.6-17.4,13.6-22.6,24.4c-5.2,10.5-8,23-8,36.9c0,22.3,5.2,39.4,16,51.5c10.8,11.9,26.1,18.1,46.3,18.1
			c13.6,0,25.8-2.1,36.6-5.9v-18.8c-5.9,1.7-11.5,3.2-17.1,4.5c-5.6,1-11.2,1.7-17.1,1.7c-13.6,0-23.7-4.2-31-12.9
			c-7-8.4-10.8-20.9-10.8-37.6c0-16,3.8-28.2,11.2-37.3C917,916.8,927.1,912.2,940,912.2z M992.3,1033.1h23.4V892h-23.4V1033.1z
			 M1086.7,927.2c-15,0-26.5,4.5-34.8,13.9c-8.4,9.4-12.5,22.3-12.5,38.6c0,10.8,2.1,19.9,5.6,27.9c3.8,8,9.4,14.3,16.4,18.5
			c7,4.2,15.4,6.6,24.7,6.6c15,0,26.5-4.5,34.8-13.9c8.4-9.4,12.5-22.3,12.5-39c0-16-4.2-28.9-12.5-38.3
			C1112.1,932.1,1101,927.2,1086.7,927.2z M1086.3,1015.4c-17.1,0-25.4-11.9-25.4-35.2c0-11.2,2.1-19.9,5.9-25.8
			c3.8-5.9,10.5-9,19.2-9c16.7,0,25.4,11.5,25.4,34.8C1111.4,1003.5,1103,1015.4,1086.3,1015.4z M1227.7,979.1
			c0,12.9-2.1,22.3-6.6,27.9s-11.5,8.4-20.9,8.4c-7,0-12.5-2.1-15.7-5.9c-3.5-3.8-4.9-10.1-4.9-17.7v-64.1h-23v67.9
			c0,12.5,3.2,22.3,9.4,28.6c6.2,6.3,16,9.4,28.9,9.4c7.3,0,13.9-1.4,19.9-4.2c5.9-2.8,10.5-6.6,13.6-11.5h1l3.2,13.6h17.7V927.6
			h-22.6V979.1L1227.7,979.1z M1334.4,927.9c0,4.2,0.7,9.7,1.7,16.7h-1.4c-7-9.7-17.4-14.3-31-14.3c-12.9,0-23,4.5-30.3,13.6
			c-7.3,9-10.8,21.6-10.8,38c0,16,3.5,28.6,10.8,37.6s17.4,13.2,30.3,13.2c13.6,0,24.1-4.9,31-14.6h1l3.8,12.9h17.1V892h-21.9v35.9
			H1334.4L1334.4,927.9z M1335.4,985c0,10.8-2.1,18.8-6.3,23.7c-4.2,4.9-10.8,7.3-19.9,7.3c-8,0-14.3-2.8-18.1-8.7
			c-4.2-5.9-5.9-14.3-5.9-25.1c0-11.2,2.1-19.5,6.3-25.8c4.2-5.9,10.1-9,17.7-9c9,0,15.7,2.8,19.9,8c4.2,5.2,6.3,13.9,6.3,26.5V985
			L1335.4,985z M1392.9,1033.1h9V930h-9V1033.1z M1397.4,892c-3.8,0-5.6,3.2-5.6,9c0,6.3,1.7,9,5.6,9c1.7,0,3.5-0.7,4.5-2.4
			c1-1.7,1.7-3.8,1.7-6.6c0-2.8-0.7-5.2-1.7-6.6C1400.6,892.7,1399.2,892,1397.4,892z M1473.3,927.2c-17.4,0-29.3,5.6-36.3,16.4
			h-0.7l-1.7-14.3h-8v103.8h9.4v-57.5c0-13.9,2.8-24.1,8.7-30.3c5.9-6.3,15-9.4,27.5-9.4c9.4,0,16,2.4,20.6,7
			c4.5,4.9,6.6,12.2,6.6,22.6v67.2h9.4v-67.6C1508.9,939.7,1497,927.2,1473.3,927.2z M1590.8,983.6c-4.2-2.8-10.5-5.6-19.5-9
			c-10.8-3.8-17.7-7.7-21.6-10.8s-5.6-7.3-5.6-12.9c0-4.9,2.4-8.7,7-11.5c4.9-2.8,11.2-4.2,19.2-4.2c8.4,0,17.4,2.1,27.2,6.3
			l3.5-8.4c-9.7-4.2-19.9-6.3-30.3-6.3c-11.2,0-19.9,2.1-26.1,6.6c-6.3,4.6-9.4,10.5-9.4,18.1c0,4.9,1,9,3.2,12.2
			c2.1,3.5,5.2,6.3,9,9c4.2,2.8,11.2,5.9,20.9,9.4c9.4,3.5,16,7,19.9,10.5c4.2,3.5,5.9,7.7,5.9,12.9c0,5.6-2.4,10.1-7.7,13.2
			c-5.2,3.5-12.5,4.9-22.3,4.9c-11.2,0-21.6-2.4-31.7-7.7v10.1c7.7,4.2,18.5,6.3,31.7,6.3c12.5,0,21.9-2.4,28.9-7.3
			c6.6-4.9,10.1-11.9,10.1-20.9c0-4.5-1-8.4-3.2-11.9C1597.7,989.2,1594.6,986.5,1590.8,983.6z M1632.2,892c-3.8,0-5.6,3.2-5.6,9
			c0,6.3,1.7,9,5.6,9c1.7,0,3.5-0.7,4.5-2.4c1-1.7,1.7-3.8,1.7-6.6c0-2.8-0.7-5.2-1.7-6.6C1635.3,892.7,1634,892,1632.2,892z
			 M1627.7,1033.1h9V930h-9V1033.1z M1694.9,927.2c-11.2,0-20.2,3.2-26.8,9.4c-6.6,6.3-9.7,14.6-9.7,25.1c0,7,1.7,12.9,5.2,18.1
			c3.5,5.2,8,9,14.3,11.9c-8.7,5.2-13.2,11.5-13.2,18.5c0,3.2,1,5.9,2.8,8.4s4.5,4.2,7.3,5.6c-7.7,1.7-13.6,4.9-18.1,9.7
			c-4.5,4.9-6.6,10.5-6.6,17.7c0,9,3.5,16,10.8,20.9s17.4,7.7,30.3,7.7c16.4,0,28.9-3.2,38-9c8.7-5.9,13.2-14.3,13.2-25.4
			c0-9-3.2-15.7-9-20.2c-5.9-4.5-14.6-7-25.8-7h-18.1c-5.9,0-10.1-0.7-12.5-2.4c-2.4-1.4-3.8-3.8-3.8-7.3c0-3.2,1-5.9,2.8-8.4
			c2.1-2.8,4.9-4.9,8.7-7c1.7,0.3,5.2,0.7,9.7,0.7c11.2,0,20.2-3.2,26.8-9.4c6.6-6.3,10.1-14.3,10.1-24.4c0-8.4-2.8-16.4-8.7-23.4
			l21.6-1.4V929h-33.1C1706.8,927.9,1701.5,927.2,1694.9,927.2z M1688.3,1028.3h17.1c9.4,0,16.4,1.4,20.6,4.2
			c4.2,2.8,6.3,7.3,6.3,13.6c0,17.4-13.6,26.1-40.8,26.1c-21.2,0-31.7-7-31.7-21.2C1659.7,1035.6,1669.5,1028.3,1688.3,1028.3z
			 M1721.4,961.4c0,8.4-2.4,14.6-7,19.2c-4.5,4.5-11.2,6.6-19.9,6.6c-8,0-14.6-2.1-19.5-6.6s-7.3-10.8-7.3-18.8c0-8.4,2.4-15,7-19.9
			c4.9-4.9,11.2-7,19.5-7c8.4,0,15,2.1,19.9,6.6C1718.9,945.7,1721.4,952.3,1721.4,961.4z M1814,932.8c-8.7,0-16.4,1.4-22.3,3.8
			c-5.9,2.8-10.8,7-14.6,12.9h-0.7l0.3-12.5v-45h-9.4v140.8h9.4v-54.3c0-13.2,2.8-23,8.7-28.9c5.9-5.9,15-9,27.5-9
			c9.4,0,16,2.1,20.6,6.6c4.5,4.5,6.6,11.9,6.6,21.6v63.7h9.4v-63.8C1849.6,944.6,1837.8,932.8,1814,932.8z M1904.3,1024.8
			c-5.9,0-10.5-1.7-13.2-5.6c-2.8-3.8-4.2-9.7-4.2-17.4V937h30.6v-8h-30.6v-24.7h-5.2l-4.9,23.4l-15.7,4.2v5.6h15.7v66.2
			c0,10.5,2.1,18.1,6.6,22.6c4.5,4.9,11.2,7.3,20.6,7.3c5.9,0,11.5-0.7,16-2.1v-7.7C1915.4,1024.1,1910.2,1024.8,1904.3,1024.8z"/>
	</g>
</g>
</svg>
