<?xml version="1.0" encoding="utf-8"?>
<!-- Generator: Adobe Illustrator 19.2.0, SVG Export Plug-In . SVG Version: 6.00 Build 0)  -->
<svg version="1.1" id="图层_1" xmlns="http://www.w3.org/2000/svg" xmlns:xlink="http://www.w3.org/1999/xlink" x="0px" y="0px"
	 viewBox="0 0 140 30" style="enable-background:new 0 0 140 30;" xml:space="preserve">
<style type="text/css">
	.st0{fill:#fff;}
</style>
<g>
	<path class="st0" d="M11.6,27.1c-0.4,0.1-1.9,0.4-3.7,0.4c-2.8,0-6.7-1.4-6.7-7.2v-3.5c0-6,3.9-7.3,6.7-7.3c1.8,0,3.4,0.3,3.7,0.4
		c0.3,0.1,0.5,0.2,0.5,0.5V12c0,0.3-0.1,0.5-0.5,0.5c0,0,0,0-0.1,0c-0.8-0.1-2.4-0.2-3.7-0.2c-2,0-3.4,1.1-3.4,4.4v3.5
		c0,3.3,1.5,4.4,3.4,4.4c1.2,0,2.8-0.1,3.7-0.2h0.1c0.4,0,0.5,0.2,0.5,0.5v1.6C12.1,26.9,12,27,11.6,27.1z"/>
	<path class="st0" d="M29.8,27.3h-2.4c-0.2,0-0.4-0.2-0.4-0.5v-11c0-0.1,0-0.2-0.1-0.2c0,0-0.1,0.1-0.1,0.1l-2.3,4.5
		c-0.1,0.3-0.4,0.4-0.7,0.4h-2.4c-0.3,0-0.6-0.1-0.7-0.4l-2.3-4.5c-0.1-0.1-0.1-0.1-0.1-0.1s-0.1,0.1-0.1,0.2v11
		c0,0.2-0.1,0.5-0.4,0.5h-2.4c-0.2,0-0.4-0.1-0.4-0.4V10.6c0-0.5,0.4-0.9,0.9-0.9h2c0.4,0,0.7,0.2,0.9,0.6l3.6,7.2
		c0.1,0.2,0.1,0.4,0.3,0.4c0.1,0,0.1-0.1,0.3-0.4l3.6-7.2c0.1-0.4,0.5-0.6,0.9-0.6h2c0.5,0,0.9,0.4,0.9,0.9V27
		C30.2,27.2,30.1,27.3,29.8,27.3z"/>
	<path class="st0" d="M39,27.5c-1.7,0-3.9-0.1-4.7-0.3c-0.4-0.1-0.6-0.3-0.6-0.7V10.6c0-0.5,0.2-0.7,0.6-0.7c0.7-0.1,3-0.3,4.7-0.3
		c4.7,0,7.4,2.6,7.4,7.3v3.5C46.5,24.9,43.8,27.5,39,27.5z M43.3,16.8c0-3.6-1.8-4.4-4.2-4.4c-0.9,0-1.5,0.1-2,0.1v12.3
		c0.5,0,1.1,0.1,2,0.1c2.4,0,4.2-0.9,4.2-4.4V16.8z"/>
	<path class="st0" d="M54.8,27.5c-1.9,0-3.4-0.1-4.1-0.3c-0.8-0.1-1.2-0.4-1.2-1.3V11c0-0.9,0.3-1.2,1.1-1.3
		c0.6-0.1,2.1-0.2,3.9-0.2c4.3,0,7.3,1.2,7.3,4.8v0.5c0,1.5-0.7,3-2.2,3.6c1.5,0.6,2.3,1.8,2.3,3.6v0.4C62,26.2,59.2,27.5,54.8,27.5
		z M58.7,14.5c0-1.7-1.1-2.3-4.1-2.3c-0.6,0-1.2,0-1.7,0.1v4.8h3c2.2,0,2.8-1,2.8-2.3V14.5z M58.8,22c0-1.3-0.7-2.5-2.9-2.5h-3v5.2
		c0.6,0,1.5,0.1,2,0.1c3.1,0,4-0.8,4-2.4L58.8,22L58.8,22z"/>
</g>
</svg>
