<svg id="图层_1" data-name="图层 1" xmlns="http://www.w3.org/2000/svg" viewBox="0 0 365.01 117.51"><defs><style>.cls-1{opacity:0.7;}.cls-2,.cls-3{fill:#fff;}.cls-3{fill-rule:evenodd;}</style></defs><title>CPT1</title><g class="cls-1"><path class="cls-2" d="M1643,1034.08c-11.63,0-20.09-6.22-20.09-21.08v-9.12c0-14.86,8.46-21.08,20.09-21.08s20.09,6.22,20.09,21.08V1013C1663.06,1027.86,1654.61,1034.08,1643,1034.08Zm10.22-30.2c0-8.92-3.31-12.9-10.22-12.9s-10.22,4-10.22,12.9V1013c0,8.92,3.31,12.9,10.22,12.9s10.22-4,10.22-12.9v-9.12Z" transform="translate(-1544.62 -960.76)"/><path class="cls-2" d="M1709,1033.54h-7.12c-1.69,0-3.17,0-4.3-2.43L1682,998.2a0.77,0.77,0,0,0-.63-0.54c-0.21,0-.35.14-0.35,0.54v34a1.32,1.32,0,0,1-1.34,1.35h-6a1.39,1.39,0,0,1-1.41-1.35V986a2.77,2.77,0,0,1,2.82-2.7h7.61c1.48,0,2.25.41,3.1,2.16l16.42,34.73a0.73,0.73,0,0,0,.56.54,0.53,0.53,0,0,0,.35-0.61V984.62a1.27,1.27,0,0,1,1.34-1.28h6.06a1.27,1.27,0,0,1,1.34,1.28v46.21A2.77,2.77,0,0,1,1709,1033.54Z" transform="translate(-1544.62 -960.76)"/><path class="cls-2" d="M1752.08,1033.13a69.26,69.26,0,0,1-13.39.95c-9.16,0-16.28-2.36-16.28-13.85V996.65c0-11.49,7.12-13.85,16.28-13.85a69.26,69.26,0,0,1,13.39.95c1.06,0.14,1.41.47,1.41,1.42v4.32a1.39,1.39,0,0,1-1.41,1.35H1737.7c-4.09,0-5.57,1.35-5.57,5.81v7.3h19.1a1.38,1.38,0,0,1,1.41,1.35v4.86a1.38,1.38,0,0,1-1.41,1.35h-19.1v8.71c0,4.46,1.48,5.81,5.57,5.81h14.38a1.39,1.39,0,0,1,1.41,1.35v4.32C1753.49,1032.66,1753.13,1033,1752.08,1033.13Z" transform="translate(-1544.62 -960.76)"/><polygon class="cls-3" points="314.93 22.04 360.98 22.04 360.98 30.11 314.93 30.11 314.93 22.04 314.93 22.04"/><path class="cls-3" d="M1886.6,1033.27a4,4,0,1,1-8.06,0V993.48a2.62,2.62,0,0,0-2.62-2.61h0.68V990.8h1.94v-1.23h8.06v1.24h1.93v0.07h0.69a2.62,2.62,0,0,0-2.62,2.61v-2.54h0v42.32h0Z" transform="translate(-1544.62 -960.76)"/><path class="cls-3" d="M1905.59,982.8a4,4,0,1,1-4,4,4,4,0,0,1,4-4h0Z" transform="translate(-1544.62 -960.76)"/><path class="cls-3" d="M1859.55,982.8a4,4,0,1,1-4,4,4,4,0,0,1,4-4h0Z" transform="translate(-1544.62 -960.76)"/><path class="cls-3" d="M1855.9,1006.91a4,4,0,0,0,6.34-3.31,4.39,4.39,0,0,0,0-.6v-0.06l0-.06a27.25,27.25,0,0,0-53.54,7.17h0v64.19h0a4,4,0,1,0,8.06,0h0v-44.84a27.24,27.24,0,0,0,45.76-13.33v-0.12a4.2,4.2,0,0,0,0-.44,4,4,0,0,0-7.94-1,19.2,19.2,0,0,1-37.87-3.8v-0.63h0a19.2,19.2,0,0,1,37.66-5.29,5.12,5.12,0,0,0,1.56,2.15h0Z" transform="translate(-1544.62 -960.76)"/><path class="cls-2" d="M1586.77,981.17m-0.27.18c-8.05,8.95-5.24,24.41-5.24,24.41a3,3,0,0,1-.18-0.53c0,0.18.09,0.36,0.09,0.53a17.87,17.87,0,0,0-8.61-3.28,37.08,37.08,0,0,1-.62-6.39,35.65,35.65,0,0,1,35.86-35.32h0a35.6,35.6,0,0,1,32.57,20.86H1629a27.22,27.22,0,0,0-21.39-10.12c-8.52,0-14.77,2.81-21.12,9.85m-24.41,60.09v-3c9.41-7,26.8-16.06,47.75-9.5,31.77,9.94,51.92,23.52,76.51,17.39s26.71-19.53,26.71-19.53-4.35,18.91-28.49,23.08-46.42-.53-74.82-11.09c-19.17-7.1-37.63-1.6-47.66,2.66h0Zm0-36.74V993.51a28.53,28.53,0,0,1,7.28-1.42c-0.09,1.24-.18,2.57-0.18,3.91a39,39,0,0,0,.53,6.48,18.6,18.6,0,0,0-7.63,2.22h0Zm0-11.18v11.18a16.41,16.41,0,0,0,0,28.58v2c-2,1.33-4,2.84-5.59,4.08a25.59,25.59,0,0,1,5.59-45.88h0Zm0,44.82a58.61,58.61,0,0,0-7.63,6.66c0,0.09,2.84-1.6,7.63-3.64v-3h0Z" transform="translate(-1544.62 -960.76)"/><path class="cls-3" d="M1799.38,1026.47a4,4,0,0,0-2.07.58,19.18,19.18,0,1,1-.06-34v0h0a4,4,0,1,0,3.63-7.16h0a27.25,27.25,0,1,0,.3,48.31h0A4,4,0,0,0,1799.38,1026.47Zm-2.74-34,0,0Zm3.14-7-0.4,0Zm0.38,0.06h0Zm-4.79,4.32c0-.12,0-0.24,0-0.37C1795.35,989.69,1795.36,989.81,1795.37,989.93Zm0.81,2.09-0.07-.1Zm-0.18-.25-0.14-.23Zm-0.21-.36-0.09-.19Zm-0.14-.3c0-.1-0.07-0.2-0.11-0.3C1795.58,990.9,1795.62,991,1795.66,991.1Zm-0.14-.4c0-.09-0.05-0.19-0.07-0.28C1795.47,990.51,1795.49,990.61,1795.52,990.7Zm-0.09-.34c0-.11,0-0.23-0.05-0.35C1795.39,990.13,1795.41,990.25,1795.43,990.36Zm1.27,37.14h0Zm-1.33,2.64c0,0.12,0,.24,0,0.37C1795.35,1030.38,1795.36,1030.26,1795.37,1030.14Zm0.83-2.1-0.06.08Zm-0.23.33-0.09.14Zm-0.16.29-0.09.19Zm-0.15.32c0,0.09-.07.18-0.1,0.27Q1795.6,1029.12,1795.65,1029Zm-0.13.38c0,0.1-.05.2-0.08,0.3C1795.46,1029.56,1795.49,1029.46,1795.52,1029.37Zm-0.08.34c0,0.11,0,.23-0.05.35C1795.39,1029.93,1795.41,1029.82,1795.43,1029.7Zm5.31,4.6,0,0Zm-0.91.21,0.1,0Zm0.45-.08,0.08,0Z" transform="translate(-1544.62 -960.76)"/></g></svg>