<svg id="图层_1" data-name="图层 1" xmlns="http://www.w3.org/2000/svg" viewBox="0 0 182.28 62.7"><defs><style>.cls-1{opacity:0.7;}.cls-2{fill:#fff;}</style></defs><title>CT1</title><g class="cls-1"><path class="cls-2" d="M2437.88,848.68a28.73,28.73,0,0,1-6,.61c-4.57,0-10.78-2.25-10.78-11.65V832c0-9.56,6.21-11.65,10.78-11.65a28.81,28.81,0,0,1,6,.61,0.9,0.9,0,0,1,.84.88v2.55a0.69,0.69,0,0,1-.76.8h-0.08c-1.33-.11-3.92-0.3-5.94-0.3-3.2,0-5.52,1.71-5.52,7.12v5.6c0,5.29,2.32,7.12,5.52,7.12,2,0,4.61-.19,5.94-0.3H2438a0.69,0.69,0,0,1,.76.8v2.55a0.9,0.9,0,0,1-.84.88" transform="translate(-2324.48 -820)"/><path class="cls-2" d="M2445.42,849h-2.67a1.64,1.64,0,0,1-1.64-1.64V821.64a1.64,1.64,0,0,1,1.64-1.64h1.79a1.6,1.6,0,0,1,1.6,1.6v26.58a0.77,0.77,0,0,1-.72.8" transform="translate(-2324.48 -820)"/><path class="cls-2" d="M2457.75,849.29c-6,0-9.1-4-9.1-9.48v-3.08c0-5.45,3.12-9.48,9.1-9.48s9.1,4,9.1,9.48v3.08c0,5.45-3.12,9.48-9.1,9.48m4.07-12.57c0-3.12-1.41-5.14-4.07-5.14s-4.08,2-4.08,5.14v3.08c0,3.12,1.41,5.14,4.08,5.14s4.07-2,4.07-5.14v-3.08Z" transform="translate(-2324.48 -820)"/><path class="cls-2" d="M2486,849h-2.63a1.64,1.64,0,0,1-1.64-1.64h0a9.82,9.82,0,0,1-6,1.9,6.49,6.49,0,0,1-4.68-1.6c-1.41-1.41-1.9-3.77-1.9-6.93V829.18a1.68,1.68,0,0,1,1.67-1.67h1.72a1.64,1.64,0,0,1,1.64,1.64v11.58c0,1.9.15,3,.87,3.66a3.3,3.3,0,0,0,2.36.69,9.53,9.53,0,0,0,3.83-1.27,0.87,0.87,0,0,0,.47-0.78V829.18a1.68,1.68,0,0,1,1.67-1.67h1.72a1.64,1.64,0,0,1,1.64,1.64v19.08a0.76,0.76,0,0,1-.76.76" transform="translate(-2324.48 -820)"/><path class="cls-2" d="M2505.73,848.3a32.44,32.44,0,0,1-7.65,1c-6.13,0-9.1-3.62-9.1-9.56V836.8c0-5.94,3-9.56,9.1-9.56,0.7,0,1.65,0,2.69.15a0.88,0.88,0,0,0,1-.87v-4.88a1.64,1.64,0,0,1,1.64-1.64h1.75a1.64,1.64,0,0,1,1.64,1.64v25.63c0,0.57-.15.8-1,1m-4-15.9a0.87,0.87,0,0,0-.78-0.87c-1-.1-2.17-0.17-2.88-0.17-3.27,0-4.07,2.32-4.07,5.44v2.93c0,3.12.8,5.45,4.07,5.45A27.69,27.69,0,0,0,2501,845a0.87,0.87,0,0,0,.77-0.87V832.4Z" transform="translate(-2324.48 -820)"/><path class="cls-2" d="M2440.47,858.53h-5.79a0.88,0.88,0,0,0-.88.88v21.36a1.64,1.64,0,0,1-1.64,1.64h-2a1.64,1.64,0,0,1-1.64-1.64V859.4a0.88,0.88,0,0,0-.88-0.88h-4.91a1.64,1.64,0,0,1-1.64-1.64v-1.18a1.6,1.6,0,0,1,1.6-1.6h16.91a1.64,1.64,0,0,1,1.64,1.64v2.09a0.7,0.7,0,0,1-.76.69" transform="translate(-2324.48 -820)"/><path class="cls-2" d="M2456.8,873.42h-12.41v0.11c0,2.21.92,4.84,4.57,4.84,2.78,0,5.41-.23,7-0.38h0.12a0.59,0.59,0,0,1,.68.57v2.51a0.8,0.8,0,0,1-.8,1,33.85,33.85,0,0,1-7.39.65c-3.81,0-9.22-2.06-9.22-9.56v-2.82c0-5.94,3.31-9.67,9.14-9.67s9.06,4,9.06,9.67v2.13a0.77,0.77,0,0,1-.76,1m-4.3-3.73c0-3-1.64-4.68-4-4.68s-4.07,1.67-4.07,4.68v0.15h8.07v-0.15Z" transform="translate(-2324.48 -820)"/><path class="cls-2" d="M2466.85,882.71a31.51,31.51,0,0,1-6.82-.76,0.86,0.86,0,0,1-.72-0.87v-2.29a0.64,0.64,0,0,1,.65-0.61h0.15c1.83,0.23,5.26.42,6.4,0.42,2.36,0,2.7-.8,2.7-1.83,0-.72-0.46-1.18-1.68-1.94l-5.22-3.2a6.28,6.28,0,0,1-3.2-5.26c0-3.81,2.4-5.71,7.23-5.71a28.23,28.23,0,0,1,6.78.76,0.83,0.83,0,0,1,.68.88v2.21a0.62,0.62,0,0,1-.61.72h-0.15a56,56,0,0,0-6.28-.46c-1.83,0-2.63.42-2.63,1.6,0,0.61.57,1,1.52,1.56l5,3c3.2,1.94,3.66,3.85,3.66,5.79,0,3.31-2.47,5.94-7.46,5.94" transform="translate(-2324.48 -820)"/><path class="cls-2" d="M2487.41,882.44a15.72,15.72,0,0,1-2.59.27c-4.3,0-6.05-1-6.05-6.05v-11.2a0.88,0.88,0,0,0-.75-0.87l-2.83-.42a0.82,0.82,0,0,1-.76-0.76v-0.84a1.64,1.64,0,0,1,1.64-1.64h1.83a0.88,0.88,0,0,0,.88-0.88V857.8a0.82,0.82,0,0,1,.76-0.76l3.54-.61h0.15a0.55,0.55,0,0,1,.61.57v3a0.88,0.88,0,0,0,.88.88h1.68a1.64,1.64,0,0,1,1.64,1.64v0.5a1.64,1.64,0,0,1-1.64,1.64h-1.68a0.88,0.88,0,0,0-.88.88v11.08c0,1.9.11,2.13,1.48,2.13h2a0.64,0.64,0,0,1,.8.57v2.4a0.69,0.69,0,0,1-.72.69" transform="translate(-2324.48 -820)"/><path class="cls-2" d="M2396.09,841.53q-3.49-13.09-15.61-18.22t-26.61-1.23q-16.58,4.46-24.21,14.21t-4,23.21q2.68,10,9.07,15.72a0.69,0.69,0,0,0,1.13-.71,21.77,21.77,0,0,1-.89-6.46v-7.71c0-13.16,8.55-16,14.84-16a39.59,39.59,0,0,1,8.29.84,1.25,1.25,0,0,1,1.15,1.21v3.51a1,1,0,0,1-1,1.1h-0.1c-1.84-.16-5.4-0.42-8.18-0.42-4.4,0-7.6,2.36-7.6,9.81V868c0,7.29,3.2,9.81,7.6,9.81,2.78,0,6.35-.26,8.18-0.42h0.1a1,1,0,0,1,1,1.1V882a1.42,1.42,0,0,1,0,.26,53.77,53.77,0,0,0,6.77-1,0.7,0.7,0,0,0,.51-0.91,14.43,14.43,0,0,1-.6-4.64V859.89a0.69,0.69,0,0,0-.59-0.69l-4.34-.65a1.13,1.13,0,0,1-1-1.05v-1.66a1.75,1.75,0,0,1,1.74-1.74h3.54a0.69,0.69,0,0,0,.69-0.69V849.8a1.13,1.13,0,0,1,1-1l4.88-.84H2372a0.76,0.76,0,0,1,.84.79v4.71a0.69,0.69,0,0,0,.69.69h3.33a1.75,1.75,0,0,1,1.74,1.74v1.71a1.75,1.75,0,0,1-1.74,1.74h-3.33a0.69,0.69,0,0,0-.69.69v15.77c0,2.62.16,2.94,2,2.94h0.17q12-4.45,17.82-12.69,7-10.06,3.2-24.47" transform="translate(-2324.48 -820)"/></g></svg>