<svg id="图层_1" data-name="图层 1" xmlns="http://www.w3.org/2000/svg" viewBox="0 0 250.15 95.45"><defs><style>.cls-1{opacity:0.7;}.cls-2{fill:#fff;}</style></defs><title>I21</title><g class="cls-1"><path class="cls-2" d="M2154.64,717.79V692.1h3.23v25.68h-3.23Z" transform="translate(-2072.38 -663.97)"/><path class="cls-2" d="M2163.18,717.79V699.18h2.7v2.65a6.27,6.27,0,0,1,5.63-3.07,7.06,7.06,0,0,1,2.94.6,4.66,4.66,0,0,1,2,1.58,6.27,6.27,0,0,1,.93,2.33,19.09,19.09,0,0,1,.17,3.07v11.44h-3V706.47a8.9,8.9,0,0,0-.35-2.88,3,3,0,0,0-1.24-1.52,3.8,3.8,0,0,0-2.09-.57,4.72,4.72,0,0,0-3.3,1.28q-1.39,1.28-1.39,4.85v10.16h-3Z" transform="translate(-2072.38 -663.97)"/><path class="cls-2" d="M2188.68,715l0.43,2.79a10.62,10.62,0,0,1-2.26.28,4.91,4.91,0,0,1-2.53-.54,3,3,0,0,1-1.27-1.43,11.85,11.85,0,0,1-.37-3.72v-10.7h-2.2v-2.45h2.2v-4.61l3-1.89v6.5h3v2.45h-3v10.88a5.77,5.77,0,0,0,.16,1.73,1.29,1.29,0,0,0,.52.61,1.91,1.91,0,0,0,1,.23A9.21,9.21,0,0,0,2188.68,715Z" transform="translate(-2072.38 -663.97)"/><path class="cls-2" d="M2203.72,711.8l3.1,0.4a8,8,0,0,1-2.71,4.43,8.84,8.84,0,0,1-11.21-.94,10.14,10.14,0,0,1-2.27-7.05q0-4.69,2.3-7.29a7.59,7.59,0,0,1,6-2.59,7.38,7.38,0,0,1,5.79,2.54q2.25,2.54,2.25,7.15,0,0.28,0,.84h-13.19a7.37,7.37,0,0,0,1.65,4.7,4.79,4.79,0,0,0,3.7,1.63,4.43,4.43,0,0,0,2.81-.91A6.07,6.07,0,0,0,2203.72,711.8Zm-9.84-5.1h9.87a6.51,6.51,0,0,0-1.13-3.52,4.5,4.5,0,0,0-3.71-1.82,4.64,4.64,0,0,0-3.47,1.45A5.91,5.91,0,0,0,2193.88,706.7Z" transform="translate(-2072.38 -663.97)"/><path class="cls-2" d="M2210.51,717.79V692.1h3v25.68h-3Z" transform="translate(-2072.38 -663.97)"/><path class="cls-2" d="M2218.08,717.79V692.1h3v25.68h-3Z" transform="translate(-2072.38 -663.97)"/><path class="cls-2" d="M2225.74,695.73V692.1h3v3.63h-3Zm0,22.06V699.18h3v18.61h-3Z" transform="translate(-2072.38 -663.97)"/><path class="cls-2" d="M2232.75,719.33l2.91,0.46a3,3,0,0,0,1,2.07,4.81,4.81,0,0,0,3,.88,5.15,5.15,0,0,0,3.21-.88,4.33,4.33,0,0,0,1.53-2.45,21.14,21.14,0,0,0,.22-4,6,6,0,0,1-4.89,2.44,6.55,6.55,0,0,1-5.64-2.77,11,11,0,0,1-2-6.64,12.92,12.92,0,0,1,.92-4.91,7.64,7.64,0,0,1,2.66-3.48,6.91,6.91,0,0,1,4.09-1.23,6.23,6.23,0,0,1,5.16,2.66v-2.24h2.76v16.08a16,16,0,0,1-.84,6.16,6.34,6.34,0,0,1-2.66,2.87,8.87,8.87,0,0,1-4.49,1.05,8.16,8.16,0,0,1-5.11-1.5A5.18,5.18,0,0,1,2232.75,719.33Zm2.48-11.18q0,3.66,1.38,5.34a4.41,4.41,0,0,0,6.93,0q1.4-1.67,1.4-5.25a7.91,7.91,0,0,0-1.44-5.15,4.37,4.37,0,0,0-3.47-1.73,4.25,4.25,0,0,0-3.4,1.71A7.86,7.86,0,0,0,2235.23,708.15Z" transform="translate(-2072.38 -663.97)"/><path class="cls-2" d="M2264.37,711.8l3.1,0.4a8,8,0,0,1-2.71,4.43,8.84,8.84,0,0,1-11.21-.94,10.14,10.14,0,0,1-2.27-7.05q0-4.69,2.3-7.29a7.59,7.59,0,0,1,6-2.59,7.38,7.38,0,0,1,5.79,2.54q2.25,2.54,2.25,7.15,0,0.28,0,.84h-13.19A7.37,7.37,0,0,0,2256,714a4.79,4.79,0,0,0,3.7,1.63,4.43,4.43,0,0,0,2.81-.91A6.07,6.07,0,0,0,2264.37,711.8Zm-9.84-5.1h9.87a6.51,6.51,0,0,0-1.13-3.52,4.5,4.5,0,0,0-3.71-1.82,4.64,4.64,0,0,0-3.47,1.45A5.91,5.91,0,0,0,2254.53,706.7Z" transform="translate(-2072.38 -663.97)"/><path class="cls-2" d="M2271.23,717.79V699.18h2.7v2.65a6.27,6.27,0,0,1,5.63-3.07,7.06,7.06,0,0,1,2.94.6,4.66,4.66,0,0,1,2,1.58,6.27,6.27,0,0,1,.93,2.33,19.09,19.09,0,0,1,.17,3.07v11.44h-3V706.47a8.9,8.9,0,0,0-.35-2.88,3,3,0,0,0-1.24-1.52,3.8,3.8,0,0,0-2.09-.57,4.72,4.72,0,0,0-3.3,1.28q-1.39,1.28-1.39,4.85v10.16h-3Z" transform="translate(-2072.38 -663.97)"/><path class="cls-2" d="M2301.73,711l2.95,0.4a8.18,8.18,0,0,1-2.47,5,7,7,0,0,1-4.89,1.81,7.41,7.41,0,0,1-5.83-2.5q-2.21-2.5-2.21-7.16a13.54,13.54,0,0,1,.95-5.27,6.84,6.84,0,0,1,2.89-3.39,8.23,8.23,0,0,1,4.22-1.13,6.66,6.66,0,0,1,7.06,5.89l-2.91.47a5.16,5.16,0,0,0-1.47-2.82,3.7,3.7,0,0,0-2.55-.95,4.55,4.55,0,0,0-3.68,1.71q-1.42,1.71-1.42,5.4t1.37,5.45a4.35,4.35,0,0,0,3.56,1.7,4.08,4.08,0,0,0,2.95-1.14A5.79,5.79,0,0,0,2301.73,711Z" transform="translate(-2072.38 -663.97)"/><path class="cls-2" d="M2319.34,711.8l3.1,0.4a8,8,0,0,1-2.71,4.43,8.84,8.84,0,0,1-11.21-.94,10.14,10.14,0,0,1-2.27-7.05q0-4.69,2.3-7.29a7.59,7.59,0,0,1,6-2.59,7.38,7.38,0,0,1,5.79,2.54q2.25,2.54,2.25,7.15,0,0.28,0,.84h-13.19A7.37,7.37,0,0,0,2311,714a4.79,4.79,0,0,0,3.7,1.63,4.43,4.43,0,0,0,2.81-.91A6.07,6.07,0,0,0,2319.34,711.8Zm-9.84-5.1h9.87a6.51,6.51,0,0,0-1.13-3.52,4.5,4.5,0,0,0-3.71-1.82,4.64,4.64,0,0,0-3.47,1.45A5.91,5.91,0,0,0,2309.5,706.7Z" transform="translate(-2072.38 -663.97)"/><path class="cls-2" d="M2154.64,751.86V726.18h3.23v25.68h-3.23Z" transform="translate(-2072.38 -663.97)"/><path class="cls-2" d="M2163.18,751.86V733.26h2.7v2.65a6.27,6.27,0,0,1,5.63-3.07,7.06,7.06,0,0,1,2.94.6,4.66,4.66,0,0,1,2,1.58,6.27,6.27,0,0,1,.93,2.33,19.09,19.09,0,0,1,.17,3.07v11.44h-3V740.55a8.9,8.9,0,0,0-.35-2.88,3,3,0,0,0-1.24-1.52,3.8,3.8,0,0,0-2.09-.57,4.72,4.72,0,0,0-3.3,1.28q-1.39,1.28-1.39,4.85v10.16h-3Z" transform="translate(-2072.38 -663.97)"/><path class="cls-2" d="M2180.94,746.31l3-.49a4.44,4.44,0,0,0,1.39,2.87,4.68,4.68,0,0,0,3.19,1,4.52,4.52,0,0,0,3.06-.88,2.7,2.7,0,0,0,1-2.08,1.94,1.94,0,0,0-.88-1.68,12.59,12.59,0,0,0-3.06-1.07,27,27,0,0,1-4.57-1.52,4.5,4.5,0,0,1-1.93-1.77,4.88,4.88,0,0,1-.66-2.5,5,5,0,0,1,.54-2.3,5,5,0,0,1,1.47-1.76,6.08,6.08,0,0,1,1.91-.92,8.65,8.65,0,0,1,2.59-.38,9.77,9.77,0,0,1,3.65.63,5,5,0,0,1,2.32,1.71,6.9,6.9,0,0,1,1,2.88l-2.93.42a3.42,3.42,0,0,0-1.16-2.24,4.08,4.08,0,0,0-2.71-.81,4.72,4.72,0,0,0-2.95.72,2.12,2.12,0,0,0-.88,1.68,1.8,1.8,0,0,0,.37,1.1,2.65,2.65,0,0,0,1.15.84q0.45,0.17,2.65.81a35.47,35.47,0,0,1,4.44,1.46,4.55,4.55,0,0,1,2,1.66,4.8,4.8,0,0,1,.72,2.7,5.5,5.5,0,0,1-.87,3,5.73,5.73,0,0,1-2.52,2.15,8.79,8.79,0,0,1-3.73.76,8,8,0,0,1-5.25-1.51A7.11,7.11,0,0,1,2180.94,746.31Z" transform="translate(-2072.38 -663.97)"/><path class="cls-2" d="M2199.21,729.81v-3.63h3v3.63h-3Zm0,22.06V733.26h3v18.61h-3Z" transform="translate(-2072.38 -663.97)"/><path class="cls-2" d="M2206.21,753.4l2.91,0.46a3,3,0,0,0,1,2.07,4.81,4.81,0,0,0,3,.88,5.15,5.15,0,0,0,3.21-.88,4.33,4.33,0,0,0,1.53-2.45,21.14,21.14,0,0,0,.22-4,6,6,0,0,1-4.89,2.44,6.55,6.55,0,0,1-5.64-2.77,11,11,0,0,1-2-6.64,12.92,12.92,0,0,1,.92-4.91,7.64,7.64,0,0,1,2.66-3.48,6.91,6.91,0,0,1,4.09-1.23,6.23,6.23,0,0,1,5.16,2.66v-2.24h2.76v16.08a16,16,0,0,1-.84,6.16,6.34,6.34,0,0,1-2.66,2.87,8.87,8.87,0,0,1-4.49,1.05,8.16,8.16,0,0,1-5.11-1.5A5.18,5.18,0,0,1,2206.21,753.4Zm2.48-11.18q0,3.66,1.38,5.34a4.41,4.41,0,0,0,6.93,0q1.4-1.67,1.4-5.25a7.91,7.91,0,0,0-1.44-5.15,4.37,4.37,0,0,0-3.47-1.73,4.25,4.25,0,0,0-3.4,1.71A7.86,7.86,0,0,0,2208.69,742.23Z" transform="translate(-2072.38 -663.97)"/><path class="cls-2" d="M2225.73,751.86V726.18h3v9.21a6.56,6.56,0,0,1,5.29-2.56,6.85,6.85,0,0,1,3.41.81,4.69,4.69,0,0,1,2.07,2.25,10.87,10.87,0,0,1,.62,4.17v11.79h-3V740.07a5,5,0,0,0-1-3.44,3.52,3.52,0,0,0-2.75-1.08,4.68,4.68,0,0,0-2.51.73,4,4,0,0,0-1.67,2,9.48,9.48,0,0,0-.5,3.43v10.18h-3Z" transform="translate(-2072.38 -663.97)"/><path class="cls-2" d="M2251.23,749l0.43,2.79a10.62,10.62,0,0,1-2.26.28,4.91,4.91,0,0,1-2.53-.54,3,3,0,0,1-1.27-1.43,11.85,11.85,0,0,1-.37-3.72v-10.7H2243v-2.45h2.2v-4.61l3-1.89v6.5h3v2.45h-3v10.88a5.77,5.77,0,0,0,.16,1.73,1.29,1.29,0,0,0,.52.61,1.91,1.91,0,0,0,1,.23A9.21,9.21,0,0,0,2251.23,749Z" transform="translate(-2072.38 -663.97)"/></g><g class="cls-1"><path class="cls-2" d="M2140.56,664v1a12.27,12.27,0,0,0-4.74.6q-2.61.8-3.08,2.33a32.4,32.4,0,0,0-.48,7.27v65.44q0,6.14.55,7.5a4.65,4.65,0,0,0,2.13,2.27q1.58,0.9,5.62.9v1h-31.87v-1q5.44,0,6.76-1.9t1.32-8.64V676q0-7-1.47-9.17t-6.61-1.9v-1h31.87Z" transform="translate(-2072.38 -663.97)"/></g><g class="cls-1"><path class="cls-2" d="M2104.25,664v1a12.27,12.27,0,0,0-4.74.6q-2.61.8-3.08,2.33a32.4,32.4,0,0,0-.48,7.27v65.44q0,6.14.55,7.5a4.65,4.65,0,0,0,2.13,2.27q1.58,0.9,5.62.9v1h-31.87v-1q5.44,0,6.76-1.9t1.32-8.64V676q0-7-1.47-9.17t-6.61-1.9v-1h31.87Z" transform="translate(-2072.38 -663.97)"/></g></svg>