<svg id="图层_1" data-name="图层 1" xmlns="http://www.w3.org/2000/svg" viewBox="0 0 407.97 78.48"><defs><style>.cls-1{opacity:0.7;}.cls-2{fill:#fff;}</style></defs><title>ITSM1</title><g class="cls-1"><path class="cls-2" d="M301.86,1059.27c-17.06,0-29.47-9.51-29.47-32.26v-14c0-22.75,12.41-32.26,29.47-32.26s29.47,9.51,29.47,32.26v14C331.33,1049.75,318.92,1059.27,301.86,1059.27Zm15-46.22c0-13.65-4.86-19.75-15-19.75s-15,6.1-15,19.75v14c0,13.65,4.86,19.75,15,19.75s15-6.1,15-19.75v-14Z" transform="translate(-272.39 -980.79)"/><path class="cls-2" d="M389.43,1058.44h-9.51a2.17,2.17,0,0,1-2.07-2.17v-33.71c0-9-.83-11.58-8.79-11.58-3.52,0-7.34,1.45-11.68,3.72v41.56a2.17,2.17,0,0,1-2.07,2.17H345.8a2.17,2.17,0,0,1-2.07-2.17v-54.08a2.07,2.07,0,0,1,2.07-2.07h9a2.07,2.07,0,0,1,2.07,2.07v2.17c6-3.83,9.93-5,16.75-5,14.89,0,17.89,10,17.89,23.16v33.71A2.17,2.17,0,0,1,389.43,1058.44Z" transform="translate(-272.39 -980.79)"/><path class="cls-2" d="M450.53,1034H416.82v0.31c0,6,2.48,13.13,12.41,13.13,7.55,0,14.68-.62,19-1h0.31a1.62,1.62,0,0,1,1.86,1.55v6.82c0,1.65-.31,2.38-2.17,2.69a91.93,91.93,0,0,1-20.06,1.76c-10.34,0-25-5.58-25-26v-7.65c0-16.13,9-26.26,24.81-26.26s24.61,10.86,24.61,26.26v5.79C452.6,1033.11,452,1034,450.53,1034Zm-11.68-10.13c0-8.06-4.45-12.72-10.86-12.72s-11.06,4.55-11.06,12.72v0.41h21.92v-0.41Z" transform="translate(-272.39 -980.79)"/><path class="cls-2" d="M477.62,1058.44H467.38a2.07,2.07,0,0,1-2.07-2.07V983.58a2,2,0,0,1,2.07-2h10.24a2,2,0,0,1,2.07,2v72.79A2.07,2.07,0,0,1,477.62,1058.44Z" transform="translate(-272.39 -980.79)"/><path class="cls-2" d="M542.65,993.61H524.55v62.76a2.07,2.07,0,0,1-2.07,2.07H512.25a2.07,2.07,0,0,1-2.07-2.07V993.61H492.09a1.91,1.91,0,0,1-2.07-1.86v-8.17a2,2,0,0,1,2.07-2h50.56a2,2,0,0,1,2.07,2v8.17A1.91,1.91,0,0,1,542.65,993.61Z" transform="translate(-272.39 -980.79)"/><path class="cls-2" d="M574.39,1059.27a79.08,79.08,0,0,1-18.3-1.86,2.21,2.21,0,0,1-2-2.07v-7.44a2,2,0,0,1,2-2h0.21c4.14,0.52,14.48,1,18.3,1,9.2,0,12-3.31,12-9.31,0-4-2-6.1-8.79-10.13l-13.65-8.17c-9.62-5.69-12.2-11.68-12.2-18.92,0-11.37,6.62-19.64,25.85-19.64a115.52,115.52,0,0,1,19.85,1.86,2.09,2.09,0,0,1,1.86,2v7.65a1.77,1.77,0,0,1-1.76,1.86h-0.21c-6.82-.62-13.65-1-20.37-1-7.65,0-10.86,2.69-10.86,7.34,0,3.41,1.76,5.48,8.48,9.2l12.41,6.93c11.37,6.31,14.37,12.92,14.37,21.09C601.58,1048.1,595.06,1059.27,574.39,1059.27Z" transform="translate(-272.39 -980.79)"/><path class="cls-2" d="M678.6,1058.44H668.16a2,2,0,0,1-1.65-2.07v-48.08c0-.72-0.1-1-0.31-1a1.71,1.71,0,0,0-.52.62l-9.93,19.75a3.73,3.73,0,0,1-3.31,1.76H642a3.73,3.73,0,0,1-3.31-1.76l-10-19.75a1.71,1.71,0,0,0-.52-0.62c-0.21,0-.31.31-0.31,1v48.08a2,2,0,0,1-1.65,2.07H615.74a1.58,1.58,0,0,1-1.76-1.55V985.75a4.15,4.15,0,0,1,4.14-4.14h8.48a4.35,4.35,0,0,1,3.83,2.48L646,1015.74c0.52,0.93.72,1.45,1.14,1.45s0.62-.52,1.14-1.45l15.61-31.64a4.35,4.35,0,0,1,3.83-2.48h8.48a4.15,4.15,0,0,1,4.14,4.14v71.13A1.58,1.58,0,0,1,678.6,1058.44Z" transform="translate(-272.39 -980.79)"/></g></svg>