<svg id="图层_1" data-name="图层 1" xmlns="http://www.w3.org/2000/svg" viewBox="0 0 376.15 79.49"><defs><style>.cls-1{fill:#fff;opacity:0.7;}</style></defs><title>LI1</title><path class="cls-1" d="M3349,755.89a8,8,0,0,0,16,0,8,8,0,1,0-16,0" transform="translate(-3348.96 -701.18)"/><polygon class="cls-1" points="24.37 0 24.37 61.95 57.82 61.95 57.82 51.66 36.82 51.66 36.82 0 24.37 0"/><path class="cls-1" d="M3422.14,739.79c0-9.39,2.44-14,8.06-14,6.35,0,8.71,5.06,8.71,14.61,0,9.39-2,14-8.22,14s-8.54-5.06-8.54-14.61m8.14,24.24c15.22,0,21.24-9.87,21.24-24.08s-5-23.75-20.83-23.75c-15.22,0-21.16,9.88-21.16,24.08s5,23.75,20.75,23.75" transform="translate(-3348.96 -701.18)"/><path class="cls-1" d="M3496.35,719.22c-4.07-1.79-9-2.77-17.09-2.77-15.06,0-22.38,10.53-22.38,23.5,0,16.57,8.54,21.3,18.07,21.3,4.15,0,7.32-1.06,9-2.61h0.33v3.18c0,6.53-2.69,8.9-9,8.9-4.8,0-9.28-2.2-11.56-5.39l-6.92,9.06c2.6,3.1,7.16,6.28,18.47,6.28,12.29,0,21.08-6.2,21.08-18.77V719.22ZM3484.23,727v22a8.78,8.78,0,0,1-6.43,2.37c-5.45,0-8.71-2.37-8.71-11.83,0-8.81,3.66-13.3,10.09-13.3a14.54,14.54,0,0,1,5,.82" transform="translate(-3348.96 -701.18)"/><rect class="cls-1" x="160.71" width="4.72" height="61.95"/><path class="cls-1" d="M3558.33,732.85c-0.24-9.71-5.61-14.53-14.4-14.53a16.4,16.4,0,0,0-12.7,5.63h-0.33v-4.81h-4.56v44h4.72V731.3a13,13,0,0,1,12.21-8.57c6.67,0,10.34,4,10.34,11.26v29.14h4.72V732.85Z" transform="translate(-3348.96 -701.18)"/><path class="cls-1" d="M3589.24,751.46c0,4.24-3.42,7.83-10.17,7.83a16.67,16.67,0,0,1-12-4.65l-3.09,3.75c2.93,2.86,8.22,5.3,14.89,5.3,9.93,0,15.14-6.12,15.14-12.24,0-15-22.54-10.53-22.54-21.38,0-3.92,2.85-7.35,9.76-7.35,3.17,0,6.84,1.14,9,3.43l3.09-3.59c-2.68-2.69-7.49-4.24-12-4.24-9.52,0-14.65,5.71-14.65,11.83,0,14.94,22.54,10.37,22.54,21.3" transform="translate(-3348.96 -701.18)"/><rect class="cls-1" x="255.45" y="17.96" width="4.72" height="43.99"/><path class="cls-1" d="M3602.82,711.47a3.95,3.95,0,1,0,3.91-4,3.86,3.86,0,0,0-3.91,4" transform="translate(-3348.96 -701.18)"/><path class="cls-1" d="M3651.89,720.53c-2.36-1.22-6.51-2.2-11.47-2.2-14.49,0-21.32,9.3-21.32,23.83,0,14.69,7.57,20.65,16.52,20.65a17.52,17.52,0,0,0,11.31-3.75h0.33v4.57c0,8.32-3.42,12.65-11.88,12.65-6.27,0-9.52-2-11.72-3.92l-2.77,4.08c1.63,1.39,5.94,4.25,13.51,4.25,10.74,0,17.5-5.63,17.5-17.06V720.53Zm-4.72,3.59v29.46a13,13,0,0,1-10.17,4.9c-6.43,0-13-3.59-13-17.22,0-12.57,6.27-18.53,15.38-18.53a20.62,20.62,0,0,1,7.81,1.39" transform="translate(-3348.96 -701.18)"/><path class="cls-1" d="M3680,718.32c-8.06,0-12,4.57-13,5.88h-0.32v-23H3662v61.95h4.72V731.3a13.45,13.45,0,0,1,12.86-8.57c6.59,0,9.68,4.65,9.68,10.45v30h4.72V732.52c0-8.73-5.53-14.2-13.91-14.2" transform="translate(-3348.96 -701.18)"/><path class="cls-1" d="M3716,763.54c4.64,0,7.41-.9,9.11-1.8l-1.38-4c-1,.57-2.85,1.47-6.92,1.47s-6.84-2.2-6.84-7.67v-27h12.37V720.5H3710v-13h-4.72v13h-6.75v4.08h6.75v27.53c0,7.59,3.58,11.43,10.74,11.43" transform="translate(-3348.96 -701.18)"/></svg>