<?xml version="1.0" encoding="utf-8"?>
<!-- Generator: Adobe Illustrator 19.2.0, SVG Export Plug-In . SVG Version: 6.00 Build 0)  -->
<svg version="1.1" id="图层_1" xmlns="http://www.w3.org/2000/svg" xmlns:xlink="http://www.w3.org/1999/xlink" x="0px" y="0px"
	 viewBox="0 0 376.1 79.5" style="enable-background:new 0 0 376.1 79.5;" xml:space="preserve">
<style type="text/css">
	.st0{fill:#FFFFFF;}
</style>
<g>
	<path class="st0" d="M0,54.7c0,4.3,3.5,7.8,7.9,7.8c4.6,0,8.1-3.5,8.1-7.8c0-4.7-3.5-8.2-8.1-8.2C3.5,46.5,0,50,0,54.7z"/>
	<path class="st0" d="M24.4,0v61.9h33.4V51.7h-21V0H24.4z"/>
	<path class="st0" d="M73.2,38.6c0-9.4,2.4-14,8.1-14c6.3,0,8.7,5.1,8.7,14.6c0,9.4-2,14-8.2,14C75.5,53.2,73.2,48.2,73.2,38.6z
		 M81.3,62.8c15.2,0,21.2-9.9,21.2-24.1c0-14.3-5-23.7-20.8-23.7c-15.2,0-21.2,9.9-21.2,24.1C60.6,53.4,65.5,62.8,81.3,62.8z"/>
	<path class="st0" d="M147.4,18c-4.1-1.8-9-2.8-17.1-2.8c-15.1,0-22.4,10.5-22.4,23.5c0,16.6,8.5,21.3,18.1,21.3
		c4.2,0,7.3-1.1,9-2.6h0.3v3.2c0,6.5-2.7,8.9-9,8.9c-4.8,0-9.3-2.2-11.6-5.4l-6.9,9.1c2.6,3.1,7.2,6.3,18.5,6.3
		c12.3,0,21.1-6.2,21.1-18.8V18z M135.3,25.8v22c-1.5,1.6-3.7,2.4-6.4,2.4c-5.5,0-8.7-2.4-8.7-11.8c0-8.8,3.7-13.3,10.1-13.3
		C132.2,25,133.6,25.2,135.3,25.8z"/>
	<rect x="160.7" class="st0" width="4.7" height="61.9"/>
	<path class="st0" d="M209.4,31.7c-0.2-9.7-5.6-14.5-14.4-14.5c-7.5,0-11.9,4.5-12.7,5.6h-0.3V18h-4.6v44h4.7V30.1
		c1.6-4.6,6.2-8.6,12.2-8.6c6.7,0,10.3,4,10.3,11.3v29.1h4.7V31.7z"/>
	<path class="st0" d="M240.3,50.3c0,4.2-3.4,7.8-10.2,7.8c-5,0-9.2-1.8-12-4.7l-3.1,3.8c2.9,2.9,8.2,5.3,14.9,5.3
		c9.9,0,15.1-6.1,15.1-12.2c0-15-22.5-10.5-22.5-21.4c0-3.9,2.8-7.3,9.8-7.3c3.2,0,6.8,1.1,9,3.4l3.1-3.6c-2.7-2.7-7.5-4.2-12-4.2
		c-9.5,0-14.6,5.7-14.6,11.8C217.7,43.9,240.3,39.3,240.3,50.3z"/>
	<rect x="255.4" y="18" class="st0" width="4.7" height="44"/>
	<path class="st0" d="M253.9,10.3c0,2.2,1.7,3.9,3.9,3.9c2.3,0,4-1.7,4-3.9c0-2.3-1.7-4-4-4C255.6,6.3,253.9,8,253.9,10.3z"/>
	<path class="st0" d="M302.9,19.3c-2.4-1.2-6.5-2.2-11.5-2.2c-14.5,0-21.3,9.3-21.3,23.8c0,14.7,7.6,20.6,16.5,20.6
		c6.1,0,10-2.6,11.3-3.8h0.3v4.6c0,8.3-3.4,12.7-11.9,12.7c-6.3,0-9.5-2-11.7-3.9l-2.8,4.1c1.6,1.4,5.9,4.2,13.5,4.2
		c10.7,0,17.5-5.6,17.5-17.1V19.3z M298.2,22.9v29.5c-2.3,3.1-6.4,4.9-10.2,4.9c-6.4,0-13-3.6-13-17.2c0-12.6,6.3-18.5,15.4-18.5
		C293.5,21.5,296.3,22.1,298.2,22.9z"/>
	<path class="st0" d="M331.1,17.1c-8.1,0-12,4.6-13,5.9h-0.3V0H313v61.9h4.7V30.1c1.5-4.2,5.9-8.6,12.9-8.6c6.6,0,9.7,4.7,9.7,10.4
		v30h4.7V31.3C345,22.6,339.5,17.1,331.1,17.1z"/>
	<path class="st0" d="M367,62.4c4.6,0,7.4-0.9,9.1-1.8l-1.4-4c-1,0.6-2.8,1.5-6.9,1.5c-4.2,0-6.8-2.2-6.8-7.7v-27h12.4v-4.1H361v-13
		h-4.7v13h-6.8v4.1h6.8v27.5C356.3,58.5,359.9,62.4,367,62.4z"/>
</g>
</svg>
