<svg id="图层_1" data-name="图层 1" xmlns="http://www.w3.org/2000/svg" viewBox="0 0 213.87 68.3"><defs><style>.cls-1{fill:#fff;opacity:0.7;}</style></defs><title>NI</title><path class="cls-1" d="M1190.07,751.47c-0.16,0-.27.11-0.27,0.43v23.55a33.6,33.6,0,0,0,12.62,2.88l-11.86-26.43a0.6,0.6,0,0,0-.48-0.43m54.62-14.17Q1241.18,724.17,1229,719t-26.7-1.23q-16.64,4.47-24.29,14.26t-4,23.29q2.7,10.12,9.14,15.82V742.22a2.16,2.16,0,0,1,2.15-2.15h5.81c1.13,0,1.72.32,2.37,1.72L1206,769.86a0.57,0.57,0,0,0,.43.43,0.42,0.42,0,0,0,.27-0.48V741.09a1,1,0,0,1,1-1h4.63a1,1,0,0,1,1,1v36.34c1.5-.29,3-0.63,4.59-1.05l0.42-.12V752.07a1.08,1.08,0,0,1,1.08-1.08h5a1.08,1.08,0,0,1,1.08,1.08v21.79q10.66-4.39,16-12,7.07-10.09,3.21-24.56m-19,8.58a1.08,1.08,0,0,1-1.08,1.07h-5.22a1.13,1.13,0,0,1-1.13-1.07v-4.73a1.13,1.13,0,0,1,1.13-1.08h5.22a1.08,1.08,0,0,1,1.08,1.08v4.73Z" transform="translate(-1172.83 -716.1)"/><path class="cls-1" d="M1285.5,744.89h-3.33a1.77,1.77,0,0,1-2-1.19l-7.32-16.05a0.36,0.36,0,0,0-.3-0.26c-0.1,0-.16.07-0.16,0.26v16.58a0.63,0.63,0,0,1-.63.66H1269a0.66,0.66,0,0,1-.66-0.66V721.72a1.32,1.32,0,0,1,1.32-1.32h3.56a1.39,1.39,0,0,1,1.45,1.05l7.68,16.94a0.35,0.35,0,0,0,.26.26,0.26,0.26,0,0,0,.16-0.3V721a0.61,0.61,0,0,1,.63-0.63h2.83a0.61,0.61,0,0,1,.63.63v22.54a1.32,1.32,0,0,1-1.32,1.32" transform="translate(-1172.83 -716.1)"/><path class="cls-1" d="M1304.31,737.11h-10.75v0.1c0,1.91.79,4.19,4,4.19,2.41,0,4.68-.2,6.06-0.33h0.1a0.51,0.51,0,0,1,.59.49v2.17a0.69,0.69,0,0,1-.69.86,29.36,29.36,0,0,1-6.39.56c-3.29,0-8-1.78-8-8.27v-2.44c0-5.14,2.87-8.37,7.91-8.37s7.84,3.46,7.84,8.37v1.84a0.66,0.66,0,0,1-.66.82m-3.73-3.23c0-2.57-1.42-4.05-3.46-4.05s-3.53,1.45-3.53,4.05V734h7v-0.13Z" transform="translate(-1172.83 -716.1)"/><path class="cls-1" d="M1316.14,744.92a13.63,13.63,0,0,1-2.24.23c-3.73,0-5.24-.82-5.24-5.24V729.56l-3.1-.46a0.71,0.71,0,0,1-.66-0.66V727a0.66,0.66,0,0,1,.66-0.66h3.1v-2.7a0.71,0.71,0,0,1,.66-0.66l3.07-.53h0.13a0.48,0.48,0,0,1,.53.49v3.4h3a0.66,0.66,0,0,1,.66.66v1.94a0.66,0.66,0,0,1-.66.66h-3v10.35c0,1.65.1,1.85,1.29,1.85h1.75a0.56,0.56,0,0,1,.69.5v2.08a0.6,0.6,0,0,1-.63.59" transform="translate(-1172.83 -716.1)"/><path class="cls-1" d="M1343,727.06l-3,15.16c-0.4,2-.92,2.77-2.93,2.77h-0.89a2.92,2.92,0,0,1-3.13-2.57l-2.61-10.08c0-.13,0-0.17-0.1-0.17s-0.07,0-.1.17l-2.6,10.08a2.92,2.92,0,0,1-3.13,2.57h-0.89c-2,0-2.54-.79-2.93-2.77l-3-15.16V727a0.66,0.66,0,0,1,.66-0.66h3.2a0.64,0.64,0,0,1,.59.59l2.08,13.94a0.54,0.54,0,0,0,.16.46,0.53,0.53,0,0,0,.23-0.46l2.74-11.07c0.33-1.28.73-1.42,1.85-1.42h2.31c1.12,0,1.52.13,1.85,1.42l2.74,11.07a0.53,0.53,0,0,0,.23.46,0.55,0.55,0,0,0,.16-0.46l2.08-13.94a0.64,0.64,0,0,1,.59-0.59h3.2a0.66,0.66,0,0,1,.66.66v0.1Z" transform="translate(-1172.83 -716.1)"/><path class="cls-1" d="M1351.07,745.15c-5.18,0-7.88-3.49-7.88-8.21v-2.67c0-4.71,2.7-8.21,7.88-8.21s7.88,3.49,7.88,8.21v2.67c0,4.71-2.7,8.21-7.88,8.21m3.53-10.88c0-2.7-1.22-4.45-3.53-4.45s-3.53,1.75-3.53,4.45v2.67c0,2.7,1.22,4.45,3.53,4.45s3.53-1.75,3.53-4.45v-2.67Z" transform="translate(-1172.83 -716.1)"/><path class="cls-1" d="M1369.92,729.76a9.33,9.33,0,0,0-4.55,1.19V744.2a0.69,0.69,0,0,1-.66.69h-3a0.69,0.69,0,0,1-.66-0.69V727a0.66,0.66,0,0,1,.66-0.66h2.87a0.66,0.66,0,0,1,.66.66v0.69a7.67,7.67,0,0,1,4.71-1.58,0.66,0.66,0,0,1,.66.66v2.37a0.66,0.66,0,0,1-.66.66" transform="translate(-1172.83 -716.1)"/><path class="cls-1" d="M1386.23,744.89h-4a1.4,1.4,0,0,1-1-.66l-5.17-7.52v7.48a0.69,0.69,0,0,1-.66.69h-3a0.69,0.69,0,0,1-.66-0.69V720.47a0.66,0.66,0,0,1,.66-0.66h3a0.66,0.66,0,0,1,.66.66v13.74l5.63-7.51a1,1,0,0,1,.76-0.4h3.69c0.33,0,.49.13,0.49,0.36a0.53,0.53,0,0,1-.13.33l-6.62,8.14,6.69,9.1a0.43,0.43,0,0,1,.1.26,0.44,0.44,0,0,1-.46.4" transform="translate(-1172.83 -716.1)"/><path class="cls-1" d="M1272.22,777.72H1269a0.66,0.66,0,0,1-.66-0.66v-23.2a0.63,0.63,0,0,1,.66-0.63h3.26a0.63,0.63,0,0,1,.66.63v23.2a0.66,0.66,0,0,1-.66.66" transform="translate(-1172.83 -716.1)"/><path class="cls-1" d="M1290.41,777.72h-3a0.69,0.69,0,0,1-.66-0.69V766.28c0-2.87-.26-3.69-2.8-3.69a8.39,8.39,0,0,0-3.72,1.19V777a0.69,0.69,0,0,1-.66.69h-3a0.69,0.69,0,0,1-.66-0.69V759.79a0.66,0.66,0,0,1,.66-0.66h2.87a0.66,0.66,0,0,1,.66.66v0.69a8.54,8.54,0,0,1,5.34-1.58c4.75,0,5.7,3.2,5.7,7.38V777a0.69,0.69,0,0,1-.66.69" transform="translate(-1172.83 -716.1)"/><path class="cls-1" d="M1299.73,778a27.29,27.29,0,0,1-5.9-.66,0.74,0.74,0,0,1-.63-0.76v-2a0.55,0.55,0,0,1,.56-0.53h0.13c1.58,0.2,4.55.36,5.54,0.36,2,0,2.34-.69,2.34-1.58,0-.63-0.4-1-1.45-1.68l-4.52-2.77a5.43,5.43,0,0,1-2.77-4.55c0-3.3,2.07-4.94,6.26-4.94a24.47,24.47,0,0,1,5.87.66,0.72,0.72,0,0,1,.59.76v1.91a0.53,0.53,0,0,1-.53.63h-0.13a48.42,48.42,0,0,0-5.44-.4c-1.58,0-2.27.36-2.27,1.38,0,0.53.49,0.86,1.32,1.35l4.32,2.64c2.77,1.68,3.16,3.33,3.16,5,0,2.87-2.14,5.14-6.46,5.14" transform="translate(-1172.83 -716.1)"/><path class="cls-1" d="M1312.06,756.65h-3.2a0.69,0.69,0,0,1-.69-0.66v-2.9a0.69,0.69,0,0,1,.69-0.66h3.2a0.66,0.66,0,0,1,.66.66V756a0.66,0.66,0,0,1-.66.66m-0.1,21.06h-3a0.69,0.69,0,0,1-.66-0.69V759.79a0.66,0.66,0,0,1,.66-0.66h3a0.66,0.66,0,0,1,.66.66V777a0.69,0.69,0,0,1-.66.69" transform="translate(-1172.83 -716.1)"/><path class="cls-1" d="M1331,762.13l-1.09.43a4.2,4.2,0,0,1,.82,2.64v0.23c0,4.12-2.83,6-7.81,6a9.94,9.94,0,0,1-3.59-.56,1,1,0,0,0-.56.86,1.08,1.08,0,0,0,1.12,1.09l3.89,0.92c4.48,1.05,7.38,1.75,7.38,5.27v0.23c0,3.36-2.47,5.17-8.07,5.17-5.34,0-8.17-2-8.17-5.47v-0.3a5,5,0,0,1,1.68-3.63,3.83,3.83,0,0,1-1.48-3v0a3.22,3.22,0,0,1,1.32-2.67,5.09,5.09,0,0,1-1.35-3.86v-0.23c0-3.3,2.14-6.06,7.85-6.06h7.71a0.89,0.89,0,0,1,.89.89v1.38a0.62,0.62,0,0,1-.53.73M1326.82,779c0-.72-0.43-1.15-3.89-2l-2.93-.69a3.26,3.26,0,0,0-.82,2.31v0.3c0,1.35.82,2.17,3.92,2.17s3.72-.69,3.72-1.88V779Zm-0.36-13.74c0-1.58-.69-2.8-3.53-2.8s-3.56,1.25-3.56,2.8v0.26c0,1.22.49,2.6,3.56,2.6,2.73,0,3.53-1,3.53-2.6v-0.26Z" transform="translate(-1172.83 -716.1)"/><path class="cls-1" d="M1347.52,777.72h-3a0.69,0.69,0,0,1-.66-0.69V766.18c0-2.87-.5-3.59-2.7-3.59a8.56,8.56,0,0,0-3.82,1.12V777a0.69,0.69,0,0,1-.66.69h-3a0.69,0.69,0,0,1-.66-0.69V753.29a0.66,0.66,0,0,1,.66-0.66h3a0.66,0.66,0,0,1,.66.66v6.82a8.85,8.85,0,0,1,5-1.22c4.55,0,5.9,3.23,5.9,7.28V777a0.69,0.69,0,0,1-.66.69" transform="translate(-1172.83 -716.1)"/><path class="cls-1" d="M1359.91,777.75a13.62,13.62,0,0,1-2.24.23c-3.72,0-5.24-.82-5.24-5.24V762.39l-3.1-.46a0.71,0.71,0,0,1-.66-0.66v-1.48a0.66,0.66,0,0,1,.66-0.66h3.1v-2.7a0.71,0.71,0,0,1,.66-0.66l3.07-.53h0.13a0.48,0.48,0,0,1,.53.49v3.4h3a0.66,0.66,0,0,1,.66.66v1.94a0.66,0.66,0,0,1-.66.66h-3v10.35c0,1.65.1,1.85,1.29,1.85h1.75a0.56,0.56,0,0,1,.69.49v2.08a0.6,0.6,0,0,1-.63.59" transform="translate(-1172.83 -716.1)"/></svg>