<?xml version="1.0" encoding="utf-8"?>
<!-- Generator: Adobe Illustrator 19.2.0, SVG Export Plug-In . SVG Version: 6.00 Build 0)  -->
<svg version="1.1" id="图层_1" xmlns="http://www.w3.org/2000/svg" xmlns:xlink="http://www.w3.org/1999/xlink" x="0px" y="0px"
	 viewBox="0 0 137.5 100" style="enable-background:new 0 0 137.5 100;" xml:space="preserve">
<style type="text/css">
	.st0{fill:#FFFFFF;}
</style>
<g>
	<path class="st0" d="M0,0v100h100V0H0z M71.3,45.8V12.5h16.2v4.1H77.4v10.1h9v4.1h-9v10.9h10.1v4.1L71.3,45.8L71.3,45.8z M25,12.6
		c8.9,0,12.5,7.7,12.5,17.1S34,46.8,25,46.8c-8.9,0-12.5-7.6-12.5-17.1C12.5,20.3,16.1,12.6,25,12.6z M34,87.5l-2.6-8.6H20.6
		l-2.7,8.6h-5.5l11-33.3h5.8l11,33.3H34z M51.1,88.4c-4,0-6.4-0.7-8.2-1.9l1.5-4.3c1.2,0.8,3,1.5,5.6,1.5c3.3,0,5.3-2,5.3-5.1
		c0-2.5-1.5-4.1-5.2-5.6c-5.4-2.3-6.9-5.9-6.9-9.1c0-5.3,3.8-9.8,10-9.8c3.3,0,5.8,0.8,7.3,1.9l-1.4,3.8c-1.2-0.7-3-1.5-5.1-1.5
		c-3,0-4.8,1.9-4.8,4.8c0,2.9,2.1,4.3,5,5.5c6.5,2.8,7.5,6.4,7.5,9.6C61.8,84.2,57.3,88.4,51.1,88.4z M66.3,45.8h-5L48.7,24.3
		c-1.1-1.9-1.9-3.7-1.9-3.7h-0.1c0,0,0.2,1.9,0.2,3.9v21.4h-5.2V12.5h5.8l11.9,20.2c1.1,1.9,1.8,3.4,1.8,3.4h0.1
		c0,0-0.1-1.6-0.1-3.5V12.5h5.1V45.8z M73.6,74.6l-1.3-0.1v13h-5.9V56c2.1-1.1,5.3-1.9,9.1-1.9c8.5,0,12,4.4,12,10.2
		C87.5,70.4,83.4,75.3,73.6,74.6z"/>
	<path class="st0" d="M26.2,59.6L26.2,59.6c-0.1,0-0.2,1.6-1,4l-3.6,11.7h8.9l-3.4-11.7C26.4,61.1,26.2,59.6,26.2,59.6z"/>
	<path class="st0" d="M25,42.3c5.3,0,6.2-6.6,6.2-12.8c0.1-6.3-1-12.9-6.2-12.9c-5.1,0-6.3,6.6-6.3,12.9
		C18.7,35.7,19.7,42.3,25,42.3z"/>
	<path class="st0" d="M75.4,57.7c-1.4,0-2.5,0.3-3.1,0.5V71l1.2,0.1c5.9,0.5,8.1-2.1,8.1-6.7C81.7,59.9,79.9,57.7,75.4,57.7z"/>
</g>
<polygon id="XMLID_211_" class="st0" points="108.3,0 108.3,100 125,100 137.5,0 "/>
</svg>
