<?xml version="1.0" encoding="utf-8"?>
<!-- Generator: Adobe Illustrator 19.0.0, SVG Export Plug-In . SVG Version: 6.00 Build 0)  -->
<svg version="1.1" id="图层_1" xmlns="http://www.w3.org/2000/svg" xmlns:xlink="http://www.w3.org/1999/xlink" x="0px" y="0px"
	 viewBox="20 -220 750.2 328.6" style="enable-background:new 20 -220 750.2 328.6;" xml:space="preserve">
<style type="text/css">
	.st0{opacity:0.6;}
	.st1{fill:#FFFFFF;}
</style>
<g>
	<g class="st0">
		<path class="st1" d="M78-173v-14.1c0-23.1-12.2-32.7-29-32.7s-29,9.6-29,32.7v14.1c0,23.1,12.2,32.7,29,32.7S78-150,78-173z
			 M63.8-173c0,13.8-4.8,20-14.8,20s-14.8-6.2-14.8-20v-14.1c0-13.8,4.8-20,14.8-20s14.8,6.2,14.8,20V-173z"/>
		<path class="st1" d="M143.3-144.4l0.1-73.5c0-1.2-0.8-2-1.9-2h-8.8c-1.1,0-1.9,0.8-1.9,2l-0.1,56.9c0,0.6-0.3,0.9-0.5,0.9
			c-0.3,0-0.6-0.3-0.8-0.8l-23.6-55.7c-1.2-2.7-2.3-3.4-4.5-3.4h-11c-2.2,0-4.1,1.9-4.1,4.2l-0.1,73.4c0,1.2,0.9,2.1,2,2.1h8.7
			c1.1,0,1.9-0.9,1.9-2.1l0.1-54.5c0-0.6,0.2-0.8,0.5-0.8s0.6,0.2,0.9,0.8l22.5,52.8c1.6,3.8,3.8,3.8,6.2,3.8h10.3
			C141.5-140.2,143.3-142.1,143.3-144.4z"/>
		<path class="st1" d="M198.5-144v-6.7c0-1.2-0.9-2.1-2-2.1h-20.8c-5.9,0-8-2.1-8-9v-13.5h27.6c1.1,0,2-0.9,2-2.1v-7.5
			c0-1.2-0.9-2.1-2-2.1h-27.6v-11.3c0-6.9,2.1-9,8-9h20.8c1.1,0,2-0.9,2-2.1v-6.7c0-1.5-0.5-2-2-2.2c-3.3-0.5-7.2-1.5-19.3-1.5
			c-13.2,0-23.5,3.7-23.5,21.5v36.6c0,17.8,10.3,21.5,23.5,21.5c12.1,0,16.1-0.9,19.3-1.5C198-142,198.5-142.5,198.5-144z"/>
		<path class="st1" d="M263.4-142c0-0.1-0.1-0.3-0.1-0.5l-16.7-66.7c-2.4-9.7-9.8-10.7-14.2-10.7c-4.4,0-11.7,0.9-14.2,10.7
			l-16.7,66.7c0,0.2-0.1,0.4-0.1,0.5c0,1,0.8,1.8,1.8,1.8h10.9c0.9,0,1.7-0.8,1.9-1.8l4.7-19.9h23.4l4.7,19.9c0.2,0.9,1,1.8,1.9,1.8
			h10.8C262.6-140.2,263.4-140.9,263.4-142z M241.4-173.8h-17.9l7.3-32.1c0.3-1.3,0.6-1.7,1.6-1.7s1.3,0.4,1.6,1.7L241.4-173.8z"/>
		<path class="st1" d="M320.4-194.8v-0.9c0-18.6-13.6-24.2-29.3-24.2c-7.4,0-14.7,0.5-20,1.4c-2,0.3-3.3,1-3.3,3.1l0.1,73.2
			c0,1.2,0.9,2.1,2,2.1h10.2c1.1,0,1.9-0.9,1.9-2.1l-0.1-28.4c2.3,0.1,6.4,0.4,9.1,0.4C306.7-170.3,320.4-176.3,320.4-194.8z
			 M306.3-194.8c0,8.4-4.3,12.6-15.3,12.6c-1.7,0-7.4-0.2-9.1-0.3v-24.9c1.8-0.2,6.9-0.4,9.1-0.4c10.2,0,15.3,3.4,15.3,12.2V-194.8z
			"/>
		<path class="st1" d="M391.9-141.8v-74c0-2.3-1.8-4.2-4.1-4.2h-8.4c-1.6,0-3.1,1-3.8,2.5l-15.4,32.1c-0.5,0.9-0.7,1.5-1.1,1.5
			s-0.6-0.5-1.1-1.5l-15.4-32.1c-0.7-1.5-2.1-2.5-3.8-2.5h-8.4c-2.2,0-4.1,1.9-4.1,4.2v74c0,1,0.8,1.6,1.7,1.6h10.3
			c0.9,0,1.6-1,1.6-2.1v-50.6c0-0.7,0.1-1,0.3-1c0.1,0,0.3,0.3,0.5,0.6l9.9,20c0.6,1.2,1.9,1.8,3.3,1.8h10.3c1.3,0,2.6-0.6,3.3-1.8
			l9.8-20c0.2-0.3,0.4-0.6,0.5-0.6c0.2,0,0.3,0.3,0.3,1v50.6c0,1,0.7,2.1,1.6,2.1H390C391.1-140.2,391.9-140.7,391.9-141.8z"/>
	</g>
	<g>
		<path class="st1" d="M71.5,63.8c-17.2,0-29.5-1.6-40.5-4.1c-2.3-0.5-4.3-2.1-4.3-4.6V38.6c0-2.5,2.1-4.3,4.3-4.3
			c0.2,0,0.2,0,0.5,0c9.2,1.1,32.1,2.3,40.5,2.3c20.4,0,26.6-7.3,26.6-20.6c0-8.9-4.4-13.5-19.5-22.4L48.9-24.5
			c-21.3-12.6-27-25.9-27-41.9c0-25.2,14.7-43.5,57.3-43.5c15.1,0,36.2,2.3,44,4.1c2.3,0.5,4.1,2.1,4.1,4.4v16.9
			c0,2.3-1.6,4.1-3.9,4.1c-0.2,0-0.2,0-0.5,0c-15.1-1.4-30.2-2.3-45.1-2.3c-16.9,0-24,6-24,16.3c0,7.6,3.9,12.1,18.8,20.4l27.5,15.3
			c25.2,14,31.8,28.6,31.8,46.7C131.7,39,117.3,63.8,71.5,63.8z"/>
		<path class="st1" d="M252.1,7.9h-74.7v0.7c0,13.3,5.5,29.1,27.5,29.1c16.7,0,32.5-1.4,42.1-2.3c0.2,0,0.5,0,0.7,0
			c2.3,0,4.1,1.1,4.1,3.4v15.1c0,3.7-0.7,5.3-4.8,6c-14.9,2.8-23.8,3.9-44.4,3.9c-22.9,0-55.4-12.4-55.4-57.5v-16.9
			c0-35.7,19.9-58.2,55-58.2c35.3,0,54.5,24,54.5,58.2V2.2C256.7,5.8,255.4,7.9,252.1,7.9z M226.3-14.5c0-17.9-9.8-28.2-24-28.2
			c-14.2,0-24.5,10.1-24.5,28.2v0.9h48.5V-14.5z"/>
		<path class="st1" d="M338.7-43.2c-12.4,0-22,3.2-31.6,8.2v92.1c0,2.5-2.1,4.8-4.6,4.8h-21.1c-2.5,0-4.6-2.3-4.6-4.8V-62.6
			c0-2.5,2.1-4.6,4.6-4.6h19.9c2.5,0,4.6,2.1,4.6,4.6v4.8c11.2-8.7,23.6-11,32.7-11c2.5,0,4.6,2.1,4.6,4.6v16.5
			C343.3-45.2,341.2-43.2,338.7-43.2z"/>
		<path class="st1" d="M462.6-62L433.7,42.2c-4.6,16.9-16.9,21.5-28.6,21.5s-23.8-4.6-28.4-21.5L347.8-62c-0.2-0.5-0.2-1.1-0.2-1.6
			c0-2.1,1.6-3.7,3.7-3.7h22.9c2.1,0,3.9,1.6,4.6,4.6l22,96c0.9,4.3,2.5,5.7,4.4,5.7c1.8,0,3.4-1.4,4.3-5.7l22-96
			c0.7-3,2.7-4.6,4.8-4.6h22.8c2.1,0,3.7,1.6,3.7,3.7C462.8-63.1,462.8-62.4,462.6-62z"/>
		<path class="st1" d="M578.4,7.9h-74.7v0.7c0,13.3,5.5,29.1,27.5,29.1c16.7,0,32.5-1.4,42.1-2.3c0.2,0,0.5,0,0.7,0
			c2.3,0,4.1,1.1,4.1,3.4v15.1c0,3.7-0.7,5.3-4.8,6c-14.9,2.8-23.8,3.9-44.4,3.9c-22.9,0-55.4-12.4-55.4-57.5v-16.9
			c0-35.7,19.9-58.2,55-58.2c35.3,0,54.5,24,54.5,58.2V2.2C583,5.8,581.6,7.9,578.4,7.9z M552.6-14.5c0-17.9-9.8-28.2-24-28.2
			s-24.5,10.1-24.5,28.2v0.9h48.5V-14.5z"/>
		<path class="st1" d="M665-43.2c-12.4,0-22,3.2-31.6,8.2v92.1c0,2.5-2.1,4.8-4.6,4.8h-21.1c-2.5,0-4.6-2.3-4.6-4.8V-62.6
			c0-2.5,2.1-4.6,4.6-4.6h19.9c2.5,0,4.6,2.1,4.6,4.6v4.8c11.2-8.7,23.6-11,32.7-11c2.5,0,4.6,2.1,4.6,4.6v16.5
			C669.6-45.2,667.5-43.2,665-43.2z"/>
		<path class="st1" d="M725.2,63.8c-8.9,0-28.2-1.1-41-4.6c-2.7-0.7-4.3-2.5-4.3-5.3V40.2c0-1.8,1.6-3.7,3.9-3.7c0.5,0,0.7,0,0.9,0
			c11,1.4,31.6,2.5,38.5,2.5c14.2,0,16.3-4.8,16.3-11c0-4.3-2.7-7.1-10.1-11.7L698-2.9c-11.2-6.9-19.2-18.3-19.2-31.6
			c0-22.9,14.4-34.4,43.5-34.4c18.6,0,29.1,2.1,40.8,4.6c2.7,0.7,4.1,2.5,4.1,5.3v13.3c0,2.8-1.4,4.3-3.7,4.3c-0.5,0-0.7,0-0.9,0
			c-6.4-0.9-24.7-2.7-37.8-2.7c-11,0-15.8,2.5-15.8,9.6c0,3.7,3.4,6,9.2,9.4l30,18.3c19.2,11.7,22,23.1,22,34.8
			C770.1,48,755.2,63.8,725.2,63.8z"/>
	</g>
</g>
</svg>
