<svg id="图层_1" data-name="图层 1" xmlns="http://www.w3.org/2000/svg" viewBox="0 0 281.43 68.3"><defs><style>.cls-1{opacity:0.7;}.cls-2{fill:#fff;}</style></defs><title>SI1</title><g class="cls-1"><path class="cls-2" d="M2080,745.13h-3.24a0.66,0.66,0,0,1-.66-0.66V721.41a0.63,0.63,0,0,1,.66-0.62H2080a0.63,0.63,0,0,1,.65.62v23.06a0.66,0.66,0,0,1-.65.66" transform="translate(-1978.98 -716.11)"/><path class="cls-2" d="M2098.06,745.13h-3a0.69,0.69,0,0,1-.66-0.69V733.76c0-2.85-.26-3.67-2.78-3.67a8.33,8.33,0,0,0-3.7,1.18v13.17a0.69,0.69,0,0,1-.66.69h-3a0.69,0.69,0,0,1-.66-0.69V727.31a0.66,0.66,0,0,1,.66-0.66h2.85a0.66,0.66,0,0,1,.66.66V728a8.49,8.49,0,0,1,5.31-1.57c4.72,0,5.67,3.18,5.67,7.34v10.68a0.69,0.69,0,0,1-.66.69" transform="translate(-1978.98 -716.11)"/><path class="cls-2" d="M2110.34,723.08h-1.47c-1.57,0-1.93.36-1.93,2v1.6h3.14a0.66,0.66,0,0,1,.66.66v2a0.63,0.63,0,0,1-.66.62h-3.14v14.54a0.69,0.69,0,0,1-.66.69h-3a0.71,0.71,0,0,1-.69-0.69V729.9l-2.92-.46a0.67,0.67,0,0,1-.66-0.62v-1.51a0.66,0.66,0,0,1,.66-0.66h2.92V725c0-4.23,2.26-5.24,5.67-5.24a8.59,8.59,0,0,1,2,.26,0.67,0.67,0,0,1,.59.52v1.93a0.5,0.5,0,0,1-.49.56" transform="translate(-1978.98 -716.11)"/><path class="cls-2" d="M2120.82,730.09a9.28,9.28,0,0,0-4.52,1.18v13.17a0.69,0.69,0,0,1-.65.69h-3a0.69,0.69,0,0,1-.66-0.69V727.31a0.66,0.66,0,0,1,.66-0.65h2.85a0.66,0.66,0,0,1,.65.65V728a7.63,7.63,0,0,1,4.69-1.57,0.66,0.66,0,0,1,.65.65v2.36a0.66,0.66,0,0,1-.65.66" transform="translate(-1978.98 -716.11)"/><path class="cls-2" d="M2134.87,745.13h-2.79a0.66,0.66,0,0,1-.66-0.66v-0.52a8.88,8.88,0,0,1-4.62,1.44c-2.72,0-5.67-1-5.67-5.47v-0.13c0-3.73,2.29-5.67,8-5.67h2.06v-1.44c0-2.13-1-2.65-2.88-2.65a51.5,51.5,0,0,0-5.34.26h-0.16a0.5,0.5,0,0,1-.59-0.56v-2.1a0.67,0.67,0,0,1,.62-0.69,28.35,28.35,0,0,1,5.47-.52c4.65,0,7.21,2.06,7.21,6.26v11.79a0.66,0.66,0,0,1-.65.66M2131.2,737h-2.06c-3,0-3.64.95-3.64,2.78v0.13c0,1.61.72,2,2.36,2a7.16,7.16,0,0,0,3.34-.92v-4Z" transform="translate(-1978.98 -716.11)"/><path class="cls-2" d="M2144.14,745.39a27.14,27.14,0,0,1-5.86-.66,0.74,0.74,0,0,1-.62-0.75v-2a0.55,0.55,0,0,1,.56-0.52h0.13c1.57,0.2,4.52.36,5.5,0.36,2,0,2.33-.69,2.33-1.57,0-.62-0.39-1-1.44-1.67l-4.49-2.75a5.4,5.4,0,0,1-2.75-4.52c0-3.27,2.06-4.91,6.22-4.91a24.21,24.21,0,0,1,5.83.66,0.71,0.71,0,0,1,.59.75v1.9a0.53,0.53,0,0,1-.52.62h-0.13a48,48,0,0,0-5.4-.39c-1.57,0-2.26.36-2.26,1.38,0,0.52.49,0.85,1.31,1.34l4.29,2.62c2.75,1.67,3.15,3.31,3.15,5,0,2.85-2.13,5.11-6.42,5.11" transform="translate(-1978.98 -716.11)"/><path class="cls-2" d="M2161.89,745.16a13.54,13.54,0,0,1-2.23.23c-3.7,0-5.21-.82-5.21-5.21V729.9l-3.08-.46a0.7,0.7,0,0,1-.65-0.66v-1.47a0.66,0.66,0,0,1,.65-0.66h3.08V724a0.71,0.71,0,0,1,.66-0.66l3-.52h0.13a0.47,0.47,0,0,1,.52.49v3.37h2.95a0.66,0.66,0,0,1,.66.66v1.93a0.66,0.66,0,0,1-.66.66h-2.95v10.29c0,1.64.1,1.83,1.28,1.83h1.74a0.55,0.55,0,0,1,.69.49v2.06a0.59,0.59,0,0,1-.62.59" transform="translate(-1978.98 -716.11)"/><path class="cls-2" d="M2172.67,730.09a9.27,9.27,0,0,0-4.52,1.18v13.17a0.69,0.69,0,0,1-.66.69h-3a0.69,0.69,0,0,1-.66-0.69V727.31a0.66,0.66,0,0,1,.66-0.65h2.85a0.66,0.66,0,0,1,.66.65V728a7.63,7.63,0,0,1,4.69-1.57,0.66,0.66,0,0,1,.65.65v2.36a0.66,0.66,0,0,1-.65.66" transform="translate(-1978.98 -716.11)"/><path class="cls-2" d="M2188.95,745.13h-3a0.66,0.66,0,0,1-.65-0.66v-0.75a8.44,8.44,0,0,1-5.14,1.64,5.58,5.58,0,0,1-4-1.38c-1.21-1.21-1.64-3.24-1.64-6V727.34a0.69,0.69,0,0,1,.66-0.69h3a0.69,0.69,0,0,1,.66.69V738c0,1.64.13,2.59,0.75,3.15a2.83,2.83,0,0,0,2,.59,9.23,9.23,0,0,0,3.7-1.31v-13.1a0.69,0.69,0,0,1,.65-0.69h3a0.69,0.69,0,0,1,.66.69v17.13a0.66,0.66,0,0,1-.66.66" transform="translate(-1978.98 -716.11)"/><path class="cls-2" d="M2203.26,745a18,18,0,0,1-4.23.43c-4.26,0-7.47-2.62-7.47-8v-3c0-5.34,3.21-8,7.47-8a17.93,17.93,0,0,1,4.23.43,0.71,0.71,0,0,1,.69.85v2.13a0.51,0.51,0,0,1-.59.49h-0.1a28.15,28.15,0,0,0-4.23-.23c-1.54,0-3.14.88-3.14,4.29v3c0,3.41,1.6,4.29,3.14,4.29a28.11,28.11,0,0,0,4.23-.23h0.1a0.51,0.51,0,0,1,.59.49v2.13a0.72,0.72,0,0,1-.69.85" transform="translate(-1978.98 -716.11)"/><path class="cls-2" d="M2215.61,745.16a13.54,13.54,0,0,1-2.23.23c-3.7,0-5.21-.82-5.21-5.21V729.9l-3.08-.46a0.7,0.7,0,0,1-.65-0.66v-1.47a0.66,0.66,0,0,1,.65-0.66h3.08V724a0.71,0.71,0,0,1,.66-0.66l3-.52H2212a0.47,0.47,0,0,1,.53.49v3.37h2.95a0.66,0.66,0,0,1,.66.66v1.93a0.66,0.66,0,0,1-.66.66h-2.95v10.29c0,1.64.1,1.83,1.28,1.83h1.74a0.55,0.55,0,0,1,.69.49v2.06a0.59,0.59,0,0,1-.62.59" transform="translate(-1978.98 -716.11)"/><path class="cls-2" d="M2232,745.13h-3a0.66,0.66,0,0,1-.65-0.66v-0.75a8.44,8.44,0,0,1-5.14,1.64,5.58,5.58,0,0,1-4-1.38c-1.21-1.21-1.64-3.24-1.64-6V727.34a0.69,0.69,0,0,1,.66-0.69h3a0.69,0.69,0,0,1,.66.69V738c0,1.64.13,2.59,0.75,3.15a2.84,2.84,0,0,0,2,.59,9.23,9.23,0,0,0,3.7-1.31v-13.1a0.69,0.69,0,0,1,.65-0.69h3a0.69,0.69,0,0,1,.66.69v17.13a0.66,0.66,0,0,1-.66.66" transform="translate(-1978.98 -716.11)"/><path class="cls-2" d="M2244.13,730.09a9.28,9.28,0,0,0-4.52,1.18v13.17a0.69,0.69,0,0,1-.65.69h-3a0.69,0.69,0,0,1-.66-0.69V727.31a0.66,0.66,0,0,1,.66-0.65h2.85a0.65,0.65,0,0,1,.65.65V728a7.63,7.63,0,0,1,4.69-1.57,0.66,0.66,0,0,1,.65.65v2.36a0.66,0.66,0,0,1-.65.66" transform="translate(-1978.98 -716.11)"/><path class="cls-2" d="M2259.76,737.4h-10.68v0.1c0,1.9.79,4.16,3.93,4.16,2.39,0,4.65-.2,6-0.33h0.1a0.51,0.51,0,0,1,.59.49V744a0.69,0.69,0,0,1-.69.85,29.12,29.12,0,0,1-6.35.56c-3.28,0-7.93-1.77-7.93-8.22v-2.42c0-5.11,2.85-8.32,7.86-8.32s7.8,3.44,7.8,8.32v1.83a0.66,0.66,0,0,1-.66.82m-3.7-3.21c0-2.56-1.41-4-3.44-4s-3.5,1.44-3.5,4v0.13h6.94v-0.13Z" transform="translate(-1978.98 -716.11)"/><path class="cls-2" d="M2080,777.76h-3.24a0.66,0.66,0,0,1-.66-0.66V754a0.63,0.63,0,0,1,.66-0.62H2080a0.63,0.63,0,0,1,.65.62V777.1a0.66,0.66,0,0,1-.65.66" transform="translate(-1978.98 -716.11)"/><path class="cls-2" d="M2098.06,777.76h-3a0.69,0.69,0,0,1-.66-0.69V766.39c0-2.85-.26-3.67-2.78-3.67a8.34,8.34,0,0,0-3.7,1.18v13.17a0.69,0.69,0,0,1-.66.69h-3a0.69,0.69,0,0,1-.66-0.69V759.94a0.66,0.66,0,0,1,.66-0.66h2.85a0.66,0.66,0,0,1,.66.66v0.69a8.49,8.49,0,0,1,5.31-1.57c4.72,0,5.67,3.18,5.67,7.34v10.68a0.69,0.69,0,0,1-.66.69" transform="translate(-1978.98 -716.11)"/><path class="cls-2" d="M2107.32,778a27.12,27.12,0,0,1-5.86-.65,0.74,0.74,0,0,1-.62-0.75v-2a0.55,0.55,0,0,1,.56-0.52h0.13c1.57,0.2,4.52.36,5.5,0.36,2,0,2.33-.69,2.33-1.57,0-.62-0.39-1-1.44-1.67l-4.49-2.75a5.4,5.4,0,0,1-2.75-4.52c0-3.28,2.06-4.91,6.22-4.91a24.3,24.3,0,0,1,5.83.65,0.71,0.71,0,0,1,.59.75v1.9a0.53,0.53,0,0,1-.52.62h-0.13a48.17,48.17,0,0,0-5.41-.39c-1.57,0-2.26.36-2.26,1.38,0,0.52.49,0.85,1.31,1.34l4.29,2.62c2.75,1.67,3.15,3.31,3.15,5,0,2.85-2.13,5.11-6.42,5.11" transform="translate(-1978.98 -716.11)"/><path class="cls-2" d="M2119.57,756.82h-3.18a0.69,0.69,0,0,1-.69-0.66v-2.88a0.69,0.69,0,0,1,.69-0.65h3.18a0.66,0.66,0,0,1,.65.65v2.88a0.66,0.66,0,0,1-.65.66m-0.1,20.93h-3a0.69,0.69,0,0,1-.66-0.69V759.94a0.66,0.66,0,0,1,.66-0.66h3a0.66,0.66,0,0,1,.65.66v17.13a0.69,0.69,0,0,1-.65.69" transform="translate(-1978.98 -716.11)"/><path class="cls-2" d="M2138.41,762.26l-1.08.43a4.17,4.17,0,0,1,.82,2.62v0.23c0,4.1-2.82,6-7.76,6a9.85,9.85,0,0,1-3.57-.56,1,1,0,0,0-.56.85,1.07,1.07,0,0,0,1.11,1.08l3.87,0.92c4.46,1,7.34,1.74,7.34,5.24v0.23c0,3.34-2.46,5.14-8,5.14-5.31,0-8.12-2-8.12-5.44v-0.29a4.92,4.92,0,0,1,1.67-3.6,3.8,3.8,0,0,1-1.48-3v0a3.2,3.2,0,0,1,1.31-2.65,5.05,5.05,0,0,1-1.34-3.83v-0.23c0-3.28,2.13-6,7.8-6H2138a0.88,0.88,0,0,1,.88.88v1.38a0.61,0.61,0,0,1-.52.72M2134.25,779c0-.72-0.43-1.15-3.87-2l-2.92-.69a3.24,3.24,0,0,0-.82,2.29V779c0,1.34.82,2.16,3.9,2.16s3.7-.69,3.7-1.87V779Zm-0.36-13.66c0-1.57-.69-2.78-3.5-2.78s-3.54,1.25-3.54,2.78v0.26c0,1.21.49,2.59,3.54,2.59,2.72,0,3.5-.95,3.5-2.59v-0.26Z" transform="translate(-1978.98 -716.11)"/><path class="cls-2" d="M2154.82,777.76h-3a0.69,0.69,0,0,1-.65-0.69V766.29c0-2.85-.49-3.57-2.69-3.57a8.5,8.5,0,0,0-3.8,1.11v13.24a0.69,0.69,0,0,1-.66.69h-3a0.69,0.69,0,0,1-.66-0.69V753.48a0.66,0.66,0,0,1,.66-0.66h3a0.66,0.66,0,0,1,.66.66v6.78a8.8,8.8,0,0,1,4.95-1.21c4.52,0,5.86,3.21,5.86,7.24v10.78a0.69,0.69,0,0,1-.66.69" transform="translate(-1978.98 -716.11)"/><path class="cls-2" d="M2167.13,777.79a13.52,13.52,0,0,1-2.23.23c-3.7,0-5.21-.82-5.21-5.21V762.52l-3.08-.46a0.7,0.7,0,0,1-.66-0.66v-1.47a0.66,0.66,0,0,1,.66-0.65h3.08v-2.69a0.7,0.7,0,0,1,.66-0.66l3-.52h0.13a0.47,0.47,0,0,1,.52.49v3.37H2167a0.66,0.66,0,0,1,.65.65v1.93a0.66,0.66,0,0,1-.65.66h-2.95v10.29c0,1.64.1,1.83,1.28,1.83h1.74a0.56,0.56,0,0,1,.69.49v2.06a0.59,0.59,0,0,1-.62.59" transform="translate(-1978.98 -716.11)"/><path class="cls-2" d="M2050.84,737.3q-3.5-13.14-15.66-18.28t-26.7-1.23q-16.64,4.47-24.29,14.26t-4,23.29q3.35,12.54,12.44,18.29c2.51,0.23,6.77.43,8.49,0.43,4.79,0,6.24-1.72,6.24-4.84,0-2.1-1-3.17-4.57-5.27l-7.1-4.25c-5-3-6.35-5.64-6.35-9.41,0-5.92,3.44-10.22,13.45-10.22a60.23,60.23,0,0,1,10.33,1,1.09,1.09,0,0,1,1,1v4a0.92,0.92,0,0,1-.91,1H2013c-3.55-.32-7.1-0.54-10.6-0.54-4,0-5.65,1.4-5.65,3.82,0,1.78.92,2.85,4.41,4.79l6.46,3.17c5.92,3.28,7.48,6.72,7.48,11a10.21,10.21,0,0,1-5,9.15,48.35,48.35,0,0,0,8.4-.75V752.07a1.08,1.08,0,0,1,1.08-1.08h5a1.08,1.08,0,0,1,1.08,1.08V776q15.27-4.47,22-14.09,7.07-10.09,3.21-24.56m-25.07,8.58a1.08,1.08,0,0,1-1.08,1.08h-5.22a1.13,1.13,0,0,1-1.13-1.08v-4.73a1.13,1.13,0,0,1,1.13-1.08h5.22a1.08,1.08,0,0,1,1.08,1.08v4.73Z" transform="translate(-1978.98 -716.11)"/></g></svg>