<?xml version="1.0" encoding="utf-8"?>
<!-- Generator: Adobe Illustrator 19.2.0, SVG Export Plug-In . SVG Version: 6.00 Build 0)  -->
<svg version="1.1" id="图层_1" xmlns="http://www.w3.org/2000/svg" xmlns:xlink="http://www.w3.org/1999/xlink" x="0px" y="0px"
	 viewBox="0 0 128.5 108.8" style="enable-background:new 0 0 128.5 108.8;" xml:space="preserve">
<style type="text/css">
	.st0{fill:#FFFFFF;}
</style>
<title>APM</title>
<path class="st0" d="M58.2,44.7c-1.3,0-4.2,0.1-5.3,0.2v14.2c1,0.1,4.3,0.2,5.3,0.2c6.5,0,9-2.4,9-7.2v-0.5
	C67.2,46.6,64.2,44.7,58.2,44.7z"/>
<path class="st0" d="M126.1,37c-4.1-15.3-13.3-26-27.5-31.9S68.8-1.6,51.7,2.9C32.3,8.2,18.1,16.5,9.1,27.9
	c-9,11.4-11.3,25-7.1,40.7c0.6,2.4,1.4,4.7,2.2,6.9l8.3-31.5c1.4-5.6,5.7-6.1,8.3-6.1s6.9,0.5,8.3,6.1l9.8,37.5c0,0.1,0,0.2,0.1,0.3
	c0,0.6-0.4,1-1,1c0,0-0.1,0-0.1,0h-6.3c-0.6,0-1-0.4-1.1-1l-2.8-11.3H13.9l-2.8,11.3c-0.1,0.6-0.6,1-1.1,1H7.5
	c4.8,9.3,12.6,16.7,22.1,21c13.8,6.3,30.3,6.8,49.6,1.7c17.7-4.7,30.8-12.3,39.2-22.7h-5.1c-0.6-0.1-1-0.6-1-1.2V53.7
	c0-0.4-0.1-0.6-0.2-0.6c-0.1,0.1-0.2,0.2-0.3,0.4L106,64.9c-0.4,0.7-1.1,1-1.9,1h-6c-0.8,0-1.5-0.3-1.9-1l-5.8-11.4
	c-0.1-0.1-0.2-0.3-0.3-0.4c-0.1,0-0.2,0.2-0.2,0.6v27.8c0,0.6-0.4,1.1-1,1.2h-6c-0.5,0-0.9-0.3-1-0.8c0,0,0-0.1,0-0.1V40.7
	c0-1.3,1.1-2.4,2.4-2.4h4.9c0.9,0,1.8,0.6,2.2,1.4l9,18.3c-0.1,0.4,0.1,0.7,0.5,0.8c0.4,0.1,0.7-0.1,0.8-0.5c0-0.1,0-0.2,0-0.4
	l9-18.3c0.4-0.9,1.3-1.4,2.2-1.4h4.9c1.3,0,2.4,1.1,2.4,2.4v39.4l0.1-0.2C128.7,68.2,130.6,53.9,126.1,37z M75.4,52.2
	c0,10.6-8,14-17.2,14c-1.5,0-3.9-0.2-5.3-0.2v15.6c0,0.6-0.5,1.2-1.1,1.2c0,0,0,0,0,0h-6c-0.7,0-1.2-0.5-1.2-1.2V40.4
	c0-1.2,0.7-1.6,1.9-1.8c3.9-0.5,7.8-0.8,11.7-0.8c9.2,0,17.2,3.2,17.2,13.8L75.4,52.2L75.4,52.2z"/>
<path class="st0" d="M20.8,44.8c-0.6,0-0.8,0.2-1,1l-4.3,17.7h10.6l-4.3-17.7C21.6,45,21.4,44.8,20.8,44.8z"/>
</svg>
