<?xml version="1.0" encoding="utf-8"?>
<!-- Generator: Adobe Illustrator 19.2.0, SVG Export Plug-In . SVG Version: 6.00 Build 0)  -->
<svg version="1.1" id="图层_1" xmlns="http://www.w3.org/2000/svg" xmlns:xlink="http://www.w3.org/1999/xlink" x="0px" y="0px"
	 viewBox="0 0 365 117.5" style="enable-background:new 0 0 365 117.5;" xml:space="preserve">
<style type="text/css">
	.st0{fill:#FFFFFF;}
</style>
<title>CPT</title>
<path class="st0" d="M98.4,73.3c-11.6,0-20.1-6.2-20.1-21.1v-9.1c0-14.9,8.5-21.1,20.1-21.1s20.1,6.2,20.1,21.1v9.1
	C118.4,67.1,110,73.3,98.4,73.3z M108.6,43.1c0-8.9-3.3-12.9-10.2-12.9s-10.2,4-10.2,12.9v9.1c0,8.9,3.3,12.9,10.2,12.9
	s10.2-4,10.2-12.9V43.1L108.6,43.1z"/>
<path class="st0" d="M164.4,72.8h-7.1c-1.7,0-3.2,0-4.3-2.4l-15.6-32.9c-0.1-0.3-0.3-0.5-0.6-0.5c-0.2,0-0.3,0.1-0.3,0.5v34
	c0,0.7-0.6,1.3-1.3,1.3c0,0,0,0-0.1,0h-6c-0.8,0-1.4-0.6-1.4-1.3V25.2c0-1.5,1.3-2.7,2.8-2.7h7.6c1.5,0,2.3,0.4,3.1,2.2l16.4,34.7
	c0.1,0.3,0.3,0.5,0.6,0.5c0.3-0.1,0.4-0.3,0.3-0.6V23.9c0-0.7,0.6-1.3,1.3-1.3c0,0,0.1,0,0.1,0h6.1c0.7,0,1.3,0.5,1.3,1.2
	c0,0,0,0.1,0,0.1v46.2C167.2,71.6,166,72.8,164.4,72.8C164.4,72.8,164.4,72.8,164.4,72.8z"/>
<path class="st0" d="M207.5,72.4c-4.4,0.7-8.9,1.1-13.4,0.9c-9.2,0-16.3-2.4-16.3-13.8V35.9c0-11.5,7.1-13.8,16.3-13.8
	c4.5-0.1,9,0.2,13.4,1c1.1,0.1,1.4,0.5,1.4,1.4v4.3c0,0.8-0.6,1.4-1.4,1.3h-14.4c-4.1,0-5.6,1.3-5.6,5.8v7.3h19.1
	c0.8,0,1.4,0.6,1.4,1.3c0,0,0,0,0,0v4.9c0,0.8-0.6,1.4-1.4,1.3c0,0,0,0,0,0h-19.1v8.7c0,4.5,1.5,5.8,5.6,5.8h14.4
	c0.8,0,1.4,0.6,1.4,1.3v4.3C208.9,71.9,208.5,72.2,207.5,72.4z"/>
<polygon class="st0" points="314.9,22 361,22 361,30.1 314.9,30.1 314.9,22 "/>
<path class="st0" d="M342,72.5c0,2.2-1.8,4-4,4s-4-1.8-4-4V32.7c0-1.4-1.2-2.6-2.6-2.6h0.7V30h1.9v-1.2h8.1V30h1.9v0.1h0.7
	c-1.4,0-2.6,1.2-2.6,2.6v-2.5l0,0V72.5L342,72.5z"/>
<path class="st0" d="M361,22c2.2,0,4,1.8,4,4s-1.8,4-4,4s-4-1.8-4-4S358.8,22,361,22L361,22z"/>
<path class="st0" d="M314.9,22c2.2,0,4,1.8,4,4s-1.8,4-4,4s-4-1.8-4-4S312.7,22,314.9,22L314.9,22z"/>
<path class="st0" d="M311.3,46.1c1.8,1.3,4.3,0.9,5.6-0.9c0.5-0.7,0.8-1.5,0.8-2.4c0-0.2,0-0.4,0-0.6v-0.1v-0.1
	c-4-14.5-18.9-23.1-33.5-19.1c-11.9,3.2-20.1,14-20.1,26.3l0,0v64.2l0,0c0,2.2,1.8,4,4,4s4-1.8,4-4l0,0V68.6
	c10.7,10.6,27.9,10.5,38.5-0.1c3.6-3.6,6.1-8.2,7.2-13.2v-0.1c0-0.1,0-0.3,0-0.4c0.3-2.2-1.3-4.2-3.5-4.5s-4.2,1.3-4.5,3.5
	c-2.4,10.3-12.8,16.7-23.1,14.2c-8.4-2-14.5-9.4-14.8-18v-0.6l0,0c0-10.6,8.6-19.2,19.2-19.2c8.6,0,16.1,5.7,18.5,13.9
	C310.1,44.9,310.6,45.6,311.3,46.1L311.3,46.1L311.3,46.1z"/>
<path class="st0" d="M41.9,20.6c-8.1,9-5.2,24.4-5.2,24.4c-0.1-0.2-0.1-0.3-0.2-0.5c0,0.2,0.1,0.4,0.1,0.5c-2.5-1.8-5.5-3-8.6-3.3
	c-0.4-2.1-0.6-4.2-0.6-6.4C27.5,15.7,43.5-0.1,63.2,0l0,0c14-0.1,26.8,8.1,32.6,20.9H84.4C79.2,14.4,71.3,10.7,63,10.7
	C54.5,10.7,48.2,13.6,41.9,20.6 M17.5,80.7v-3c9.4-7,26.8-16.1,47.8-9.5c31.8,9.9,51.9,23.5,76.5,17.4S168.4,66,168.4,66
	s-4.3,18.9-28.5,23.1S93.5,88.6,65.1,78C45.9,70.9,27.5,76.4,17.5,80.7L17.5,80.7L17.5,80.7z M17.5,43.9V32.8
	c2.4-0.8,4.8-1.3,7.3-1.4c-0.1,1.2-0.2,2.6-0.2,3.9c0,2.2,0.2,4.3,0.5,6.5C22.4,41.9,19.8,42.7,17.5,43.9L17.5,43.9L17.5,43.9z
	 M17.5,32.8v11.2c-7.9,4.5-10.7,14.5-6.2,22.4c1.5,2.6,3.6,4.8,6.2,6.2v2c-2,1.3-4,2.8-5.6,4.1C-0.1,71-3.6,55.2,4,43.3
	C7.1,38.3,11.9,34.6,17.5,32.8L17.5,32.8L17.5,32.8z M17.5,77.6c-2.7,2-5.3,4.2-7.6,6.7c0,0.1,2.8-1.6,7.6-3.6V77.6L17.5,77.6
	L17.5,77.6z"/>
<path class="st0" d="M254.8,65.7c-0.7,0-1.4,0.2-2.1,0.6c-9.4,4.9-21,1.3-25.9-8.1s-1.3-21,8.1-25.9c5.6-2.9,12.2-2.9,17.8,0l0,0
	l0,0c2,1,4.4,0.2,5.4-1.8c1-2,0.2-4.4-1.8-5.4l0,0c-13.4-6.9-29.8-1.6-36.7,11.8c-6.9,13.4-1.6,29.8,11.8,36.7
	c7.9,4.1,17.3,4,25.2-0.2l0,0c2.1-0.8,3.1-3.1,2.4-5.1C258.3,66.6,256.6,65.5,254.8,65.7z M252,31.7L252,31.7z M255.2,24.7h-0.4
	H255.2z M255.5,24.8L255.5,24.8z M250.8,29.1c0-0.1,0-0.2,0-0.4C250.7,28.9,250.7,29,250.8,29.1L250.8,29.1z M251.6,31.2L251.6,31.2
	L251.6,31.2z M251.4,30.9l-0.1-0.2L251.4,30.9z M251.2,30.6l-0.1-0.2L251.2,30.6z M251,30.3c0-0.1-0.1-0.2-0.1-0.3
	C251,30.1,251,30.2,251,30.3L251,30.3z M250.9,29.9c0-0.1-0.1-0.2-0.1-0.3C250.8,29.8,250.9,29.8,250.9,29.9L250.9,29.9z
	 M250.8,29.5c0-0.1,0-0.2-0.1-0.3C250.8,29.4,250.8,29.5,250.8,29.5L250.8,29.5z M252.1,66.7L252.1,66.7z M250.7,69.3
	c0,0.1,0,0.2,0,0.4C250.7,69.6,250.7,69.5,250.7,69.3L250.7,69.3z M251.6,67.2L251.6,67.2L251.6,67.2z M251.3,67.5l-0.1,0.1
	L251.3,67.5z M251.2,67.8l-0.1,0.2L251.2,67.8z M251,68.1c0,0.1-0.1,0.2-0.1,0.3C251,68.4,251,68.3,251,68.1L251,68.1z M250.9,68.5
	c0,0.1-0.1,0.2-0.1,0.3C250.8,68.8,250.9,68.7,250.9,68.5L250.9,68.5z M250.8,68.9c0,0.1,0,0.2-0.1,0.3
	C250.8,69.2,250.8,69.1,250.8,68.9L250.8,68.9z M256.1,73.5L256.1,73.5z M255.2,73.7L255.2,73.7L255.2,73.7z M255.7,73.6L255.7,73.6
	L255.7,73.6z"/>
</svg>
