<?xml version="1.0" encoding="utf-8"?>
<!-- Generator: Adobe Illustrator 19.2.0, SVG Export Plug-In . SVG Version: 6.00 Build 0)  -->
<svg version="1.1" id="图层_1" xmlns="http://www.w3.org/2000/svg" xmlns:xlink="http://www.w3.org/1999/xlink" x="0px" y="0px"
	 viewBox="0 0 73 61.9" style="enable-background:new 0 0 73 61.9;" xml:space="preserve">
<style type="text/css">
	.st0{fill:#FFFFFF;}
</style>
<title>CT</title>
<path class="st0" d="M71.6,21.1C69.3,12.4,64.1,6.3,56,2.9S39.1-0.9,29.4,1.7c-11.1,3-19.1,7.7-24.2,14.2c-5.1,6.5-6.4,14.2-4,23.2
	C3,45.8,6,51,10.3,54.8c0.3,0.3,0.7,0.2,1,0c0.2-0.2,0.2-0.4,0.2-0.7c-0.6-2.1-0.9-4.3-0.9-6.5v-7.7c0-13.2,8.6-16,14.8-16
	c2.8,0,5.6,0.3,8.3,0.8c0.6,0.1,1.1,0.6,1.1,1.2v3.5c0.1,0.5-0.3,1-0.9,1.1c0,0-0.1,0-0.1,0h-0.1c-1.8-0.2-5.4-0.4-8.2-0.4
	c-4.4,0-7.6,2.4-7.6,9.8v7.6c0,7.3,3.2,9.8,7.6,9.8c2.8,0,6.4-0.3,8.2-0.4h0.1c0.6,0,1,0.4,1,1c0,0,0,0.1,0,0.1v3.5
	c0,0.1,0,0.2,0,0.3c2.3-0.2,4.5-0.5,6.8-1c0.4-0.1,0.6-0.5,0.5-0.8c0,0,0-0.1,0-0.1c-0.5-1.5-0.7-3.1-0.6-4.6V39.5
	c0-0.3-0.2-0.6-0.6-0.7l-4.3-0.7c-0.5-0.1-1-0.5-1-1v-1.7c0-1,0.8-1.7,1.7-1.7h3.5c0.4,0,0.7-0.3,0.7-0.7v-3.6c0.1-0.5,0.5-0.9,1-1
	l4.9-0.8h0.2c0.4,0,0.8,0.3,0.8,0.7c0,0,0,0.1,0,0.1v4.7c0,0.4,0.3,0.7,0.7,0.7h3.3c1,0,1.7,0.8,1.7,1.7v1.7c0,1-0.8,1.7-1.7,1.7
	h-3.3c-0.4,0-0.7,0.3-0.7,0.7v15.8c0,2.6,0.2,2.9,2,2.9h0.2c8-3,13.9-7.2,17.8-12.7C73,38.9,74.1,30.8,71.6,21.1"/>
</svg>
