<?xml version="1.0" encoding="utf-8"?>
<!-- Generator: Adobe Illustrator 19.2.0, SVG Export Plug-In . SVG Version: 6.00 Build 0)  -->
<svg version="1.1" id="图层_1" xmlns="http://www.w3.org/2000/svg" xmlns:xlink="http://www.w3.org/1999/xlink" x="0px" y="0px"
	 viewBox="0 0 200 200" style="enable-background:new 0 0 200 200;" xml:space="preserve">
<style type="text/css">
	.st0{fill:#FFFFFF;}
</style>
<path class="st0" d="M169,0v2.2c-3.6-0.2-7.3,0.2-10.7,1.4c-3.9,1.2-6.3,3-7,5.3c-1,5.4-1.3,10.9-1.1,16.5v148.2
	c0,9.3,0.4,14.9,1.2,17c1,2.2,2.7,4,4.8,5.1c2.4,1.4,6.6,2,12.7,2v2.2H96.8v-2.2c8.2,0,13.3-1.4,15.3-4.3c2-2.9,3-9.4,3-19.5V27.4
	c0-10.6-1.1-17.5-3.3-20.8c-2.2-3.3-7.2-4.7-15-4.3V0H169z M86.7,0v2.2C83.1,2,79.4,2.5,76,3.6c-3.9,1.2-6.3,3-7,5.3
	c-1,5.4-1.3,10.9-1.1,16.5v148.2c0,9.3,0.4,14.9,1.2,17c1,2.2,2.7,4,4.8,5.1c2.4,1.4,6.6,2,12.7,2v2.2H14.5v-2.2
	c8.2,0,13.3-1.4,15.3-4.3c2-2.9,3-9.4,3-19.5V27.4c0-10.6-1.1-17.5-3.3-20.8s-7.2-4.7-15-4.3V0H86.7L86.7,0z"/>
</svg>
