<?xml version="1.0" encoding="utf-8"?>
<!-- Generator: Adobe Illustrator 19.2.0, SVG Export Plug-In . SVG Version: 6.00 Build 0)  -->
<svg version="1.1" id="图层_1" xmlns="http://www.w3.org/2000/svg" xmlns:xlink="http://www.w3.org/1999/xlink" x="0px" y="0px"
	 viewBox="0 0 408 78.5" style="enable-background:new 0 0 408 78.5;" xml:space="preserve">
<style type="text/css">
	.st0{fill:#FFFFFF;}
</style>
<title>ITSM</title>
<path class="st0" d="M29.5,78.5C12.4,78.5,0,69,0,46.2v-14C0,9.5,12.4,0,29.5,0s29.5,9.5,29.5,32.3v14C58.9,69,46.5,78.5,29.5,78.5z
	 M44.5,32.3c0-13.7-4.9-19.8-15-19.8s-15,6.1-15,19.8v14c0,13.7,4.9,19.8,15,19.8s15-6.1,15-19.8V32.3z"/>
<path class="st0" d="M117,77.6h-9.5c-1.2-0.1-2.1-1-2.1-2.2V41.8c0-9-0.8-11.6-8.8-11.6c-3.5,0-7.3,1.5-11.7,3.7v41.6
	c0,1.2-0.9,2.1-2.1,2.2h-9.5c-1.2-0.1-2.1-1-2.1-2.2V21.4c0-1.1,0.9-2.1,2.1-2.1l0,0h9c1.1,0,2.1,0.9,2.1,2.1l0,0v2.2
	c6-3.8,9.9-5,16.8-5c14.9,0,17.9,10,17.9,23.2v33.7C119.1,76.6,118.2,77.6,117,77.6z"/>
<path class="st0" d="M178.1,53.2h-33.7v0.3c0,6,2.5,13.1,12.4,13.1c7.5,0,14.7-0.6,19-1h0.3c0.9-0.1,1.7,0.5,1.8,1.4
	c0,0.1,0,0.1,0,0.2V74c0,1.7-0.3,2.4-2.2,2.7c-6.6,1.3-13.3,1.9-20.1,1.8c-10.3,0-25-5.6-25-26v-7.7c0-16.1,9-26.3,24.8-26.3
	s24.6,10.9,24.6,26.3v5.8C180.2,52.3,179.6,53.2,178.1,53.2z M166.5,43.1c0-8.1-4.5-12.7-10.9-12.7s-11.1,4.5-11.1,12.7v0.4h21.9
	L166.5,43.1L166.5,43.1z"/>
<path class="st0" d="M205.2,77.6H195c-1.1,0-2.1-0.9-2.1-2.1V2.8c0-1.1,0.9-2,2-2c0,0,0,0,0.1,0h10.2c1.1,0,2,0.8,2.1,1.9
	c0,0,0,0,0,0.1v72.8C207.3,76.7,206.4,77.6,205.2,77.6z"/>
<path class="st0" d="M270.3,12.8h-18.1v62.8c0,1.1-0.9,2.1-2.1,2.1h-10.2c-1.1,0-2.1-0.9-2.1-2.1V12.8h-18.1c-1.1,0.1-2-0.7-2.1-1.7
	c0,0,0-0.1,0-0.1V2.8c0-1.1,0.9-2,2-2c0,0,0,0,0.1,0h50.6c1.1,0,2,0.8,2.1,1.9c0,0,0,0,0,0.1V11c0,1.1-0.9,1.9-2,1.9
	C270.3,12.8,270.3,12.8,270.3,12.8z"/>
<path class="st0" d="M302,78.5c-6.2,0.1-12.3-0.5-18.3-1.9c-1.1-0.1-1.9-1-2-2.1v-7.4c0-1.1,0.9-2,2-2h0.2c4.1,0.5,14.5,1,18.3,1
	c9.2,0,12-3.3,12-9.3c0-4-2-6.1-8.8-10.1l-13.7-8.2c-9.6-5.7-12.2-11.7-12.2-18.9c0-11.4,6.6-19.6,25.8-19.6
	c6.7,0,13.3,0.7,19.8,1.9c1,0.1,1.8,1,1.9,2v7.7c0,1-0.7,1.8-1.7,1.9c0,0-0.1,0-0.1,0h-0.2c-6.8-0.6-13.7-1-20.4-1
	c-7.7,0-10.9,2.7-10.9,7.3c0,3.4,1.8,5.5,8.5,9.2l12.4,6.9c11.4,6.3,14.4,12.9,14.4,21.1C329.2,67.3,322.7,78.5,302,78.5z"/>
<path class="st0" d="M406.2,77.6h-10.4c-1-0.2-1.7-1.1-1.7-2.1V27.5c0-0.7-0.1-1-0.3-1c-0.2,0.2-0.4,0.4-0.5,0.6l-9.9,19.7
	c-0.7,1.1-2,1.8-3.3,1.8h-10.4c-1.3,0.1-2.6-0.6-3.3-1.8l-10-19.8c-0.1-0.2-0.3-0.5-0.5-0.6c-0.2,0-0.3,0.3-0.3,1v48.1
	c0.1,1-0.7,1.9-1.7,2.1h-10.5c-0.9,0.1-1.7-0.5-1.7-1.4c0-0.1,0-0.1,0-0.2V5c0-2.3,1.9-4.1,4.1-4.1h8.5c1.6,0,3.1,1,3.8,2.5
	L373.6,35c0.5,0.9,0.7,1.5,1.1,1.5s0.6-0.5,1.1-1.5l15.6-31.6c0.7-1.5,2.2-2.4,3.8-2.5h8.5c2.3,0,4.1,1.9,4.1,4.1v71.1
	c0,0.9-0.7,1.6-1.6,1.6C406.3,77.7,406.3,77.7,406.2,77.6z"/>
</svg>
