<?xml version="1.0" encoding="utf-8"?>
<!-- Generator: Adobe Illustrator 19.2.0, SVG Export Plug-In . SVG Version: 6.00 Build 0)  -->
<svg version="1.1" id="图层_1" xmlns="http://www.w3.org/2000/svg" xmlns:xlink="http://www.w3.org/1999/xlink" x="0px" y="0px"
	 viewBox="0 0 376.1 79.5" style="enable-background:new 0 0 376.1 79.5;" xml:space="preserve">
<style type="text/css">
	.st0{fill:#FFFFFF;}
</style>
<title>LI</title>
<path class="st0" d="M0,54.7c0,4.4,3.6,8,8,8s8-3.6,8-8s-3.6-8-8-8S0,50.3,0,54.7"/>
<polygon class="st0" points="24.4,0 24.4,62 57.8,62 57.8,51.7 36.8,51.7 36.8,0 "/>
<path class="st0" d="M73.2,38.6c0-9.4,2.4-14,8.1-14c6.4,0,8.7,5.1,8.7,14.6c0,9.4-2,14-8.2,14S73.2,48.2,73.2,38.6 M81.3,62.8
	c15.2,0,21.2-9.9,21.2-24.1S97.6,15,81.7,15c-15.2,0-21.2,9.9-21.2,24.1S65.6,62.8,81.3,62.8"/>
<path class="st0" d="M147.4,18c-4.1-1.8-9-2.8-17.1-2.8c-15.1,0-22.4,10.5-22.4,23.5c0,16.6,8.5,21.3,18.1,21.3c4.1,0,7.3-1.1,9-2.6
	h0.3v3.2c0,6.5-2.7,8.9-9,8.9c-4.8,0-9.3-2.2-11.6-5.4l-6.9,9.1c2.6,3.1,7.2,6.3,18.5,6.3c12.3,0,21.1-6.2,21.1-18.8L147.4,18
	L147.4,18z M135.3,25.8v22c-1.7,1.6-4.1,2.5-6.4,2.4c-5.4,0-8.7-2.4-8.7-11.8c0-8.8,3.7-13.3,10.1-13.3
	C131.9,25,133.6,25.3,135.3,25.8"/>
<rect x="160.7" class="st0" width="4.7" height="62"/>
<path class="st0" d="M209.4,31.7c-0.2-9.7-5.6-14.5-14.4-14.5c-4.9-0.1-9.5,2-12.7,5.6h-0.3V18h-4.6v44h4.7V30.1
	c1.9-5.1,6.7-8.6,12.2-8.6c6.7,0,10.3,4,10.3,11.3V62h4.7V31.7z"/>
<path class="st0" d="M240.3,50.3c0,4.2-3.4,7.8-10.2,7.8c-4.5,0.1-8.8-1.6-12-4.7l-3.1,3.8c2.9,2.9,8.2,5.3,14.9,5.3
	c9.9,0,15.1-6.1,15.1-12.2c0-15-22.5-10.5-22.5-21.4c0-3.9,2.9-7.3,9.8-7.3c3.2,0,6.8,1.1,9,3.4l3.1-3.6c-2.7-2.7-7.5-4.2-12-4.2
	c-9.5,0-14.6,5.7-14.6,11.8C217.7,43.9,240.3,39.3,240.3,50.3"/>
<rect x="255.4" y="18" class="st0" width="4.7" height="44"/>
<path class="st0" d="M253.9,10.3c0,2.2,1.8,3.9,4,3.9c2.2,0,3.9-1.8,3.9-4c0-2.2-1.8-3.9-4-3.9c-2.1,0-3.9,1.7-3.9,3.8
	C253.9,10.2,253.9,10.2,253.9,10.3"/>
<path class="st0" d="M302.9,19.4c-2.4-1.2-6.5-2.2-11.5-2.2c-14.5,0-21.3,9.3-21.3,23.8c0,14.7,7.6,20.7,16.5,20.7
	c4.1,0.1,8.1-1.2,11.3-3.8h0.3v4.6c0,8.3-3.4,12.7-11.9,12.7c-6.3,0-9.5-2-11.7-3.9l-2.8,4.1c1.6,1.4,5.9,4.3,13.5,4.3
	c10.7,0,17.5-5.6,17.5-17.1L302.9,19.4L302.9,19.4z M298.2,22.9v29.5c-2.5,3.1-6.2,4.9-10.2,4.9c-6.4,0-13-3.6-13-17.2
	c0-12.6,6.3-18.5,15.4-18.5C293.1,21.5,295.7,22,298.2,22.9"/>
<path class="st0" d="M331,17.1c-8.1,0-12,4.6-13,5.9h-0.3V0H313v62h4.7V30.1c2.1-5.3,7.2-8.7,12.9-8.6c6.6,0,9.7,4.7,9.7,10.5v30
	h4.7V31.3C345,22.6,339.5,17.1,331,17.1"/>
<path class="st0" d="M367,62.4c4.6,0,7.4-0.9,9.1-1.8l-1.4-4c-1,0.6-2.9,1.5-6.9,1.5s-6.8-2.2-6.8-7.7v-27h12.4v-4H361v-13h-4.7v13
	h-6.8v4.1h6.8v27.5C356.3,58.5,359.9,62.4,367,62.4"/>
</svg>
