<?xml version="1.0" encoding="utf-8"?>
<!-- Generator: Adobe Illustrator 21.1.0, SVG Export Plug-In . SVG Version: 6.00 Build 0)  -->
<svg version="1.1" id="图层_1" xmlns="http://www.w3.org/2000/svg" xmlns:xlink="http://www.w3.org/1999/xlink" x="0px" y="0px"
	 viewBox="0 0 100 100" style="enable-background:new 0 0 100 100;" xml:space="preserve">
<style type="text/css">
	.st0{fill:#FFFFFF;}
</style>
<g>
	<path class="st0" d="M45.4,42.6c-1,0-3.2,0.1-4.1,0.2v10.8c0.7,0,3.3,0.1,4.1,0.1c4.9,0,6.8-1.8,6.8-5.5v-0.4
		C52.2,44,49.9,42.6,45.4,42.6z"/>
	<path class="st0" d="M97.2,36.8C94,25.1,87.1,17,76.2,12.4c-10.8-4.6-22.8-5.1-35.7-1.6c-14.8,4-25.7,10.3-32.5,19
		c-6.8,8.7-8.6,19-5.4,31c0.5,1.8,1.1,3.6,1.7,5.3L10.5,42c1.1-4.2,4.4-4.6,6.3-4.6s5.2,0.4,6.3,4.6l7.5,28.6c0,0.1,0,0.2,0,0.2
		c0,0.5-0.4,0.8-0.8,0.8h-4.8c-0.4,0-0.8-0.4-0.9-0.8l-2.1-8.7H11.6l-2.1,8.7c-0.1,0.4-0.5,0.8-0.9,0.8H6.7
		c3.9,7.3,9.5,12.7,16.9,16c10.5,4.8,23.1,5.2,37.8,1.3c13.5-3.6,23.5-9.4,29.9-17.3h-3.9c-0.4,0-0.7-0.5-0.7-0.9V49.5
		c0-0.3,0-0.5-0.1-0.5c0,0-0.1,0.1-0.2,0.3L81.9,58c-0.3,0.5-0.9,0.8-1.5,0.8h-4.6c-0.6,0-1.2-0.3-1.5-0.8L70,49.3
		c-0.1-0.1-0.2-0.3-0.2-0.3c-0.1,0-0.1,0.1-0.1,0.5v21.2c0,0.5-0.3,0.9-0.7,0.9h-4.6c-0.4,0-0.8-0.2-0.8-0.7V39.5
		c0-1,0.8-1.8,1.8-1.8h3.7c0.7,0,1.4,0.5,1.7,1.1l6.9,13.9c0.2,0.4,0.3,0.6,0.5,0.6c0.2,0,0.3-0.2,0.5-0.6l6.9-13.9
		c0.3-0.6,1-1.1,1.7-1.1H91c1,0,1.8,0.8,1.8,1.8v30.1c0,0,0.1-0.1,0.1-0.1C99.2,60.5,100.6,49.6,97.2,36.8z M58.5,48.3
		c0,8.1-6.1,10.7-13.1,10.7c-1.2,0-3-0.1-4.1-0.2v11.9c0,0.5-0.4,0.9-0.9,0.9h-4.6c-0.5,0-0.9-0.4-0.9-0.9V39.3
		c0-0.9,0.5-1.2,1.5-1.4c2.4-0.4,5.6-0.6,8.9-0.6c7,0,13.1,2.5,13.1,10.5V48.3z"/>
	<path class="st0" d="M16.9,42.7c-0.5,0-0.6,0.2-0.7,0.7l-3.3,13.5h8l-3.3-13.5C17.5,42.9,17.3,42.7,16.9,42.7z"/>
</g>
</svg>
