<?xml version="1.0" encoding="utf-8"?>
<!-- Generator: Adobe Illustrator 19.2.0, SVG Export Plug-In . SVG Version: 6.00 Build 0)  -->
<svg version="1.1" id="图层_1" xmlns="http://www.w3.org/2000/svg" xmlns:xlink="http://www.w3.org/1999/xlink" x="0px" y="0px"
	 viewBox="0 0 73.2 62.2" style="enable-background:new 0 0 73.2 62.2;" xml:space="preserve">
<style type="text/css">
	.st0{fill:#FFFFFF;}
</style>
<title>NI</title>
<path class="st0" d="M17.2,35.4c-0.2,0-0.3,0.1-0.3,0.4v23.5c4,1.8,8.3,2.7,12.6,2.9L17.7,35.8C17.7,35.6,17.5,35.4,17.2,35.4
	 M71.9,21.2c-2.3-8.8-7.6-14.9-15.7-18.3S39.2-1,29.5,1.7c-11.1,3-19.2,7.7-24.3,14.3s-6.4,14.3-4,23.3C3,46,6,51.2,10.3,55V26.1
	c0-1.2,1-2.1,2.2-2.2h5.8c1.1,0,1.7,0.3,2.4,1.7l12.5,28.1c0,0.2,0.2,0.4,0.4,0.4c0.2-0.1,0.3-0.3,0.3-0.5V25c0-0.6,0.4-1,1-1h4.6
	c0.6,0,1,0.4,1,1v36.3c1.5-0.3,3-0.6,4.6-1l0.4-0.1V36c0-0.6,0.5-1.1,1.1-1.1h5c0.6,0,1.1,0.5,1.1,1.1v21.8c7.1-2.9,12.4-6.9,16-12
	C73.4,39,74.5,30.8,71.9,21.2 M52.9,29.8c0,0.6-0.5,1.1-1.1,1.1h-5.2c-0.6,0-1.1-0.5-1.1-1.1v-4.7c0-0.6,0.5-1.1,1.1-1.1h5.2
	c0.6,0,1.1,0.5,1.1,1.1V29.8z"/>
</svg>
