<?xml version="1.0" encoding="utf-8"?>
<!-- Generator: Adobe Illustrator 19.2.0, SVG Export Plug-In . SVG Version: 6.00 Build 0)  -->
<svg version="1.1" id="图层_1" xmlns="http://www.w3.org/2000/svg" xmlns:xlink="http://www.w3.org/1999/xlink" x="0px" y="0px"
	 viewBox="0 0 73.2 62.3" style="enable-background:new 0 0 73.2 62.3;" xml:space="preserve">
<style type="text/css">
	.st0{fill:#FFFFFF;}
</style>
<title>SI</title>
<path class="st0" d="M71.9,21.2c-2.3-8.8-7.6-14.9-15.7-18.3c-8.1-3.4-17-3.8-26.7-1.2c-11.1,3-19.2,7.7-24.3,14.3
	c-5.1,6.5-6.4,14.3-4,23.3c2.2,8.4,6.4,14.5,12.4,18.3c2.5,0.2,6.8,0.4,8.5,0.4c4.8,0,6.2-1.7,6.2-4.8c0-2.1-1-3.2-4.6-5.3l-7.1-4.3
	c-5-3-6.3-5.6-6.3-9.4c0-5.9,3.4-10.2,13.4-10.2c3.5,0,6.9,0.4,10.3,1c0.5,0,1,0.5,1,1v4c0,0.5-0.3,1-0.8,1c0,0,0,0-0.1,0H34
	c-3.6-0.3-7.1-0.5-10.6-0.5c-4,0-5.7,1.4-5.7,3.8c0,1.8,0.9,2.8,4.4,4.8l6.5,3.2c5.9,3.3,7.5,6.7,7.5,11c0.1,3.7-1.8,7.2-5,9.2
	c2.8,0,5.6-0.3,8.4-0.8V36c0-0.6,0.5-1.1,1.1-1.1h5c0.6,0,1.1,0.5,1.1,1.1v23.9c10.2-3,17.5-7.7,22-14.1
	C73.4,39.1,74.5,30.9,71.9,21.2 M46.8,29.8c0,0.6-0.5,1.1-1.1,1.1h-5.2c-0.6,0-1.1-0.5-1.1-1.1v-4.7c0-0.6,0.5-1.1,1.1-1.1h5.2
	c0.6,0,1.1,0.5,1.1,1.1V29.8z"/>
</svg>
