<?xml version="1.0" encoding="utf-8"?>
<!-- Generator: Adobe Illustrator 19.2.0, SVG Export Plug-In . SVG Version: 6.00 Build 0)  -->
<svg version="1.1" id="图层_1" xmlns="http://www.w3.org/2000/svg" xmlns:xlink="http://www.w3.org/1999/xlink" x="0px" y="0px"
	 viewBox="0 0 628.8 510.7" enable-background="new 0 0 628.8 510.7" xml:space="preserve">
<linearGradient id="SVGID_1_" gradientUnits="userSpaceOnUse" x1="216.7242" y1="321.6667" x2="216.7242" y2="430.8556" gradientTransform="matrix(1 0 0 -1 0 510)">
	<stop  offset="0" style="stop-color:#0E93DD"/>
	<stop  offset="1" style="stop-color:#006EC3"/>
</linearGradient>
<polygon fill="url(#SVGID_1_)" points="216.7,54.3 150.5,184.3 282.9,184.3 "/>
<linearGradient id="SVGID_2_" gradientUnits="userSpaceOnUse" x1="216.7242" y1="189" x2="216.7242" y2="309.0167" gradientTransform="matrix(1 0 0 -1 0 510)">
	<stop  offset="0" style="stop-color:#75D9FC"/>
	<stop  offset="1" style="stop-color:#3BA7E2"/>
</linearGradient>
<polygon fill="url(#SVGID_2_)" points="287,192.3 146.4,192.3 82.2,318.3 351.2,318.3 "/>
<linearGradient id="SVGID_3_" gradientUnits="userSpaceOnUse" x1="216.7242" y1="43.5" x2="216.7242" y2="184.6993" gradientTransform="matrix(1 0 0 -1 0 510)">
	<stop  offset="0" style="stop-color:#FFFFFF;stop-opacity:0"/>
	<stop  offset="0.4119" style="stop-color:#C8EBFB;stop-opacity:0.5523"/>
	<stop  offset="1" style="stop-color:#9CDBF7"/>
</linearGradient>
<polygon fill="url(#SVGID_3_)" points="421.5,456.3 355.3,326.3 78.1,326.3 11.9,456.3 "/>
<g enable-background="new    ">
	<path fill="#006EC3" d="M525.5,102.9c1.3,1.3,2,3.3,2,5.6c0,4.6-2.6,7.5-6.7,7.5s-6.7-2.9-6.7-7.5c0-2.3,0.7-4.3,2.1-5.6
		c1.2-1.2,2.7-1.8,4.6-1.8C522.7,101.1,524.3,101.7,525.5,102.9z M525,108.5c0-1.8-0.5-3.3-1.4-4.2c-0.7-0.7-1.7-1.1-2.8-1.1
		c-2.6,0-4.2,2.1-4.2,5.3c0,1.8,0.5,3.3,1.5,4.2c0.7,0.7,1.7,1.1,2.8,1.1C523.4,113.9,525,111.8,525,108.5z"/>
	<path fill="#006EC3" d="M529.4,115.7c0.1-0.8,0.1-1.3,0.1-2.3v-5.7c0-1,0-1.6-0.1-2.3h2.4v1c0,0.3,0,0.3,0,0.8
		c1.1-1.4,2.1-1.9,3.7-1.9c1.4,0,2.4,0.5,3.1,1.3c0.4,0.6,0.6,1.3,0.6,2.5v4.3c0,1,0,1.7,0.1,2.3h-2.6c0.1-0.8,0.1-1.4,0.1-2.3v-4
		c0-0.8-0.1-1.2-0.3-1.6c-0.3-0.5-0.8-0.7-1.5-0.7c-1.3,0-2.4,0.9-3.2,2.7v3.6c0,0.9,0,1.6,0.1,2.3H529.4z"/>
	<path fill="#006EC3" d="M543.4,111.2c0.1,1,0.3,1.5,0.7,2c0.5,0.6,1.3,1,2.3,1c0.9,0,1.6-0.3,2.2-0.9c0.2-0.3,0.3-0.5,0.5-0.9
		l2.1,0.7c-0.4,0.9-0.6,1.2-1.1,1.7c-0.9,0.9-2.2,1.4-3.7,1.4c-3.2,0-5.2-2.1-5.2-5.5c0-3.3,2-5.5,5.1-5.5c2.1,0,3.8,1,4.5,2.8
		c0.3,0.9,0.5,1.5,0.5,2.7c0,0,0,0.1,0,0.5H543.4z M548.9,109.4c-0.1-0.8-0.3-1.3-0.8-1.7c-0.5-0.5-1.1-0.7-1.9-0.7
		c-1.4,0-2.4,0.9-2.7,2.4H548.9z"/>
	<path fill="#006EC3" d="M563.3,115.7c-0.1-0.6-0.3-1.4-0.5-1.9l-0.7-2h-5.8l-0.7,2c-0.3,0.9-0.4,1.1-0.5,1.9h-3
		c0.3-0.5,0.6-1.3,1-2.1l4-10.4c0.3-0.9,0.5-1.4,0.6-1.8h3.1c0.1,0.4,0.2,0.7,0.6,1.8l4,10.4c0.5,1.2,0.7,1.7,0.9,2.1H563.3z
		 M559.5,104.5c-0.1-0.2-0.1-0.4-0.3-1c-0.3,0.8-0.3,0.8-0.3,1l-1.9,5.3h4.5L559.5,104.5z"/>
	<path fill="#006EC3" d="M567.7,115.7c0.1-0.7,0.1-1.4,0.1-2.3v-9.7c0-0.9,0-1.5-0.1-2.3c0.8,0,1.3,0.1,2.3,0.1h3.8
		c1.7,0,3,0.4,3.8,1.3c0.7,0.7,1.1,1.8,1.1,3.1c0,1.4-0.4,2.5-1.2,3.3c-0.9,0.9-2.1,1.3-3.8,1.3h-3.4v3c0,1,0,1.7,0.1,2.3H567.7z
		 M573.7,108.3c1.7,0,2.6-0.9,2.6-2.5c0-0.7-0.2-1.3-0.6-1.7c-0.4-0.5-1-0.6-2-0.6h-3.4v4.8H573.7z"/>
	<path fill="#006EC3" d="M587.1,115.7c-0.1-0.6-0.4-1.4-0.8-2.4l-2.6-6.2c-0.3-0.8-0.5-1.3-0.9-2.8c0.1,1,0.1,2.4,0.1,2.8v5.9
		c0,1.2,0,1.9,0.1,2.6h-2.5c0.1-0.7,0.1-1.4,0.1-2.6v-9c0-1.2,0-1.9-0.1-2.7h3.3c0.1,0.6,0.4,1.4,0.7,2.1l3.7,8.9l3.6-8.9
		c0.4-0.9,0.5-1.5,0.6-2.1h3.3c-0.1,0.9-0.1,1.5-0.1,2.7v9c0,1.3,0,2,0.1,2.6h-2.5c0.1-0.7,0.1-1.4,0.1-2.6v-6
		c0.1-1.6,0.1-2.5,0.1-2.8c-0.2,1-0.6,2-0.8,2.6l-2.7,6.3c-0.4,0.8-0.7,1.9-0.8,2.4H587.1z"/>
</g>
<g enable-background="new    ">
	<path fill="#006EC3" d="M455.3,143c-0.3,1.3-0.7,2-1.2,2.7c-1,1.3-2.8,2-4.9,2c-2,0-3.5-0.6-4.6-1.7c-1.3-1.3-2-3.3-2-5.7
		c0-2.4,0.8-4.5,2.1-5.8c1.1-1.1,2.7-1.7,4.5-1.7c1.4,0,2.5,0.3,3.5,0.9c0.8,0.5,1.5,1.2,1.9,2c0.2,0.4,0.3,0.7,0.6,1.4l-2.5,0.6
		c-0.3-0.8-0.4-1.1-0.8-1.5c-0.6-0.7-1.5-1.1-2.6-1.1c-2.6,0-4.1,2-4.1,5.3c0,3.3,1.6,5.3,4.1,5.3c1.3,0,2.3-0.5,2.9-1.3
		c0.3-0.5,0.5-0.8,0.6-1.7L455.3,143z"/>
	<path fill="#006EC3" d="M459,142.8c0.1,1,0.3,1.5,0.7,2c0.5,0.6,1.3,1,2.3,1c0.9,0,1.6-0.3,2.2-0.9c0.2-0.3,0.3-0.5,0.5-0.9
		l2.1,0.7c-0.4,0.9-0.6,1.2-1.1,1.7c-0.9,0.9-2.2,1.4-3.7,1.4c-3.2,0-5.2-2.1-5.2-5.5c0-3.3,2-5.5,5.1-5.5c2.1,0,3.8,1,4.5,2.8
		c0.3,0.9,0.5,1.5,0.5,2.7c0,0,0,0.1,0,0.5H459z M464.5,141c-0.1-0.8-0.3-1.3-0.8-1.7c-0.5-0.5-1.1-0.7-1.9-0.7
		c-1.4,0-2.4,0.9-2.7,2.4H464.5z"/>
	<path fill="#006EC3" d="M475.5,139.3c-0.8-0.2-1.1-0.3-1.6-0.3c-0.9,0-1.6,0.3-2.1,0.9c-0.5,0.5-0.6,0.9-0.7,1.8v3.3
		c0,1,0,1.5,0.1,2.3h-2.6c0.1-0.9,0.1-1.4,0.1-2.3v-5.7c0-1.1,0-1.6-0.1-2.3h2.4v1.7c0.6-1.3,1.8-1.9,3.4-1.9c0.4,0,0.9,0.1,1.7,0.2
		L475.5,139.3z"/>
	<path fill="#006EC3" d="M481.3,134.3c-0.1,0.6-0.1,1.4-0.1,2.2v0.6h0.8c0.8,0,1.2,0,1.8-0.1v2.1c-0.6-0.1-0.9-0.1-1.8-0.1h-0.8v5.6
		c0,0.9,0.3,1.2,1.2,1.2c0.5,0,0.8-0.1,1.3-0.4l0.3,1.9c-0.8,0.3-1.3,0.4-2.3,0.4c-2.1,0-2.9-0.7-2.9-2.6V139h-0.7
		c-0.7,0-1,0-1.6,0.1V137c0.5,0.1,0.9,0.1,1.6,0.1h0.7v-0.6c0-0.8-0.1-1.6-0.1-2.2H481.3z"/>
	<path fill="#006EC3" d="M487.9,133.1v2.3h-2.6v-2.3H487.9z M487.9,137.1c-0.1,0.7-0.1,1.3-0.1,2.4v5.6c0,1,0,1.6,0.1,2.4h-2.6
		c0.1-0.8,0.1-1.4,0.1-2.3v-5.7c0-1,0-1.6-0.1-2.3H487.9z"/>
	<path fill="#006EC3" d="M490.9,139c-0.7,0-1.2,0-1.7,0.1V137c0.5,0.1,1,0.1,1.7,0.1h0.7v-1c0-2.2,1.1-3.3,3.6-3.3
		c0.8,0,1.4,0.1,2.2,0.4l-0.5,1.9c-0.5-0.3-1-0.4-1.6-0.4c-1,0-1.4,0.4-1.4,1.7v0.7h0.8c0.7,0,1.3,0,2-0.1v2.1
		c-0.6-0.1-1.1-0.1-2-0.1H494v6.1c0,1,0,1.5,0.1,2.3h-2.6c0.1-0.8,0.1-1.4,0.1-2.3V139H490.9z"/>
	<path fill="#006EC3" d="M501.4,133.1v2.3h-2.6v-2.3H501.4z M501.4,137.1c-0.1,0.7-0.1,1.3-0.1,2.4v5.6c0,1,0,1.6,0.1,2.4h-2.6
		c0.1-0.8,0.1-1.4,0.1-2.3v-5.7c0-1,0-1.6-0.1-2.3H501.4z"/>
	<path fill="#006EC3" d="M505.5,142.8c0.1,1,0.3,1.5,0.7,2c0.5,0.6,1.3,1,2.3,1c0.9,0,1.6-0.3,2.2-0.9c0.2-0.3,0.3-0.5,0.5-0.9
		l2.1,0.7c-0.4,0.9-0.6,1.2-1.1,1.7c-0.9,0.9-2.2,1.4-3.7,1.4c-3.2,0-5.2-2.1-5.2-5.5c0-3.3,2-5.5,5.1-5.5c2.1,0,3.8,1,4.5,2.8
		c0.3,0.9,0.5,1.5,0.5,2.7c0,0,0,0.1,0,0.5H505.5z M511,141c-0.1-0.8-0.3-1.3-0.8-1.7c-0.5-0.5-1.1-0.7-1.9-0.7
		c-1.4,0-2.4,0.9-2.7,2.4H511z"/>
	<path fill="#006EC3" d="M523.2,146.5c0-0.2,0-0.4,0-0.6c-0.9,1.3-1.9,1.8-3.6,1.8c-1.3,0-2.2-0.3-3-0.9c-1.2-0.9-1.9-2.6-1.9-4.5
		c0-3.3,1.9-5.4,4.9-5.4c1.1,0,2,0.3,2.7,0.8c0.3,0.3,0.5,0.5,0.9,1c0-0.2,0-0.2,0-0.6c0-0.1,0-0.5,0-0.8v-1.8c0-1.1,0-1.7-0.1-2.4
		h2.5c-0.1,0.9-0.1,1.5-0.1,2.4v9.5c0,1.1,0,1.6,0.1,2.4h-2.4V146.5z M520,145.7c1,0,1.9-0.5,2.4-1.2c0.5-0.6,0.7-1.5,0.7-2.4
		c0-0.9-0.3-1.8-0.9-2.4c-0.6-0.6-1.5-1-2.3-1c-1.7,0-2.9,1.4-2.9,3.5S518.2,145.7,520,145.7z"/>
	<path fill="#006EC3" d="M544.2,147.5c-0.6-0.1-1.2-0.1-2.3-0.1h-5.6c-1.1,0-1.6,0-2.3,0.1c0.1-0.7,0.1-1.3,0.1-2.4v-9.7
		c0-0.9,0-1.5-0.1-2.3c0.7,0,1.2,0.1,2.3,0.1h5.4c0.9,0,1.5,0,2.3-0.1v2.4c-0.7-0.1-1.3-0.1-2.3-0.1h-5.2v3.7h4.4
		c0.9,0,1.5,0,2.3-0.1v2.4c-0.7-0.1-1.2-0.1-2.3-0.1h-4.4v4.2h5.4c1,0,1.5,0,2.3-0.1V147.5z"/>
	<path fill="#006EC3" d="M553,147.4c-0.3-0.6-0.5-1-0.8-1.5l-1.6-2.3L549,146c-0.3,0.4-0.5,0.7-0.8,1.4h-2.9c0.4-0.5,1-1.2,1.3-1.6
		l2.7-3.8l-2.4-3.4c-0.2-0.3-0.3-0.5-1.2-1.5h2.8c0.2,0.5,0.5,0.9,0.8,1.4l1.4,2l1.4-2c0.3-0.5,0.6-1,0.8-1.4h2.8
		c-0.6,0.7-0.9,1.1-1.2,1.5l-2.4,3.4l2.6,3.7c0.3,0.4,0.8,1.1,1.3,1.7H553z"/>
	<path fill="#006EC3" d="M559.7,137.9c0,0.2,0,0.4,0,0.6c1-1.3,2.1-1.8,3.7-1.8c1.4,0,2.6,0.4,3.4,1.3c1,1,1.4,2.3,1.4,4.1
		c0,3.3-1.8,5.3-4.9,5.3c-1.6,0-2.8-0.6-3.6-1.7c0,0.2,0,0.2,0,0.6c0,0.1,0,0.5,0,0.8v1.4c0,1.1,0,1.6,0.1,2.4h-2.5
		c0.1-0.8,0.1-1.5,0.1-2.4v-9.1c0-1,0-1.6-0.1-2.4h2.4V137.9z M562.9,138.7c-1.8,0-3.1,1.5-3.1,3.4c0,2.1,1.3,3.5,3.2,3.5
		c1.8,0,2.9-1.3,2.9-3.5C565.8,140.1,564.7,138.7,562.9,138.7z"/>
	<path fill="#006EC3" d="M571.9,142.8c0.1,1,0.3,1.5,0.7,2c0.5,0.6,1.3,1,2.2,1c0.9,0,1.6-0.3,2.2-0.9c0.2-0.3,0.3-0.5,0.5-0.9
		l2.1,0.7c-0.4,0.9-0.6,1.2-1.1,1.7c-0.9,0.9-2.2,1.4-3.7,1.4c-3.2,0-5.2-2.1-5.2-5.5c0-3.3,2-5.5,5.1-5.5c2.1,0,3.8,1,4.5,2.8
		c0.3,0.9,0.5,1.5,0.5,2.7c0,0,0,0.1,0,0.5H571.9z M577.3,141c-0.1-0.8-0.3-1.3-0.8-1.7c-0.5-0.5-1.1-0.7-1.9-0.7
		c-1.4,0-2.4,0.9-2.7,2.4H577.3z"/>
	<path fill="#006EC3" d="M588.4,139.3c-0.8-0.2-1.1-0.3-1.6-0.3c-0.9,0-1.6,0.3-2.1,0.9c-0.5,0.5-0.6,0.9-0.7,1.8v3.3
		c0,1,0,1.5,0.1,2.3h-2.6c0.1-0.9,0.1-1.4,0.1-2.3v-5.7c0-1.1,0-1.6-0.1-2.3h2.4v1.7c0.6-1.3,1.8-1.9,3.4-1.9c0.4,0,0.9,0.1,1.7,0.2
		L588.4,139.3z"/>
	<path fill="#006EC3" d="M594.1,134.3c-0.1,0.6-0.1,1.4-0.1,2.2v0.6h0.8c0.8,0,1.2,0,1.8-0.1v2.1c-0.6-0.1-0.9-0.1-1.8-0.1H594v5.6
		c0,0.9,0.3,1.2,1.2,1.2c0.5,0,0.8-0.1,1.3-0.4l0.3,1.9c-0.8,0.3-1.3,0.4-2.3,0.4c-2.1,0-2.9-0.7-2.9-2.6V139H591
		c-0.7,0-1,0-1.6,0.1V137c0.5,0.1,0.9,0.1,1.6,0.1h0.7v-0.6c0-0.8-0.1-1.6-0.1-2.2H594.1z"/>
</g>
<g enable-background="new    ">
	<path fill="#006EC3" d="M525.5,230.9c1.3,1.3,2,3.3,2,5.6c0,4.6-2.6,7.5-6.7,7.5s-6.7-2.9-6.7-7.5c0-2.3,0.7-4.3,2.1-5.6
		c1.2-1.2,2.7-1.8,4.6-1.8C522.7,229.1,524.3,229.7,525.5,230.9z M525,236.5c0-1.8-0.5-3.3-1.4-4.2c-0.7-0.7-1.7-1.1-2.8-1.1
		c-2.6,0-4.2,2.1-4.2,5.3c0,1.8,0.5,3.3,1.5,4.2c0.7,0.7,1.7,1.1,2.8,1.1C523.4,241.9,525,239.8,525,236.5z"/>
	<path fill="#006EC3" d="M529.4,243.7c0.1-0.8,0.1-1.3,0.1-2.3v-5.7c0-1,0-1.6-0.1-2.3h2.4v1c0,0.3,0,0.3,0,0.8
		c1.1-1.4,2.1-1.9,3.7-1.9c1.4,0,2.4,0.5,3.1,1.3c0.4,0.6,0.6,1.3,0.6,2.5v4.3c0,1,0,1.7,0.1,2.3h-2.6c0.1-0.8,0.1-1.4,0.1-2.3v-4
		c0-0.8-0.1-1.2-0.3-1.6c-0.3-0.5-0.8-0.7-1.5-0.7c-1.3,0-2.4,0.9-3.2,2.7v3.6c0,0.9,0,1.6,0.1,2.3H529.4z"/>
	<path fill="#006EC3" d="M543.4,239.2c0.1,1,0.3,1.5,0.7,2c0.5,0.6,1.3,1,2.3,1c0.9,0,1.6-0.3,2.2-0.9c0.2-0.3,0.3-0.5,0.5-0.9
		l2.1,0.7c-0.4,0.9-0.6,1.2-1.1,1.7c-0.9,0.9-2.2,1.4-3.7,1.4c-3.2,0-5.2-2.1-5.2-5.5c0-3.3,2-5.5,5.1-5.5c2.1,0,3.8,1,4.5,2.8
		c0.3,0.9,0.5,1.5,0.5,2.7c0,0,0,0.1,0,0.5H543.4z M548.9,237.4c-0.1-0.8-0.3-1.3-0.8-1.7c-0.5-0.5-1.1-0.7-1.9-0.7
		c-1.4,0-2.4,0.9-2.7,2.4H548.9z"/>
	<path fill="#006EC3" d="M563.3,243.7c-0.1-0.6-0.3-1.4-0.5-1.9l-0.7-2h-5.8l-0.7,2c-0.3,0.9-0.4,1.1-0.5,1.9h-3
		c0.3-0.5,0.6-1.3,1-2.1l4-10.4c0.3-0.9,0.5-1.4,0.6-1.8h3.1c0.1,0.4,0.2,0.7,0.6,1.8l4,10.4c0.5,1.2,0.7,1.7,0.9,2.1H563.3z
		 M559.5,232.5c-0.1-0.2-0.1-0.4-0.3-1c-0.3,0.8-0.3,0.8-0.3,1l-1.9,5.3h4.5L559.5,232.5z"/>
	<path fill="#006EC3" d="M567.7,243.7c0.1-0.7,0.1-1.4,0.1-2.3v-9.7c0-0.9,0-1.5-0.1-2.3c0.8,0,1.3,0.1,2.3,0.1h3.8
		c1.7,0,3,0.4,3.8,1.3c0.7,0.7,1.1,1.8,1.1,3.1c0,1.4-0.4,2.5-1.2,3.3c-0.9,0.9-2.1,1.3-3.8,1.3h-3.4v3c0,1,0,1.7,0.1,2.3H567.7z
		 M573.7,236.3c1.7,0,2.6-0.9,2.6-2.5c0-0.7-0.2-1.3-0.6-1.7c-0.4-0.5-1-0.6-2-0.6h-3.4v4.8H573.7z"/>
	<path fill="#006EC3" d="M587.1,243.7c-0.1-0.6-0.4-1.4-0.8-2.4l-2.6-6.2c-0.3-0.8-0.5-1.3-0.9-2.8c0.1,1,0.1,2.4,0.1,2.8v5.9
		c0,1.2,0,1.9,0.1,2.6h-2.5c0.1-0.7,0.1-1.4,0.1-2.6v-9c0-1.2,0-1.9-0.1-2.7h3.3c0.1,0.6,0.4,1.4,0.7,2.1l3.7,8.9l3.6-8.9
		c0.4-0.9,0.5-1.5,0.6-2.1h3.3c-0.1,0.9-0.1,1.5-0.1,2.7v9c0,1.3,0,2,0.1,2.6h-2.5c0.1-0.7,0.1-1.4,0.1-2.6v-6
		c0.1-1.6,0.1-2.5,0.1-2.8c-0.2,1-0.6,2-0.8,2.6l-2.7,6.3c-0.4,0.8-0.7,1.9-0.8,2.4H587.1z"/>
</g>
<g enable-background="new    ">
	<path fill="#006EC3" d="M399.2,271c-0.3,1.3-0.7,2-1.2,2.7c-1,1.3-2.8,2-4.9,2c-2,0-3.5-0.6-4.6-1.7c-1.3-1.3-2-3.3-2-5.7
		c0-2.4,0.8-4.5,2.1-5.8c1.1-1.1,2.7-1.7,4.5-1.7c1.4,0,2.5,0.3,3.5,0.9c0.8,0.5,1.5,1.2,1.9,2c0.2,0.4,0.3,0.7,0.6,1.4l-2.5,0.6
		c-0.3-0.8-0.4-1.1-0.8-1.5c-0.6-0.7-1.5-1.1-2.6-1.1c-2.6,0-4.1,2-4.1,5.3c0,3.3,1.6,5.3,4.1,5.3c1.3,0,2.3-0.5,2.9-1.3
		c0.3-0.5,0.5-0.8,0.6-1.7L399.2,271z"/>
	<path fill="#006EC3" d="M402.9,270.8c0.1,1,0.3,1.5,0.7,2c0.5,0.6,1.3,1,2.3,1c0.9,0,1.6-0.3,2.2-0.9c0.2-0.3,0.3-0.5,0.5-0.9
		l2.1,0.7c-0.4,0.9-0.6,1.2-1.1,1.7c-0.9,0.9-2.2,1.4-3.7,1.4c-3.2,0-5.2-2.1-5.2-5.5c0-3.3,2-5.5,5.1-5.5c2.1,0,3.8,1,4.5,2.8
		c0.3,0.9,0.5,1.5,0.5,2.7c0,0,0,0.1,0,0.5H402.9z M408.4,269c-0.1-0.8-0.3-1.3-0.8-1.7c-0.5-0.5-1.1-0.7-1.9-0.7
		c-1.4,0-2.4,0.9-2.7,2.4H408.4z"/>
	<path fill="#006EC3" d="M419.4,267.3c-0.8-0.2-1.1-0.3-1.6-0.3c-0.9,0-1.6,0.3-2.1,0.9c-0.5,0.5-0.6,0.9-0.7,1.8v3.3
		c0,1,0,1.5,0.1,2.3h-2.6c0.1-0.9,0.1-1.4,0.1-2.3v-5.7c0-1.1,0-1.6-0.1-2.3h2.4v1.7c0.6-1.3,1.8-1.9,3.4-1.9c0.4,0,0.9,0.1,1.7,0.2
		L419.4,267.3z"/>
	<path fill="#006EC3" d="M425.1,262.3c-0.1,0.6-0.1,1.4-0.1,2.2v0.6h0.8c0.8,0,1.2,0,1.8-0.1v2.1c-0.6-0.1-0.9-0.1-1.8-0.1H425v5.6
		c0,0.9,0.3,1.2,1.2,1.2c0.5,0,0.8-0.1,1.3-0.4l0.3,1.9c-0.8,0.3-1.3,0.4-2.3,0.4c-2.1,0-2.9-0.7-2.9-2.6V267H422
		c-0.7,0-1,0-1.6,0.1V265c0.5,0.1,0.9,0.1,1.6,0.1h0.7v-0.6c0-0.8-0.1-1.6-0.1-2.2H425.1z"/>
	<path fill="#006EC3" d="M431.8,261.1v2.3h-2.6v-2.3H431.8z M431.8,265.1c-0.1,0.7-0.1,1.3-0.1,2.4v5.6c0,1,0,1.6,0.1,2.4h-2.6
		c0.1-0.8,0.1-1.4,0.1-2.3v-5.7c0-1,0-1.6-0.1-2.3H431.8z"/>
	<path fill="#006EC3" d="M434.8,267c-0.7,0-1.2,0-1.7,0.1V265c0.5,0.1,1,0.1,1.7,0.1h0.7v-1c0-2.2,1.1-3.3,3.6-3.3
		c0.8,0,1.4,0.1,2.2,0.4l-0.5,1.9c-0.5-0.3-1-0.4-1.6-0.4c-1,0-1.4,0.4-1.4,1.7v0.7h0.8c0.7,0,1.3,0,2-0.1v2.1
		c-0.6-0.1-1.1-0.1-2-0.1h-0.9v6.1c0,1,0,1.5,0.1,2.3h-2.6c0.1-0.8,0.1-1.4,0.1-2.3V267H434.8z"/>
	<path fill="#006EC3" d="M445.3,261.1v2.3h-2.6v-2.3H445.3z M445.2,265.1c-0.1,0.7-0.1,1.3-0.1,2.4v5.6c0,1,0,1.6,0.1,2.4h-2.6
		c0.1-0.8,0.1-1.4,0.1-2.3v-5.7c0-1,0-1.6-0.1-2.3H445.2z"/>
	<path fill="#006EC3" d="M449.4,270.8c0.1,1,0.3,1.5,0.7,2c0.5,0.6,1.3,1,2.3,1c0.9,0,1.6-0.3,2.2-0.9c0.2-0.3,0.3-0.5,0.5-0.9
		l2.1,0.7c-0.4,0.9-0.6,1.2-1.1,1.7c-0.9,0.9-2.2,1.4-3.7,1.4c-3.2,0-5.2-2.1-5.2-5.5c0-3.3,2-5.5,5.1-5.5c2.1,0,3.8,1,4.5,2.8
		c0.3,0.9,0.5,1.5,0.5,2.7c0,0,0,0.1,0,0.5H449.4z M454.8,269c-0.1-0.8-0.3-1.3-0.8-1.7c-0.5-0.5-1.1-0.7-1.9-0.7
		c-1.4,0-2.4,0.9-2.7,2.4H454.8z"/>
	<path fill="#006EC3" d="M467,274.5c0-0.2,0-0.4,0-0.6c-0.9,1.3-1.9,1.8-3.6,1.8c-1.3,0-2.2-0.3-3-0.9c-1.2-0.9-1.9-2.6-1.9-4.5
		c0-3.3,1.9-5.4,4.9-5.4c1.1,0,2,0.3,2.7,0.8c0.3,0.3,0.5,0.5,0.9,1c0-0.2,0-0.2,0-0.6c0-0.1,0-0.5,0-0.8v-1.8c0-1.1,0-1.7-0.1-2.4
		h2.5c-0.1,0.9-0.1,1.5-0.1,2.4v9.5c0,1.1,0,1.6,0.1,2.4H467V274.5z M463.8,273.7c1,0,1.9-0.5,2.4-1.2c0.5-0.6,0.7-1.5,0.7-2.4
		c0-0.9-0.3-1.8-0.9-2.4c-0.6-0.6-1.5-1-2.3-1c-1.7,0-2.9,1.4-2.9,3.5S462,273.7,463.8,273.7z"/>
	<path fill="#006EC3" d="M477.8,275.4c0.1-0.7,0.1-1.4,0.1-2.3v-9.7c0-0.9,0-1.5-0.1-2.3c0.8,0,1.3,0.1,2.3,0.1h3.8
		c1.7,0,3,0.4,3.8,1.3c0.7,0.7,1.1,1.8,1.1,3.1c0,1.4-0.4,2.5-1.2,3.3c-0.9,0.9-2.1,1.3-3.8,1.3h-3.4v3c0,1,0,1.7,0.1,2.3H477.8z
		 M483.8,268c1.7,0,2.6-0.9,2.6-2.5c0-0.7-0.2-1.3-0.6-1.7c-0.4-0.5-1-0.6-2-0.6h-3.4v4.8H483.8z"/>
	<path fill="#006EC3" d="M497.4,267.3c-0.8-0.2-1.1-0.3-1.6-0.3c-0.9,0-1.6,0.3-2.1,0.9c-0.5,0.5-0.6,0.9-0.7,1.8v3.3
		c0,1,0,1.5,0.1,2.3h-2.6c0.1-0.9,0.1-1.4,0.1-2.3v-5.7c0-1.1,0-1.6-0.1-2.3h2.4v1.7c0.6-1.3,1.8-1.9,3.4-1.9c0.4,0,0.9,0.1,1.7,0.2
		L497.4,267.3z"/>
	<path fill="#006EC3" d="M498.9,270.2c0-3.3,2.1-5.5,5.4-5.5c3.3,0,5.3,2.1,5.3,5.5s-2.1,5.5-5.3,5.5
		C501,275.7,498.9,273.6,498.9,270.2z M501.2,270.2c0,2.2,1.2,3.6,3,3.6c1.9,0,3-1.4,3-3.5c0-2.3-1.1-3.7-3-3.7
		C502.4,266.6,501.2,268,501.2,270.2z"/>
	<path fill="#006EC3" d="M512.2,267c-0.7,0-1.2,0-1.7,0.1V265c0.5,0.1,1,0.1,1.7,0.1h0.7v-1c0-2.2,1.1-3.3,3.6-3.3
		c0.8,0,1.4,0.1,2.2,0.4l-0.5,1.9c-0.5-0.3-1-0.4-1.6-0.4c-1,0-1.4,0.4-1.4,1.7v0.7h0.8c0.7,0,1.3,0,2-0.1v2.1
		c-0.6-0.1-1.1-0.1-2-0.1h-0.9v6.1c0,1,0,1.5,0.1,2.3h-2.6c0.1-0.8,0.1-1.4,0.1-2.3V267H512.2z"/>
	<path fill="#006EC3" d="M521.8,270.8c0.1,1,0.3,1.5,0.7,2c0.5,0.6,1.3,1,2.2,1c0.9,0,1.6-0.3,2.2-0.9c0.2-0.3,0.3-0.5,0.5-0.9
		l2.1,0.7c-0.4,0.9-0.6,1.2-1.1,1.7c-0.9,0.9-2.2,1.4-3.7,1.4c-3.2,0-5.2-2.1-5.2-5.5c0-3.3,2-5.5,5.1-5.5c2.1,0,3.8,1,4.5,2.8
		c0.3,0.9,0.5,1.5,0.5,2.7c0,0,0,0.1,0,0.5H521.8z M527.3,269c-0.1-0.8-0.3-1.3-0.8-1.7c-0.5-0.5-1.1-0.7-1.9-0.7
		c-1.4,0-2.4,0.9-2.7,2.4H527.3z"/>
	<path fill="#006EC3" d="M533.5,272.2c0.3,1.2,1,1.7,2.4,1.7c1.3,0,2.2-0.5,2.2-1.4c0-0.4-0.2-0.7-0.5-0.9c-0.3-0.2-0.5-0.3-1.9-0.6
		c-1.4-0.3-2-0.5-2.6-0.8c-1-0.5-1.6-1.4-1.6-2.4c0-0.6,0.2-1.2,0.6-1.7c0.7-0.9,2-1.4,3.6-1.4c1.5,0,2.6,0.4,3.4,1
		c0.5,0.5,0.7,0.9,1,1.8l-2.4,0.3c-0.2-1-0.8-1.4-2-1.4c-1.1,0-1.9,0.5-1.9,1.3c0,0.3,0.2,0.6,0.6,0.8c0.4,0.2,0.8,0.3,1.8,0.5
		c1.8,0.4,2.6,0.6,3.2,1.1c0.7,0.5,1,1.2,1,2.2c0,0.7-0.3,1.5-0.9,2c-0.8,0.8-2.1,1.2-3.7,1.2c-1.9,0-3.2-0.6-4-1.6
		c-0.3-0.4-0.5-0.8-0.7-1.6L533.5,272.2z"/>
	<path fill="#006EC3" d="M544.1,272.2c0.3,1.2,1,1.7,2.4,1.7c1.3,0,2.2-0.5,2.2-1.4c0-0.4-0.2-0.7-0.5-0.9c-0.3-0.2-0.5-0.3-1.9-0.6
		c-1.4-0.3-2-0.5-2.6-0.8c-1-0.5-1.6-1.4-1.6-2.4c0-0.6,0.2-1.2,0.6-1.7c0.7-0.9,2-1.4,3.6-1.4c1.5,0,2.6,0.4,3.4,1
		c0.5,0.5,0.7,0.9,1,1.8l-2.4,0.3c-0.2-1-0.8-1.4-2-1.4c-1.1,0-1.9,0.5-1.9,1.3c0,0.3,0.2,0.6,0.6,0.8c0.4,0.2,0.8,0.3,1.8,0.5
		c1.8,0.4,2.6,0.6,3.2,1.1c0.7,0.5,1,1.2,1,2.2c0,0.7-0.3,1.5-0.9,2c-0.8,0.8-2.1,1.2-3.7,1.2c-1.9,0-3.2-0.6-4-1.6
		c-0.3-0.4-0.5-0.8-0.7-1.6L544.1,272.2z"/>
	<path fill="#006EC3" d="M555.4,261.1v2.3h-2.6v-2.3H555.4z M555.4,265.1c-0.1,0.7-0.1,1.3-0.1,2.4v5.6c0,1,0,1.6,0.1,2.4h-2.6
		c0.1-0.8,0.1-1.4,0.1-2.3v-5.7c0-1,0-1.6-0.1-2.3H555.4z"/>
	<path fill="#006EC3" d="M557.2,270.2c0-3.3,2.1-5.5,5.4-5.5c3.3,0,5.3,2.1,5.3,5.5s-2.1,5.5-5.3,5.5
		C559.3,275.7,557.2,273.6,557.2,270.2z M559.6,270.2c0,2.2,1.2,3.6,3,3.6c1.9,0,3-1.4,3-3.5c0-2.3-1.1-3.7-3-3.7
		C560.7,266.6,559.6,268,559.6,270.2z"/>
	<path fill="#006EC3" d="M569.7,275.4c0.1-0.8,0.1-1.3,0.1-2.3v-5.7c0-1,0-1.6-0.1-2.3h2.4v1c0,0.3,0,0.3,0,0.8
		c1.1-1.4,2.1-1.9,3.7-1.9c1.4,0,2.4,0.5,3.1,1.3c0.4,0.6,0.6,1.3,0.6,2.5v4.3c0,1,0,1.7,0.1,2.3H577c0.1-0.8,0.1-1.4,0.1-2.3v-4
		c0-0.8-0.1-1.2-0.3-1.6c-0.3-0.5-0.8-0.7-1.5-0.7c-1.3,0-2.4,0.9-3.2,2.7v3.6c0,0.9,0,1.6,0.1,2.3H569.7z"/>
	<path fill="#006EC3" d="M588.7,274.2c-0.7,0.7-1.2,0.9-1.9,1.1c-0.5,0.1-1.1,0.2-1.7,0.2c-2.2,0-3.5-1.1-3.5-3c0-1.3,0.8-2.4,2-2.9
		c1.2-0.5,2.5-0.7,5.1-0.7V268c0-1-0.7-1.6-2.1-1.6c-0.7,0-1.5,0.2-1.9,0.5c-0.3,0.3-0.5,0.5-0.7,1.2l-2.3-0.4c0.4-1,0.7-1.5,1.4-2
		c0.9-0.6,1.9-0.9,3.4-0.9c1.7,0,2.8,0.3,3.5,1.1c0.6,0.6,0.8,1.3,0.8,2.5v4.8c0,1,0,1.4,0.1,2.2h-2.4V274.2z M588.7,270.5
		c-3.4,0.1-4.8,0.7-4.8,2.1c0,0.8,0.6,1.4,1.6,1.4c1,0,1.9-0.4,2.5-1c0.4-0.4,0.6-1,0.6-1.6V270.5z"/>
	<path fill="#006EC3" d="M595.9,261.1c-0.1,0.7-0.1,1.3-0.1,2.4v9.6c0,1,0,1.5,0.1,2.3h-2.6c0.1-0.8,0.1-1.3,0.1-2.3v-9.7
		c0-1.1,0-1.7-0.1-2.3H595.9z"/>
</g>
<g enable-background="new    ">
	<path fill="#006EC3" d="M525.5,367.9c1.3,1.3,2,3.3,2,5.6c0,4.6-2.6,7.5-6.7,7.5s-6.7-2.9-6.7-7.5c0-2.3,0.7-4.3,2.1-5.6
		c1.2-1.2,2.7-1.8,4.6-1.8C522.7,366.1,524.3,366.7,525.5,367.9z M525,373.5c0-1.8-0.5-3.3-1.4-4.2c-0.7-0.7-1.7-1.1-2.8-1.1
		c-2.6,0-4.2,2.1-4.2,5.3c0,1.8,0.5,3.3,1.5,4.2c0.7,0.7,1.7,1.1,2.8,1.1C523.4,378.9,525,376.8,525,373.5z"/>
	<path fill="#006EC3" d="M529.4,380.7c0.1-0.8,0.1-1.3,0.1-2.3v-5.7c0-1,0-1.6-0.1-2.3h2.4v1c0,0.3,0,0.3,0,0.8
		c1.1-1.4,2.1-1.9,3.7-1.9c1.4,0,2.4,0.5,3.1,1.3c0.4,0.6,0.6,1.3,0.6,2.5v4.3c0,1,0,1.7,0.1,2.3h-2.6c0.1-0.8,0.1-1.4,0.1-2.3v-4
		c0-0.8-0.1-1.2-0.3-1.6c-0.3-0.5-0.8-0.7-1.5-0.7c-1.3,0-2.4,0.9-3.2,2.7v3.6c0,0.9,0,1.6,0.1,2.3H529.4z"/>
	<path fill="#006EC3" d="M543.4,376.2c0.1,1,0.3,1.5,0.7,2c0.5,0.6,1.3,1,2.3,1c0.9,0,1.6-0.3,2.2-0.9c0.2-0.3,0.3-0.5,0.5-0.9
		l2.1,0.7c-0.4,0.9-0.6,1.2-1.1,1.7c-0.9,0.9-2.2,1.4-3.7,1.4c-3.2,0-5.2-2.1-5.2-5.5c0-3.3,2-5.5,5.1-5.5c2.1,0,3.8,1,4.5,2.8
		c0.3,0.9,0.5,1.5,0.5,2.7c0,0,0,0.1,0,0.5H543.4z M548.9,374.4c-0.1-0.8-0.3-1.3-0.8-1.7c-0.5-0.5-1.1-0.7-1.9-0.7
		c-1.4,0-2.4,0.9-2.7,2.4H548.9z"/>
	<path fill="#006EC3" d="M563.3,380.7c-0.1-0.6-0.3-1.4-0.5-1.9l-0.7-2h-5.8l-0.7,2c-0.3,0.9-0.4,1.1-0.5,1.9h-3
		c0.3-0.5,0.6-1.3,1-2.1l4-10.4c0.3-0.9,0.5-1.4,0.6-1.8h3.1c0.1,0.4,0.2,0.7,0.6,1.8l4,10.4c0.5,1.2,0.7,1.7,0.9,2.1H563.3z
		 M559.5,369.5c-0.1-0.2-0.1-0.4-0.3-1c-0.3,0.8-0.3,0.8-0.3,1l-1.9,5.3h4.5L559.5,369.5z"/>
	<path fill="#006EC3" d="M567.7,380.7c0.1-0.7,0.1-1.4,0.1-2.3v-9.7c0-0.9,0-1.5-0.1-2.3c0.8,0,1.3,0.1,2.3,0.1h3.8
		c1.7,0,3,0.4,3.8,1.3c0.7,0.7,1.1,1.8,1.1,3.1c0,1.4-0.4,2.5-1.2,3.3c-0.9,0.9-2.1,1.3-3.8,1.3h-3.4v3c0,1,0,1.7,0.1,2.3H567.7z
		 M573.7,373.3c1.7,0,2.6-0.9,2.6-2.5c0-0.7-0.2-1.3-0.6-1.7c-0.4-0.5-1-0.6-2-0.6h-3.4v4.8H573.7z"/>
	<path fill="#006EC3" d="M587.1,380.7c-0.1-0.6-0.4-1.4-0.8-2.4l-2.6-6.2c-0.3-0.8-0.5-1.3-0.9-2.8c0.1,1,0.1,2.4,0.1,2.8v5.9
		c0,1.2,0,1.9,0.1,2.6h-2.5c0.1-0.7,0.1-1.4,0.1-2.6v-9c0-1.2,0-1.9-0.1-2.7h3.3c0.1,0.6,0.4,1.4,0.7,2.1l3.7,8.9l3.6-8.9
		c0.4-0.9,0.5-1.5,0.6-2.1h3.3c-0.1,0.9-0.1,1.5-0.1,2.7v9c0,1.3,0,2,0.1,2.6h-2.5c0.1-0.7,0.1-1.4,0.1-2.6v-6
		c0.1-1.6,0.1-2.5,0.1-2.8c-0.2,1-0.6,2-0.8,2.6l-2.7,6.3c-0.4,0.8-0.7,1.9-0.8,2.4H587.1z"/>
</g>
<g enable-background="new    ">
	<path fill="#006EC3" d="M424.8,408c-0.3,1.3-0.7,2-1.2,2.7c-1,1.3-2.8,2-4.9,2c-2,0-3.5-0.6-4.6-1.7c-1.3-1.3-2-3.3-2-5.7
		c0-2.4,0.8-4.5,2.1-5.8c1.1-1.1,2.7-1.7,4.5-1.7c1.4,0,2.5,0.3,3.5,0.9c0.8,0.5,1.5,1.2,1.9,2c0.2,0.4,0.3,0.7,0.6,1.4l-2.5,0.6
		c-0.3-0.8-0.4-1.1-0.8-1.5c-0.6-0.7-1.5-1.1-2.6-1.1c-2.6,0-4.1,2-4.1,5.3c0,3.3,1.6,5.3,4.1,5.3c1.3,0,2.3-0.5,2.9-1.3
		c0.3-0.5,0.5-0.8,0.6-1.7L424.8,408z"/>
	<path fill="#006EC3" d="M428.6,407.8c0.1,1,0.3,1.5,0.7,2c0.5,0.6,1.3,1,2.3,1c0.9,0,1.6-0.3,2.2-0.9c0.2-0.3,0.3-0.5,0.5-0.9
		l2.1,0.7c-0.4,0.9-0.6,1.2-1.1,1.7c-0.9,0.9-2.2,1.4-3.7,1.4c-3.2,0-5.2-2.1-5.2-5.5c0-3.3,2-5.5,5.1-5.5c2.1,0,3.8,1,4.5,2.8
		c0.3,0.9,0.5,1.5,0.5,2.7c0,0,0,0.1,0,0.5H428.6z M434.1,406c-0.1-0.8-0.3-1.3-0.8-1.7c-0.5-0.5-1.1-0.7-1.9-0.7
		c-1.4,0-2.4,0.9-2.7,2.4H434.1z"/>
	<path fill="#006EC3" d="M445.1,404.3c-0.8-0.2-1.1-0.3-1.6-0.3c-0.9,0-1.6,0.3-2.1,0.9c-0.5,0.5-0.6,0.9-0.7,1.8v3.3
		c0,1,0,1.5,0.1,2.3h-2.6c0.1-0.9,0.1-1.4,0.1-2.3v-5.7c0-1.1,0-1.6-0.1-2.3h2.4v1.7c0.6-1.3,1.8-1.9,3.4-1.9c0.4,0,0.9,0.1,1.7,0.2
		L445.1,404.3z"/>
	<path fill="#006EC3" d="M450.8,399.3c-0.1,0.6-0.1,1.4-0.1,2.2v0.6h0.8c0.8,0,1.2,0,1.8-0.1v2.1c-0.6-0.1-0.9-0.1-1.8-0.1h-0.8v5.6
		c0,0.9,0.3,1.2,1.2,1.2c0.5,0,0.8-0.1,1.3-0.4l0.3,1.9c-0.8,0.3-1.3,0.4-2.3,0.4c-2.1,0-2.9-0.7-2.9-2.6V404h-0.7
		c-0.7,0-1,0-1.6,0.1V402c0.5,0.1,0.9,0.1,1.6,0.1h0.7v-0.6c0-0.8-0.1-1.6-0.1-2.2H450.8z"/>
	<path fill="#006EC3" d="M457.5,398.1v2.3h-2.6v-2.3H457.5z M457.5,402.1c-0.1,0.7-0.1,1.3-0.1,2.4v5.6c0,1,0,1.6,0.1,2.4h-2.6
		c0.1-0.8,0.1-1.4,0.1-2.3v-5.7c0-1,0-1.6-0.1-2.3H457.5z"/>
	<path fill="#006EC3" d="M460.5,404c-0.7,0-1.2,0-1.7,0.1V402c0.5,0.1,1,0.1,1.7,0.1h0.7v-1c0-2.2,1.1-3.3,3.6-3.3
		c0.8,0,1.4,0.1,2.2,0.4l-0.5,1.9c-0.5-0.3-1-0.4-1.6-0.4c-1,0-1.4,0.4-1.4,1.7v0.7h0.8c0.7,0,1.3,0,2-0.1v2.1
		c-0.6-0.1-1.1-0.1-2-0.1h-0.9v6.1c0,1,0,1.5,0.1,2.3h-2.6c0.1-0.8,0.1-1.4,0.1-2.3V404H460.5z"/>
	<path fill="#006EC3" d="M471,398.1v2.3h-2.6v-2.3H471z M470.9,402.1c-0.1,0.7-0.1,1.3-0.1,2.4v5.6c0,1,0,1.6,0.1,2.4h-2.6
		c0.1-0.8,0.1-1.4,0.1-2.3v-5.7c0-1,0-1.6-0.1-2.3H470.9z"/>
	<path fill="#006EC3" d="M475,407.8c0.1,1,0.3,1.5,0.7,2c0.5,0.6,1.3,1,2.3,1c0.9,0,1.6-0.3,2.2-0.9c0.2-0.3,0.3-0.5,0.5-0.9
		l2.1,0.7c-0.4,0.9-0.6,1.2-1.1,1.7c-0.9,0.9-2.2,1.4-3.7,1.4c-3.2,0-5.2-2.1-5.2-5.5c0-3.3,2-5.5,5.1-5.5c2.1,0,3.8,1,4.5,2.8
		c0.3,0.9,0.5,1.5,0.5,2.7c0,0,0,0.1,0,0.5H475z M480.5,406c-0.1-0.8-0.3-1.3-0.8-1.7c-0.5-0.5-1.1-0.7-1.9-0.7
		c-1.4,0-2.4,0.9-2.7,2.4H480.5z"/>
	<path fill="#006EC3" d="M492.7,411.5c0-0.2,0-0.4,0-0.6c-0.9,1.3-1.9,1.8-3.6,1.8c-1.3,0-2.2-0.3-3-0.9c-1.2-0.9-1.9-2.6-1.9-4.5
		c0-3.3,1.9-5.4,4.9-5.4c1.1,0,2,0.3,2.7,0.8c0.3,0.3,0.5,0.5,0.9,1c0-0.2,0-0.2,0-0.6c0-0.1,0-0.5,0-0.8v-1.8c0-1.1,0-1.7-0.1-2.4
		h2.5c-0.1,0.9-0.1,1.5-0.1,2.4v9.5c0,1.1,0,1.6,0.1,2.4h-2.4V411.5z M489.5,410.7c1,0,1.9-0.5,2.4-1.2c0.5-0.6,0.7-1.5,0.7-2.4
		c0-0.9-0.3-1.8-0.9-2.4c-0.6-0.6-1.5-1-2.3-1c-1.7,0-2.9,1.4-2.9,3.5S487.7,410.7,489.5,410.7z"/>
	<path fill="#006EC3" d="M513.6,412.4c-0.1-0.6-0.3-1.4-0.5-1.9l-0.7-2h-5.8l-0.7,2c-0.3,0.9-0.4,1.1-0.5,1.9h-3
		c0.3-0.5,0.6-1.3,1-2.1l4-10.4c0.3-0.9,0.5-1.4,0.6-1.8h3.1c0.1,0.4,0.2,0.7,0.6,1.8l4,10.4c0.5,1.2,0.7,1.7,0.9,2.1H513.6z
		 M509.9,401.1c-0.1-0.2-0.1-0.4-0.3-1c-0.3,0.8-0.3,0.8-0.3,1l-1.9,5.3h4.5L509.9,401.1z"/>
	<path fill="#006EC3" d="M519.9,409.2c0.3,1.2,1,1.7,2.4,1.7c1.3,0,2.2-0.5,2.2-1.4c0-0.4-0.2-0.7-0.5-0.9c-0.3-0.2-0.5-0.3-1.9-0.6
		c-1.4-0.3-2-0.5-2.6-0.8c-1-0.5-1.6-1.4-1.6-2.4c0-0.6,0.2-1.2,0.6-1.7c0.7-0.9,2-1.4,3.6-1.4c1.5,0,2.6,0.4,3.4,1
		c0.5,0.5,0.7,0.9,1,1.8l-2.4,0.3c-0.2-1-0.8-1.4-2-1.4c-1.1,0-1.9,0.5-1.9,1.3c0,0.3,0.2,0.6,0.6,0.8c0.4,0.2,0.8,0.3,1.8,0.5
		c1.8,0.4,2.6,0.6,3.2,1.1c0.7,0.5,1,1.2,1,2.2c0,0.7-0.3,1.5-0.9,2c-0.8,0.8-2.1,1.2-3.7,1.2c-1.9,0-3.2-0.6-4-1.6
		c-0.3-0.4-0.5-0.8-0.7-1.6L519.9,409.2z"/>
	<path fill="#006EC3" d="M530.6,409.2c0.3,1.2,1,1.7,2.4,1.7c1.3,0,2.2-0.5,2.2-1.4c0-0.4-0.2-0.7-0.5-0.9c-0.3-0.2-0.5-0.3-1.9-0.6
		c-1.4-0.3-2-0.5-2.6-0.8c-1-0.5-1.6-1.4-1.6-2.4c0-0.6,0.2-1.2,0.6-1.7c0.7-0.9,2-1.4,3.6-1.4c1.5,0,2.6,0.4,3.4,1
		c0.5,0.5,0.7,0.9,1,1.8l-2.4,0.3c-0.2-1-0.8-1.4-2-1.4c-1.1,0-1.9,0.5-1.9,1.3c0,0.3,0.2,0.6,0.6,0.8c0.4,0.2,0.8,0.3,1.8,0.5
		c1.8,0.4,2.6,0.6,3.2,1.1c0.7,0.5,1,1.2,1,2.2c0,0.7-0.3,1.5-0.9,2c-0.8,0.8-2.1,1.2-3.7,1.2c-1.9,0-3.2-0.6-4-1.6
		c-0.3-0.4-0.5-0.8-0.7-1.6L530.6,409.2z"/>
	<path fill="#006EC3" d="M538.8,407.2c0-3.3,2.1-5.5,5.4-5.5c3.3,0,5.3,2.1,5.3,5.5s-2.1,5.5-5.3,5.5
		C540.9,412.7,538.8,410.6,538.8,407.2z M541.2,407.2c0,2.2,1.2,3.6,3,3.6c1.9,0,3-1.4,3-3.5c0-2.3-1.1-3.7-3-3.7
		C542.3,403.6,541.2,405,541.2,407.2z"/>
	<path fill="#006EC3" d="M558.5,405.5c-0.2-0.6-0.3-0.8-0.6-1.1c-0.4-0.5-1.1-0.8-1.9-0.8c-1.8,0-2.9,1.4-2.9,3.6
		c0,2.3,1.1,3.6,2.9,3.6c0.9,0,1.6-0.4,2.1-1c0.2-0.3,0.3-0.5,0.4-0.9l2.2,0.5c-0.3,0.7-0.4,1.1-0.8,1.5c-0.9,1.2-2.2,1.8-4,1.8
		c-3.2,0-5.2-2.1-5.2-5.5c0-1.7,0.5-3.2,1.5-4.2c0.9-0.9,2.1-1.4,3.6-1.4c1.8,0,3.2,0.7,4,1.9c0.2,0.4,0.4,0.6,0.6,1.3L558.5,405.5z
		"/>
	<path fill="#006EC3" d="M565.2,398.1v2.3h-2.6v-2.3H565.2z M565.2,402.1c-0.1,0.7-0.1,1.3-0.1,2.4v5.6c0,1,0,1.6,0.1,2.4h-2.6
		c0.1-0.8,0.1-1.4,0.1-2.3v-5.7c0-1,0-1.6-0.1-2.3H565.2z"/>
	<path fill="#006EC3" d="M574.3,411.2c-0.7,0.7-1.2,0.9-1.9,1.1c-0.5,0.1-1.1,0.2-1.7,0.2c-2.2,0-3.5-1.1-3.5-3c0-1.3,0.8-2.4,2-2.9
		c1.2-0.5,2.5-0.7,5.1-0.7V405c0-1-0.7-1.6-2.1-1.6c-0.7,0-1.5,0.2-1.9,0.5c-0.3,0.3-0.5,0.5-0.7,1.2l-2.3-0.4c0.4-1,0.7-1.5,1.4-2
		c0.9-0.6,1.9-0.9,3.4-0.9c1.7,0,2.8,0.3,3.5,1.1c0.6,0.6,0.8,1.3,0.8,2.5v4.8c0,1,0,1.4,0.1,2.2h-2.4V411.2z M574.3,407.5
		c-3.4,0.1-4.8,0.7-4.8,2.1c0,0.8,0.6,1.4,1.6,1.4c1,0,1.9-0.4,2.5-1c0.4-0.4,0.6-1,0.6-1.6V407.5z"/>
	<path fill="#006EC3" d="M582.6,399.3c-0.1,0.6-0.1,1.4-0.1,2.2v0.6h0.8c0.8,0,1.2,0,1.8-0.1v2.1c-0.6-0.1-0.9-0.1-1.8-0.1h-0.8v5.6
		c0,0.9,0.3,1.2,1.2,1.2c0.5,0,0.8-0.1,1.3-0.4l0.3,1.9c-0.8,0.3-1.3,0.4-2.3,0.4c-2.1,0-2.9-0.7-2.9-2.6V404h-0.7
		c-0.7,0-1,0-1.6,0.1V402c0.5,0.1,0.9,0.1,1.6,0.1h0.7v-0.6c0-0.8-0.1-1.6-0.1-2.2H582.6z"/>
	<path fill="#006EC3" d="M588.5,407.8c0.1,1,0.3,1.5,0.7,2c0.5,0.6,1.3,1,2.3,1c0.9,0,1.6-0.3,2.2-0.9c0.2-0.3,0.3-0.5,0.5-0.9
		l2.1,0.7c-0.4,0.9-0.6,1.2-1.1,1.7c-0.9,0.9-2.2,1.4-3.7,1.4c-3.2,0-5.2-2.1-5.2-5.5c0-3.3,2-5.5,5.1-5.5c2.1,0,3.8,1,4.5,2.8
		c0.3,0.9,0.5,1.5,0.5,2.7c0,0,0,0.1,0,0.5H588.5z M594,406c-0.1-0.8-0.3-1.3-0.8-1.7c-0.5-0.5-1.1-0.7-1.9-0.7
		c-1.4,0-2.4,0.9-2.7,2.4H594z"/>
</g>
<g enable-background="new    ">
	<path fill="#3E3A39" d="M203,147.4c-0.1-0.7-0.4-1.7-0.6-2.3l-0.9-2.4h-7l-0.9,2.4c-0.4,1.1-0.5,1.4-0.7,2.3h-3.6
		c0.3-0.6,0.8-1.6,1.2-2.6l4.8-12.7c0.4-1.1,0.6-1.7,0.7-2.2h3.8c0.1,0.5,0.2,0.9,0.7,2.2l4.9,12.7c0.5,1.4,0.8,2,1.1,2.6H203z
		 M198.3,133.7c-0.1-0.2-0.2-0.5-0.4-1.2c-0.4,1-0.4,1-0.4,1.2l-2.3,6.5h5.5L198.3,133.7z"/>
	<path fill="#3E3A39" d="M223.3,142.1c-0.4,1.6-0.8,2.4-1.5,3.3c-1.3,1.5-3.4,2.4-6,2.4c-2.4,0-4.3-0.7-5.7-2.1
		c-1.5-1.6-2.4-4.1-2.4-6.9c0-2.9,0.9-5.5,2.6-7.1c1.3-1.3,3.3-2.1,5.5-2.1c1.7,0,3,0.3,4.2,1.1c1,0.6,1.8,1.4,2.3,2.4
		c0.3,0.5,0.4,0.9,0.7,1.7l-3.1,0.7c-0.3-1-0.5-1.4-0.9-1.9c-0.7-0.9-1.8-1.4-3.2-1.4c-3.1,0-5,2.4-5,6.5c0,4,1.9,6.5,5,6.5
		c1.5,0,2.9-0.6,3.6-1.6c0.4-0.5,0.5-1,0.7-2L223.3,142.1z"/>
	<path fill="#3E3A39" d="M238.3,147.6c-0.8-0.1-1.5-0.2-2.8-0.2h-6.9c-1.3,0-1.9,0-2.8,0.1c0.1-0.9,0.2-1.6,0.2-2.9v-11.9
		c0-1.1,0-1.8-0.2-2.8c0.9,0,1.5,0.1,2.8,0.1h6.6c1.1,0,1.8,0,2.8-0.2v2.9c-0.8-0.1-1.5-0.2-2.8-0.2h-6.3v4.5h5.3
		c1.1,0,1.9,0,2.9-0.2v2.9c-0.9-0.1-1.5-0.2-2.9-0.2h-5.4v5.2h6.6c1.2,0,1.9,0,2.8-0.2V147.6z"/>
</g>
<g enable-background="new    ">
	<path fill="#3E3A39" d="M204,264.9c-0.1-0.7-0.4-1.7-0.6-2.3l-0.9-2.4h-7l-0.9,2.4c-0.4,1.1-0.5,1.4-0.7,2.3h-3.6
		c0.3-0.6,0.8-1.6,1.2-2.6l4.8-12.7c0.4-1.1,0.6-1.7,0.7-2.2h3.8c0.1,0.5,0.2,0.9,0.7,2.2l4.9,12.7c0.5,1.4,0.8,2,1.1,2.6H204z
		 M199.4,251.2c-0.1-0.2-0.2-0.5-0.4-1.2c-0.4,1-0.4,1-0.4,1.2l-2.3,6.5h5.5L199.4,251.2z"/>
	<path fill="#3E3A39" d="M224.4,259.6c-0.4,1.6-0.8,2.4-1.5,3.3c-1.3,1.5-3.4,2.4-6,2.4c-2.4,0-4.3-0.7-5.7-2.1
		c-1.5-1.6-2.4-4.1-2.4-6.9c0-2.9,0.9-5.5,2.6-7.1c1.3-1.3,3.3-2.1,5.5-2.1c1.7,0,3,0.3,4.2,1.1c1,0.6,1.8,1.4,2.3,2.4
		c0.3,0.5,0.4,0.9,0.7,1.7l-3.1,0.7c-0.3-1-0.5-1.4-0.9-1.9c-0.7-0.9-1.8-1.4-3.2-1.4c-3.1,0-5,2.4-5,6.5c0,4,1.9,6.5,5,6.5
		c1.5,0,2.9-0.6,3.6-1.6c0.4-0.5,0.5-1,0.7-2L224.4,259.6z"/>
	<path fill="#3E3A39" d="M226.9,264.9c0.1-0.9,0.2-1.6,0.2-2.8v-11.9c0-1.1,0-1.8-0.2-2.8c0.9,0,1.6,0.1,2.8,0.1h4.6
		c2.1,0,3.6,0.5,4.7,1.6c0.9,0.9,1.4,2.2,1.4,3.8c0,1.7-0.5,3-1.5,4c-1.1,1.1-2.6,1.6-4.7,1.6H230v3.7c0,1.2,0,2,0.2,2.9H226.9z
		 M234.2,255.9c2,0,3.1-1.1,3.1-3c0-0.9-0.2-1.6-0.7-2.1c-0.5-0.6-1.2-0.8-2.4-0.8H230v5.9H234.2z"/>
</g>
<g enable-background="new    ">
	<path fill="#3E3A39" d="M204,404.3c-0.1-0.7-0.4-1.7-0.6-2.3l-0.9-2.4h-7l-0.9,2.4c-0.4,1.1-0.5,1.4-0.7,2.3h-3.6
		c0.3-0.6,0.8-1.6,1.2-2.6l4.8-12.7c0.4-1.1,0.6-1.7,0.7-2.2h3.8c0.1,0.5,0.2,0.9,0.7,2.2l4.9,12.7c0.5,1.4,0.8,2,1.1,2.6H204z
		 M199.3,390.5c-0.1-0.2-0.2-0.5-0.4-1.2c-0.4,1-0.4,1-0.4,1.2l-2.3,6.5h5.5L199.3,390.5z"/>
	<path fill="#3E3A39" d="M224.3,398.9c-0.4,1.6-0.8,2.4-1.5,3.3c-1.3,1.5-3.4,2.4-6,2.4c-2.4,0-4.3-0.7-5.7-2.1
		c-1.5-1.6-2.4-4.1-2.4-6.9c0-2.9,0.9-5.5,2.6-7.1c1.3-1.3,3.3-2.1,5.5-2.1c1.7,0,3,0.3,4.2,1.1c1,0.6,1.8,1.4,2.3,2.4
		c0.3,0.5,0.4,0.9,0.7,1.7l-3.1,0.7c-0.3-1-0.5-1.4-0.9-1.9c-0.7-0.9-1.8-1.4-3.2-1.4c-3.1,0-5,2.4-5,6.5c0,4,1.9,6.5,5,6.5
		c1.5,0,2.9-0.6,3.6-1.6c0.4-0.5,0.5-1,0.7-2L224.3,398.9z"/>
	<path fill="#3E3A39" d="M239.2,404.3c-0.1-0.7-0.4-1.7-0.6-2.3l-0.9-2.4h-7l-0.9,2.4c-0.4,1.1-0.5,1.4-0.7,2.3h-3.6
		c0.3-0.6,0.8-1.6,1.2-2.6l4.8-12.7c0.4-1.1,0.6-1.7,0.7-2.2h3.8c0.1,0.5,0.2,0.9,0.7,2.2l4.9,12.7c0.5,1.4,0.8,2,1.1,2.6H239.2z
		 M234.6,390.5c-0.1-0.2-0.2-0.5-0.4-1.2c-0.4,1-0.4,1-0.4,1.2l-2.3,6.5h5.5L234.6,390.5z"/>
</g>
<g>
	<line fill="none" stroke="#D8D8D8" stroke-miterlimit="10" stroke-dasharray="12" x1="216.7" y1="54.3" x2="597.3" y2="54.3"/>
	<line fill="none" stroke="#D8D8D8" stroke-miterlimit="10" stroke-dasharray="12" x1="284.7" y1="188.3" x2="597.3" y2="188.3"/>
	<line fill="none" stroke="#D8D8D8" stroke-miterlimit="10" stroke-dasharray="12" x1="353.4" y1="322.2" x2="597.3" y2="322.2"/>
	<line fill="none" stroke="#D8D8D8" stroke-miterlimit="10" stroke-dasharray="12" x1="419.3" y1="456.3" x2="597.3" y2="456.3"/>
</g>
</svg>
