<?xml version="1.0" encoding="utf-8"?>
<!-- Generator: Adobe Illustrator 19.2.0, SVG Export Plug-In . SVG Version: 6.00 Build 0)  -->
<svg version="1.1" id="图层_1" xmlns="http://www.w3.org/2000/svg" xmlns:xlink="http://www.w3.org/1999/xlink" x="0px" y="0px"
	 viewBox="0 0 120 120" enable-background="new 0 0 120 120" xml:space="preserve">
<g>
	<path fill="#1663A8" d="M69.8,60.8l2.2-3.5c3.1-4.9,4.7-10.5,4.7-16.4c0-1.3-0.1-2.6-0.3-4l-0.2-1.5h9.9l0,1.3
		c-0.1,9.4-4.8,18-12.4,22.4l-3.5,2L69.8,60.8z M79.2,38.1c0.1,1,0.1,2,0.1,2.9c0,4.3-0.8,8.5-2.4,12.4c3.9-4,6.2-9.5,6.6-15.3H79.2
		z"/>
	<path fill="#1663A8" d="M85.9,36.8l0-1h-9.3l0.2,1.1c0.2,1.4,0.3,2.8,0.3,4.1c0,5.9-1.7,11.6-4.8,16.5L70.1,61l3.5-2
		C81.1,54.6,85.8,46.1,85.9,36.8z M79.1,41c0-1-0.1-2.1-0.2-3.2h5c-0.3,6.7-3.2,12.8-7.8,16.9C78.1,50.4,79.1,45.7,79.1,41z"/>
	<path fill="#1663A8" d="M34.7,108.2v-6.8h1.8V84.8h8.2v-0.4c0-1.9,1.4-3.4,3-3.4h3v-1.8h5.5V69c-1.9-1.2-3.8-2.6-5.5-4.3
		c-12-3.2-20.3-14.8-20.3-28.2c0-0.5,0-1.1,0-1.7l0.2-2.9h11.3c0.1-0.3,0.1-0.5,0.2-0.8l0.3-0.9h35.3l0.3,0.9
		c0.1,0.3,0.2,0.5,0.2,0.8h11.3l0.1,2.9c0,0.6,0,1.2,0,1.7c0,13.4-8.3,24.9-20.3,28.2c-1.7,1.6-3.5,3.1-5.5,4.3v10.2h5.4V81h3
		c1.7,0,3,1.5,3,3.4v0.4h8.2v16.5h1.8v6.8H34.7z M82.7,105.6V104h-1.8V87.4H39.1V104h-1.8v1.6H82.7z M72.7,84.8v-0.4
		c0-0.5-0.3-0.8-0.4-0.8h-5.6v-1.8h-5.4V67.5l0.6-0.4c2.1-1.2,4.1-2.7,5.8-4.5l0.2-0.2l0.3-0.1C79.4,59.5,87,48.9,87,36.6
		c0-0.5,0-1,0-1.5l0-0.4H76.1c0,0-0.4-1.5-0.4-1.7H44.3c-0.1,0.2-0.4,1.7-0.4,1.7H33l0,0.4c0,0.6,0,1.1,0,1.5
		c0,12.3,7.7,22.9,18.7,25.7l0.3,0.1l0.3,0.2c1.8,1.8,3.7,3.3,5.8,4.5l0.6,0.4v14.3h-5.5v1.8h-5.6c-0.1,0-0.4,0.3-0.4,0.8v0.4H72.7z
		"/>
	<path fill="#1663A8" d="M69.2,64.5c11.9-3.2,20.1-14.6,20.1-27.9c0-0.5,0-1,0-1.6l-0.1-2.6H77.9c-0.1-0.3-0.2-0.7-0.3-1l-0.2-0.7
		H42.6l-0.2,0.7c-0.1,0.3-0.2,0.7-0.3,1H30.9l-0.1,2.6c0,0.6,0,1.1,0,1.7c0,13.3,8.3,24.7,20.1,27.9c1.7,1.7,3.6,3.1,5.6,4.4v10.7
		H51v1.8h-3.3c-1.5,0-2.7,1.4-2.7,3.1v0.7h-8.2v16.5H35v6.2h50v-6.2h-1.8V85.1H75v-0.7c0-1.7-1.2-3.1-2.7-3.1H69v-1.8h-5.4V68.8
		C65.6,67.6,67.5,66.1,69.2,64.5z M81.2,87.1v16.5H83v2.2H37v-2.2h1.8V87.1H45h30H81.2z M67,81.5v1.8h5.3c0.3,0,0.7,0.5,0.7,1.1v0.7
		H47v-0.7c0-0.6,0.4-1.1,0.7-1.1H53v-1.8h5.5V67.7l-0.5-0.3c-2.1-1.2-4.1-2.8-5.9-4.5l-0.2-0.2l-0.3-0.1
		c-11.1-2.8-18.9-13.5-18.9-26c0-0.5,0-1,0-1.5l0-0.7h10.9l0.2-0.8c0.1-0.3,0.2-0.6,0.2-1h31.8c0.1,0.3,0.2,0.6,0.2,1l0.2,0.8h10.9
		l0,0.7c0,0.6,0,1.1,0,1.5c0,12.5-7.8,23.2-18.9,26l-0.3,0.1L68,62.9c-1.8,1.8-3.8,3.3-5.9,4.5l-0.5,0.3v13.8H67z"/>
	<path fill="#1663A8" d="M46.2,59.2c-7.6-4.4-12.3-13-12.4-22.4l0-1.3h9.9L43.5,37c-0.2,1.4-0.3,2.8-0.3,4c0,5.8,1.6,11.5,4.7,16.4
		l2.2,3.5l-0.4,0.4L46.2,59.2z M36.5,38.1c0.3,5.9,2.7,11.4,6.6,15.3c-1.6-3.9-2.4-8.1-2.4-12.4c0-0.9,0-1.9,0.1-2.9H36.5z"/>
	<path fill="#1663A8" d="M42.9,41c0-1.3,0.1-2.6,0.3-4.1l0.1-1.1h-9.3l0,1c0.1,9.3,4.8,17.8,12.3,22.1l3.5,2l-2.2-3.4
		C44.6,52.6,42.9,46.9,42.9,41z M36.1,37.8h5C41,38.9,40.9,40,40.9,41c0,4.8,1,9.4,3,13.7C39.3,50.6,36.4,44.4,36.1,37.8z"/>
	<path fill="#1663A8" d="M43.1,102.7V90.3h33.8v12.4H43.1z M74.3,100.1v-7.2H45.7v7.2H74.3z"/>
	<path fill="#1663A8" d="M43.4,102.4h33.2V90.6H43.4V102.4z M45.4,92.6h29.2v7.8H45.4V92.6z"/>
	<polygon fill="#1663A8" points="57.2,55.6 57.2,53 58.7,53 58.7,43.6 58,44.1 56.5,42 61.3,38.7 61.3,53 62.8,53 62.8,55.6 	"/>
	<polygon fill="#1663A8" points="62.5,53.3 61,53.3 61,39.3 57,42.1 58.1,43.7 59,43.1 59,53.3 57.5,53.3 57.5,55.3 62.5,55.3 	"/>
	<path fill="#1663A8" d="M91.4,93.1L91.4,93.1c9.1-8.7,14.3-20.7,14.3-33.1c0-25.2-20.5-45.7-45.7-45.7S14.3,34.8,14.3,60
		c0,12.4,5.2,24.4,14.2,33l0.1,0.1v3.6l-0.5-0.4C17.7,87,11.7,73.8,11.7,60c0-26.6,21.7-48.3,48.3-48.3s48.3,21.7,48.3,48.3
		c0,13.8-6,27-16.4,36.2l-0.5,0.4V93.1z"/>
	<path fill="#1663A8" d="M60,12c-26.5,0-48,21.5-48,48c0,14.3,6.3,27.2,16.3,36v-2.8C19.3,84.6,14,72.7,14,60c0-25.4,20.6-46,46-46
		s46,20.6,46,46c0,12.7-5.3,24.6-14.3,33.2V96c10-8.8,16.3-21.7,16.3-36C108,33.5,86.5,12,60,12z"/>
</g>
</svg>
