<?xml version="1.0" encoding="utf-8"?>
<!-- Generator: Adobe Illustrator 19.2.0, SVG Export Plug-In . SVG Version: 6.00 Build 0)  -->
<svg version="1.1" id="图层_1" xmlns="http://www.w3.org/2000/svg" xmlns:xlink="http://www.w3.org/1999/xlink" x="0px" y="0px"
	 viewBox="0 0 140 140" enable-background="new 0 0 140 140" xml:space="preserve">
<path fill="none" stroke="#1663A8" stroke-width="2" stroke-miterlimit="10" d="M36.5,97.6"/>
<path fill="none" stroke="#1663A8" stroke-width="2" stroke-miterlimit="10" d="M106.9,90.7"/>
<rect x="39.6" y="51.9" fill="#1663A8" width="2" height="2"/>
<rect x="43.6" y="51.9" fill="#1663A8" width="2" height="2"/>
<rect x="47.6" y="51.9" fill="#1663A8" width="2" height="2"/>
<g>
	<g>
		<circle fill="#FFFFFF" cx="105.8" cy="93.9" r="17.2"/>
		<path fill="#1663A8" d="M105.8,112.1c-10,0-18.2-8.1-18.2-18.2s8.1-18.2,18.2-18.2S124,83.9,124,93.9S115.8,112.1,105.8,112.1z
			 M105.8,77.7c-8.9,0-16.2,7.2-16.2,16.2s7.2,16.2,16.2,16.2s16.2-7.2,16.2-16.2S114.7,77.7,105.8,77.7z"/>
	</g>
	<path fill="#1663A8" d="M105.8,75.8l0,2c1.2,0,2.7,1.6,3.8,4.1c1.4,3.2,2.2,7.5,2.2,12c0,4.6-0.8,8.8-2.2,12
		c-1.1,2.5-2.6,4.1-3.8,4.1c-1.2,0-2.7-1.6-3.8-4.1c-1.4-3.2-2.2-7.5-2.2-12c0-4.6,0.8-8.8,2.2-12c1.1-2.5,2.6-4.1,3.8-4.1
		L105.8,75.8 M105.8,75.8c-4.4,0-7.9,8.1-7.9,18.1c0,10,3.6,18.1,7.9,18.2c0,0,0,0,0,0c4.4,0,7.9-8.1,7.9-18.1
		C113.7,83.9,110.2,75.8,105.8,75.8C105.8,75.8,105.8,75.8,105.8,75.8L105.8,75.8z"/>
	<g>
		<rect x="89.4" y="86.8" fill="#1663A8" width="33" height="2"/>
	</g>
	<g>
		<rect x="89.4" y="98.9" fill="#1663A8" width="33" height="2"/>
	</g>
</g>
<g>
	<path fill="#1663A8" d="M18.6,21v24.5h34.5l6.3,5.8V21H18.6z M57.3,46.8l-3.5-3.2H20.6V23h36.7V46.8z"/>
	<rect x="25.2" y="29.8" fill="#1663A8" width="26.3" height="2"/>
	<rect x="33.5" y="35.4" fill="#1663A8" width="18" height="2"/>
</g>
<rect x="41.6" y="101.9" fill="#1663A8" width="16.7" height="2"/>
<rect x="61.5" y="101.9" fill="#1663A8" width="16.7" height="2"/>
<rect x="61.5" y="106.3" fill="#1663A8" width="12.4" height="2"/>
<path fill="#1663A8" d="M58.3,84.6H41.5v13h16.8V84.6z M56.3,95.6H43.5v-9h12.8V95.6z"/>
<path fill="#1663A8" d="M41.5,74.4h56.7v-13H41.5V74.4z M43.5,63.4h52.7v9H43.5V63.4z"/>
<path fill="#1663A8" d="M78.3,84.6H61.5v13h16.8V84.6z M76.3,95.6H63.5v-9h12.8V95.6z"/>
<g>
	<path fill="#1663A8" d="M69.9,116.1c-9.5,0-18.2-2.9-25.6-7.8h7v-2h-9.7v0c-1.4-1.1-2.8-2.3-4.1-3.6V57.4h64.7v16.8
		c0.7-0.1,1.3-0.2,2-0.3V48H35.5v52.6c-7.2-8.1-11.6-18.8-11.6-30.5c0-6.4,1.3-12.4,3.6-17.9h-2.2c-2.2,5.5-3.5,11.6-3.5,17.9
		c0,26.5,21.5,48,48,48c7,0,13.6-1.5,19.6-4.2l-1.5-1.5C82.5,114.8,76.3,116.1,69.9,116.1z M37.5,50h64.7v5.4H37.5V50z"/>
</g>
<path fill="#1663A8" d="M69.9,22.1c-1.4,0-2.7,0.1-4.1,0.2v2c1.3-0.1,2.7-0.2,4.1-0.2c25.1,0,45.6,20.2,46,45.3l2,2
	c0-0.4,0-0.8,0-1.3C117.9,43.6,96.4,22.1,69.9,22.1z"/>
<path fill="#1663A8" d="M87.4,101.9h-5.9v2h6.9C88,103.2,87.7,102.6,87.4,101.9z"/>
<rect x="81.5" y="106.3" fill="#1663A8" width="8.9" height="2"/>
<path fill="#1663A8" d="M95.6,76.6H41.5v2h51.3C93.7,77.8,94.6,77.2,95.6,76.6z"/>
<path fill="#1663A8" d="M85.8,95.6h-2.3v-9h3.6c0.3-0.7,0.6-1.4,0.9-2h-6.5v13h4.6C86,96.9,85.9,96.3,85.8,95.6z"/>
</svg>
