<?xml version="1.0" encoding="utf-8"?>
<!-- Generator: Adobe Illustrator 19.2.0, SVG Export Plug-In . SVG Version: 6.00 Build 0)  -->
<svg version="1.1" id="图层_1" xmlns="http://www.w3.org/2000/svg" xmlns:xlink="http://www.w3.org/1999/xlink" x="0px" y="0px"
	 viewBox="0 0 120 120" style="enable-background:new 0 0 120 120;" xml:space="preserve">
<style type="text/css">
	.st0{fill:#1663A8;}
</style>
<g>
	<path class="st0" d="M93.4,81.2l0-1.3c-0.6-0.1-1-0.2-1.4-0.3c-0.4-0.2-0.8-0.4-1.1-0.7c-0.3-0.3-0.6-0.6-0.7-1
		c-0.2-0.3-0.3-0.8-0.4-1.2l0-0.3l3.3-0.3l0,0.3c0.1,0.5,0.2,0.7,0.3,0.8c0,0,0.1,0.1,0.1,0.1l0-1.6c-0.8-0.2-1.4-0.5-1.7-0.6
		c-0.4-0.2-0.8-0.6-1.1-1c-0.3-0.5-0.4-1-0.4-1.7c0-0.9,0.3-1.6,1-2.2c0.6-0.5,1.4-0.8,2.4-0.9l0-0.7l1.6,0l0,0.7
		c0.9,0.1,1.6,0.4,2.2,0.8c0.6,0.5,0.9,1.1,1.1,1.9l0.1,0.3l-3,0.4l-0.1-0.2c-0.1-0.3-0.2-0.5-0.2-0.5l0,1.1
		c1.3,0.4,2.1,0.8,2.6,1.2c0.7,0.6,1,1.4,0.9,2.3c0,0.5-0.1,1-0.4,1.5c-0.2,0.4-0.6,0.8-0.9,1.1c-0.4,0.3-0.8,0.5-1.2,0.6
		C95.9,79.9,95.5,80,95,80l0,1.3L93.4,81.2z M95.1,77.5c0.1-0.1,0.2-0.1,0.3-0.2c0.1-0.1,0.2-0.3,0.2-0.4c0-0.1,0-0.3-0.1-0.4
		c0-0.1-0.1-0.1-0.3-0.2L95.1,77.5z M93.6,71.8C93.6,71.8,93.6,71.9,93.6,71.8c-0.1,0.1-0.2,0.2-0.2,0.4c0,0.1,0,0.2,0.1,0.3
		c0,0,0,0,0.1,0.1L93.6,71.8z"/>
	<path class="st0" d="M94.9,73.3l0-1.9c0.2,0.1,0.4,0.3,0.5,0.4c0.1,0.1,0.2,0.3,0.3,0.7l2.5-0.3c-0.1-0.7-0.5-1.3-1-1.7
		c-0.5-0.4-1.3-0.7-2.3-0.8l0-0.7l-1,0l0,0.7c-1.1,0-1.9,0.3-2.5,0.8c-0.6,0.5-0.9,1.2-0.9,2c0,0.6,0.1,1.1,0.4,1.5
		c0.3,0.4,0.6,0.7,1,0.9c0.4,0.2,1,0.4,1.9,0.7l-0.1,2.4c-0.3-0.2-0.5-0.3-0.7-0.5c-0.1-0.2-0.2-0.5-0.3-1l-2.7,0.2
		c0.1,0.4,0.2,0.8,0.3,1.1c0.2,0.3,0.4,0.6,0.7,0.9c0.3,0.3,0.6,0.5,1,0.7c0.4,0.2,0.9,0.3,1.6,0.4l0,1.3l1,0l0-1.3
		c0.5,0,1-0.1,1.4-0.2c0.4-0.1,0.7-0.3,1.1-0.6c0.3-0.3,0.6-0.6,0.9-1c0.2-0.4,0.3-0.8,0.4-1.3c0-0.8-0.3-1.5-0.9-2.1
		C97.1,74.1,96.2,73.7,94.9,73.3z M93.9,73.1c-0.3-0.1-0.5-0.2-0.6-0.4s-0.2-0.3-0.2-0.5c0-0.2,0.1-0.3,0.2-0.5
		c0.1-0.1,0.3-0.2,0.6-0.3L93.9,73.1z M95.6,77.5c-0.2,0.2-0.5,0.3-0.8,0.4l0.1-2.1c0.4,0.2,0.7,0.3,0.9,0.5
		c0.1,0.2,0.2,0.4,0.2,0.6C95.9,77.1,95.8,77.4,95.6,77.5z"/>
	<path class="st0" d="M94.4,88.9c-1.1,0-2.2-0.1-3.3-0.4c-1.1-0.3-2.1-0.7-3.2-1.2H77.9v-2.6h5.7v-1c-0.3-0.3-0.5-0.7-0.7-1h-4.9V80
		h3.6c-0.3-0.7-0.5-1.4-0.6-2.1h-3v-2.6h2.6c0-1.2,0.1-2.5,0.4-3.7c0.5-2,1.4-3.8,2.7-5.4V55.8h-22v3.6H50.6v-3.6h-22v28.9h31.7v2.6
		H27v0h-1V55.8h-1.1V38.2h18.6v-9.5h25.1v9.5h18.6v17.5h-1.1v8.1c2.4-1.8,5.3-2.7,8.3-2.7c1.1,0,2.2,0.1,3.2,0.4
		c7.5,1.8,12.1,9.3,10.3,16.8c-0.9,3.6-3.1,6.7-6.3,8.6C99.5,88.2,97,88.9,94.4,88.9z M94.4,63.7c-5.2,0-9.8,3.6-11,8.7
		c-1.5,6.1,2.3,12.2,8.3,13.6c0.9,0.2,1.8,0.3,2.7,0.3c2.1,0,4.1-0.6,5.9-1.7c2.6-1.6,4.4-4.1,5.1-7c0.7-2.9,0.2-6-1.4-8.5
		c-1.6-2.6-4.1-4.4-7-5.1C96.2,63.8,95.3,63.7,94.4,63.7z M58.9,56.8v-4.6h-5.7v4.6H58.9z M84.6,53.2V40.8H27.5v12.3h23.1v-3.6h10.9
		v3.6H84.6z M66,38.2v-6.9H46.1v6.9H66z"/>
	<path class="st0" d="M97.6,61.7c-4.3-1-8.6,0.1-11.7,2.7v-9h1.1V38.5H68.3V29H43.8v9.5H25.2v16.9h1.1V87h1v0H60v-2H28.3V55.5h22.6
		v3.6h10.3v-3.6h22.6v10.9c-1.2,1.5-2.2,3.3-2.7,5.4c-0.3,1.3-0.4,2.6-0.4,3.9h-2.6v2h2.9c0.2,0.9,0.5,1.8,0.8,2.7h-3.7v2H83
		c0.3,0.4,0.6,0.8,0.9,1.2V85h-5.7v2h7.7H88c1,0.5,2,0.9,3.2,1.2c1.1,0.3,2.1,0.4,3.2,0.4c2.5,0,4.9-0.7,7.1-2
		c3.1-1.9,5.3-4.9,6.1-8.4C109.4,70.9,104.9,63.5,97.6,61.7z M45.8,31h20.5v7.5H45.8V31z M59.2,57.1h-6.3v-5.2h6.3V57.1z M61.2,53.5
		v-3.6H50.9v3.6H27.2V40.5h16.6h24.5h16.6v12.9H61.2z M105.7,77.7c-0.7,3-2.6,5.6-5.2,7.2c-2.6,1.6-5.8,2.1-8.8,1.4
		c-6.2-1.5-10.1-7.8-8.6-14c1.3-5.3,6-8.9,11.3-8.9c0.9,0,1.8,0.1,2.7,0.3C103.3,65.2,107.2,71.5,105.7,77.7z"/>
	<path class="st0" d="M60,108.3c-26.6,0-48.3-21.7-48.3-48.3S33.4,11.7,60,11.7s48.3,21.7,48.3,48.3l0,0.3V61l-2.6-2.6l0-0.1
		c-0.9-24.6-21-44-45.7-44c-25.2,0-45.7,20.5-45.7,45.7s20.5,45.7,45.7,45.7c11.3,0,22.1-4.2,30.5-11.7l0.1-0.1l3.8,0l-0.5,0.5
		C84.8,103.3,72.8,108.3,60,108.3z"/>
	<path class="st0" d="M60,12c-26.5,0-48,21.5-48,48c0,26.5,21.5,48,48,48c13.1,0,25-5.3,33.7-13.9l-3,0C82.6,101.5,71.8,106,60,106
		c-25.4,0-46-20.6-46-46s20.6-46,46-46c24.8,0,45,19.7,46,44.2l2,2c0-0.1,0-0.2,0-0.3C108,33.5,86.5,12,60,12z"/>
	<rect x="64.4" y="70.7" class="st0" width="10.7" height="2.6"/>
	<rect x="64.7" y="71" class="st0" width="10.1" height="2"/>
	<rect x="64.4" y="75.4" class="st0" width="10.7" height="2.6"/>
	<rect x="64.7" y="75.7" class="st0" width="10.1" height="2"/>
	<rect x="64.4" y="80" class="st0" width="10.7" height="2.6"/>
	<rect x="64.7" y="80.3" class="st0" width="10.1" height="2"/>
	<rect x="64.4" y="84.7" class="st0" width="10.7" height="2.6"/>
	<rect x="64.7" y="85" class="st0" width="10.1" height="2"/>
</g>
</svg>
