<?xml version="1.0" encoding="utf-8"?>
<!-- Generator: Adobe Illustrator 19.2.0, SVG Export Plug-In . SVG Version: 6.00 Build 0)  -->
<svg version="1.1" id="图层_1" xmlns="http://www.w3.org/2000/svg" xmlns:xlink="http://www.w3.org/1999/xlink" x="0px" y="0px"
	 viewBox="0 0 120 120" enable-background="new 0 0 120 120" xml:space="preserve">
<g>
	<polygon fill="#1663A8" points="59.9,61.7 44,70.9 42.7,68.6 58.6,59.4 58.6,41.1 61.2,41.1 61.2,59.4 77.1,68.6 75.8,70.9 	"/>
	<path fill="#1663A8" d="M14.5,76.6c-1.9-5.3-2.9-10.8-2.9-16.4c0-20,12.1-37.7,30.7-45l0.4-0.2v2.8l-0.2,0.1
		C25.3,25,14.2,41.6,14.2,60.2c0,5.1,0.9,10.2,2.6,15l0.1,0.2L14.6,77L14.5,76.6z"/>
	<path fill="#1663A8" d="M102.9,75.5l0.1-0.2c1.7-4.9,2.6-10,2.6-15.2c0-18.5-11.1-35.1-28.3-42.2l-0.2-0.1v-2.8l0.4,0.2
		c18.6,7.3,30.6,25,30.6,44.9c0,5.7-1,11.2-2.9,16.6l-0.1,0.4L102.9,75.5z"/>
	<path fill="#1663A8" d="M59.9,108.5c-7.9,0-15.7-2-22.6-5.6l0.1-0.6h4.8l0.1,0c5.6,2.4,11.6,3.6,17.7,3.6c6.1,0,12-1.2,17.7-3.6
		l0.1,0h4.8l0.1,0.6C75.6,106.5,67.8,108.5,59.9,108.5z"/>
	<path fill="none" d="M46.2,33.2l0.1-4.6c0-1,0.6-1.9,1.4-2.4l8.6-5l0.2,0.1c1.1,0.7,2.3,1,3.5,1c1.2,0,2.4-0.3,3.5-1l0.2-0.1l8.6,5
		c0.9,0.5,1.4,1.4,1.4,2.5l0,4.6H46.2z"/>
	<path fill="#1663A8" d="M42.1,35.2v-2.6h2.1l0.1-4c0-1.7,1-3.3,2.4-4.1l7.4-4.3c-2.1-2.1-3.4-5.1-3.4-7.8c0-5.8,3.7-9.6,9.3-9.6
		c5.5,0,9.3,4,9.3,9.6c0,2.7-1.3,5.7-3.4,7.8l7.4,4.3c1.5,0.9,2.4,2.5,2.4,4.2l0,4h2.1v2.6H42.1z M73,32.6l0-4
		c0-0.8-0.4-1.5-1.1-1.9l-8.3-4.8c-1.2,0.7-2.4,1-3.7,1c-1.2,0-2.5-0.3-3.7-1L48,26.7c-0.7,0.4-1.1,1.1-1.1,1.9l-0.1,4H73z M60,5.3
		c-4.1,0-6.7,2.8-6.7,7c0,2.3,1.4,5,3.3,6.6c0.6,0.5,1.3,0.9,1.9,1.1c0.5,0.2,1,0.3,1.5,0.3c0.5,0,1-0.1,1.5-0.3
		c0.7-0.2,1.3-0.6,1.9-1.1c1.9-1.6,3.3-4.3,3.3-6.6C66.7,8.2,64,5.3,60,5.3z"/>
	<path fill="none" d="M14.7,96.6l0.1-4.6c0-1,0.6-1.9,1.4-2.4l8.6-5l0.2,0.1c1.1,0.7,2.3,1,3.5,1s2.4-0.3,3.5-1l0.2-0.1l8.6,5
		c0.9,0.5,1.4,1.4,1.4,2.5l0,4.6H14.7z"/>
	<path fill="#1663A8" d="M10.6,98.6V96h2.1l0.1-4c0-1.7,1-3.3,2.4-4.1l7.4-4.3c-2.1-2.1-3.4-5.1-3.4-7.8c0-5.8,3.7-9.6,9.3-9.6
		c5.5,0,9.3,4,9.3,9.6c0,2.7-1.3,5.7-3.4,7.8l7.4,4.3c1.5,0.9,2.4,2.5,2.4,4.2l0,4h2.1v2.6H10.6z M41.6,96l0-4
		c0-0.8-0.4-1.5-1.1-1.9l-8.3-4.8c-1.2,0.7-2.4,1-3.7,1s-2.5-0.3-3.7-1l-8.3,4.8c-0.7,0.4-1.1,1.1-1.1,1.9l-0.1,4H41.6z M28.5,68.7
		c-4.1,0-6.7,2.8-6.7,7c0,2.3,1.4,5,3.3,6.6c0.6,0.5,1.3,0.9,1.9,1.1c0.5,0.2,1,0.3,1.5,0.3c0.5,0,1-0.1,1.5-0.3
		c0.7-0.2,1.3-0.6,1.9-1.1c1.9-1.6,3.3-4.3,3.3-6.6C35.2,71.5,32.5,68.7,28.5,68.7z"/>
	<path fill="none" d="M77.8,96.6l0.1-4.6c0-1,0.6-1.9,1.4-2.4l8.6-5l0.2,0.1c1.1,0.7,2.3,1,3.5,1s2.4-0.3,3.5-1l0.2-0.1l8.6,5
		c0.9,0.5,1.4,1.4,1.4,2.5l0,4.6H77.8z"/>
	<path fill="#1663A8" d="M73.7,98.6V96h2.1l0.1-4c0-1.7,1-3.3,2.4-4.1l7.4-4.3c-2.1-2.1-3.4-5.1-3.4-7.8c0-5.8,3.7-9.6,9.3-9.6
		c5.5,0,9.3,4,9.3,9.6c0,2.7-1.3,5.7-3.4,7.8l7.4,4.3c1.5,0.9,2.4,2.5,2.4,4.2l0,4h2.1v2.6H73.7z M104.7,96l0-4
		c0-0.8-0.4-1.5-1.1-1.9l-8.3-4.8c-1.2,0.7-2.4,1-3.7,1s-2.5-0.3-3.7-1l-8.3,4.8c-0.7,0.4-1.1,1.1-1.1,1.9l-0.1,4H104.7z M91.6,68.7
		c-4.1,0-6.7,2.8-6.7,7c0,2.3,1.4,5,3.3,6.6c0.6,0.5,1.3,0.9,1.9,1.1c0.5,0.2,1,0.3,1.5,0.3c0.5,0,1-0.1,1.5-0.3
		c0.7-0.2,1.3-0.6,1.9-1.1c1.9-1.6,3.3-4.3,3.3-6.6C98.3,71.5,95.6,68.7,91.6,68.7z"/>
</g>
</svg>
