<?xml version="1.0" encoding="utf-8"?>
<!-- Generator: Adobe Illustrator 19.2.0, SVG Export Plug-In . SVG Version: 6.00 Build 0)  -->
<svg version="1.1" id="图层_1" xmlns="http://www.w3.org/2000/svg" xmlns:xlink="http://www.w3.org/1999/xlink" x="0px" y="0px"
	 viewBox="0 0 120 120" style="enable-background:new 0 0 120 120;" xml:space="preserve">
<style type="text/css">
	.st0{fill:#1663A8;}
	.st1{fill:none;}
</style>
<g>
	<path class="st0" d="M25.3,85.4V34.6h69.3v50.8H25.3z M92.1,82.8V37.2H27.9v45.6H92.1z"/>
	<path class="st0" d="M94.4,85.1H25.6V34.9h68.7V85.1z M27.6,83.1h64.7V36.9H27.6V83.1z"/>
</g>
<g>
	<g>
		<path class="st1" d="M46.7,72.7c-2.8,0-5.4-0.9-7.7-2.6l-0.2-0.2l0.1-0.2c0.2-0.3,0.4-0.6,0.6-0.8c0.9-0.9,2.2-1.3,3.1-1.4
			c0.6-0.1,1.1-0.3,1.4-0.6c0.4-0.4,0.6-0.9,0.6-1.7c0-0.2-0.1-0.4-0.3-0.5c-0.7-0.4-1-1.3-1.3-2c-0.2-0.5-0.4-0.9-0.7-1.3h0
			l-0.1-0.1c-0.2-0.2-0.6-0.6-0.7-1.1c-0.2-0.6,0-0.9,0.1-1.1c0.1-0.1,0.1-0.2,0.2-0.4c0-0.1,0-0.3-0.1-0.4c-0.2-0.6-0.4-1.2-0.4-2
			c0-0.7,0.1-1.5,0.4-2.3c0.3-1,0.8-1.6,1.5-2.1c0.7-0.5,1.6-0.7,2.8-0.7c0.1,0,0.3,0,0.5,0c0.4,0,0.8,0,1.1,0.1
			c0.5,0.1,0.9,0.3,1,0.5c0.2,0.2,0.3,0.4,0.5,0.5c0.2,0.1,0.3,0.1,0.5,0.1c0.1,0,0.1,0,0.2,0l0.1,0c0.3,0,0.7,0.2,1,0.7
			c0.6,0.7,1,1.7,1.1,2.2c0.1,0.4,0.1,0.8,0,1.4c-0.1,0.5-0.2,1-0.4,1.6c-0.1,0.2,0,0.6,0.1,0.7l0.5,0.5h-0.2c0,0.2,0,0.4-0.1,0.7
			c-0.2,0.5-0.5,0.9-0.8,1.1l-0.1-0.1l0,0l0.1,0.1c-0.3,0.3-0.5,0.7-0.7,1.3c-0.3,0.7-0.6,1.6-1.3,2c-0.2,0.1-0.2,0.3-0.3,0.5
			c-0.1,0.6,0.3,1.5,0.6,1.7c0.4,0.4,0.9,0.6,1.4,0.7c0.9,0.1,2.2,0.5,3.1,1.4c0.2,0.2,0.4,0.4,0.5,0.7l0.2,0.2L54.5,70
			C52.2,71.7,49.5,72.7,46.7,72.7z"/>
		<path class="st1" d="M50.9,67.8c-0.6-0.1-1.2-0.3-1.6-0.7c-0.5-0.5-1.1-2.2-0.3-2.7c0.6-0.4,0.9-1.1,1.2-1.8
			c0.2-0.6,0.4-1.1,0.8-1.4v0l0,0c0.2-0.2,0.5-0.6,0.7-1c0.1-0.3,0.1-0.6-0.1-0.9h0c-0.2-0.3-0.3-0.7-0.2-1c0.2-0.5,0.3-1.1,0.3-1.5
			c0.1-0.5,0.1-0.9,0-1.3c-0.1-0.5-0.5-1.4-1-2.1c-0.3-0.3-0.6-0.6-0.9-0.6c-0.3,0-0.6,0-0.9-0.1c-0.2-0.1-0.4-0.3-0.6-0.5L48.4,52
			c-0.1-0.2-0.5-0.3-0.8-0.4c-0.5-0.1-1.1-0.1-1.5-0.1c-1,0-1.9,0.2-2.6,0.7c-0.6,0.4-1.1,1-1.4,1.9l0,0.1c-0.2,0.7-0.4,1.4-0.3,2.2
			c0,0.7,0.1,1.3,0.3,1.8c0.1,0.2,0.1,0.4,0.1,0.6c-0.1,0.6-0.5,0.6-0.3,1.3c0.2,0.4,0.5,0.8,0.7,1l0,0h0c0.4,0.4,0.6,0.8,0.8,1.4
			c0.3,0.7,0.6,1.4,1.2,1.8c0.3,0.1,0.5,0.4,0.5,0.8c0,0.7-0.1,1.4-0.7,1.9c-0.4,0.4-1,0.7-1.6,0.7c-0.8,0.1-2,0.4-2.9,1.3
			c-0.2,0.2-0.4,0.4-0.5,0.7c2.1,1.6,4.7,2.6,7.5,2.6c2.9,0,5.5-1,7.6-2.6c-0.1-0.2-0.3-0.4-0.5-0.6C52.9,68.2,51.6,67.8,50.9,67.8z
			"/>
	</g>
	<g>
		<path class="st1" d="M37.6,68.9C35.3,66.5,34,63.3,34,60c0-7,5.7-12.7,12.7-12.7c7,0,12.7,5.7,12.7,12.7c0,3.3-1.3,6.4-3.5,8.8
			L55.6,69l-0.2-0.3c-0.2-0.2-0.4-0.4-0.6-0.7c-1.3-1.2-3-1.6-3.8-1.7c-0.3,0-0.5-0.1-0.7-0.3c-0.1-0.1-0.2-0.3-0.2-0.5l0-0.2
			l0.1-0.1c0.7-0.6,1.1-1.5,1.4-2.2c0.2-0.4,0.3-0.6,0.4-0.8v0l0.1-0.1c0.4-0.4,0.9-1,1.1-1.6c0.3-0.8,0.3-1.5-0.1-2l-0.1-0.1l0-0.1
			c0.1-0.5,0.3-1,0.3-1.5c0.1-0.6,0.1-1.2,0-1.7c-0.1-0.7-0.7-2-1.4-2.8c-0.4-0.5-1.1-1.1-1.9-1.1c-0.1,0-0.1,0-0.2,0l-0.2,0
			l-0.1-0.1c-0.3-0.5-0.9-0.8-1.7-0.9c-0.5-0.1-1-0.1-1.4-0.1l-0.4,0c-1.4,0-2.5,0.3-3.4,0.9c-0.9,0.6-1.5,1.5-1.9,2.6l-0.1,0.1
			c-0.3,0.8-0.4,1.7-0.4,2.6c0,0.7,0.1,1.4,0.3,2l0,0.1l-0.1,0.1c-0.3,0.6-0.3,1.2,0,1.9c0.2,0.6,0.7,1.2,1,1.5h0l0,0l0,0l0.1,0.1v0
			c0.1,0.1,0.2,0.4,0.4,0.8c0.3,0.7,0.6,1.6,1.4,2.3l0.1,0.1l0,0.2c0,0.1-0.1,0.3-0.2,0.4c-0.2,0.2-0.4,0.3-0.7,0.3
			c-1.1,0.1-2.7,0.7-3.8,1.7c-0.2,0.2-0.4,0.5-0.6,0.7l-0.2,0.3L37.6,68.9z"/>
		<path class="st1" d="M42.5,66.1c0.2,0,0.4-0.1,0.5-0.2c0.1-0.1,0.1-0.2,0.2-0.3c-0.8-0.7-1.2-1.6-1.5-2.4
			c-0.2-0.4-0.3-0.7-0.4-0.8l0,0l0,0h0v0c-0.4-0.3-0.9-1-1.1-1.7c-0.3-0.7-0.3-1.5,0.1-2.2c-0.2-0.7-0.3-1.4-0.3-2.1
			c0-0.9,0.1-1.9,0.4-2.8l0-0.1c0.4-1.2,1.1-2.1,2-2.7c1-0.7,2.2-1,3.5-1c0.5,0,1.2,0,1.9,0.1c0.8,0.1,1.5,0.4,1.9,1.1
			c0.9-0.1,1.7,0.4,2.3,1.2c0.8,0.9,1.3,2.2,1.4,2.9c0.1,0.6,0.1,1.2,0,1.8c-0.1,0.5-0.2,1-0.3,1.5c0.5,0.7,0.4,1.6,0.1,2.3
			c-0.3,0.7-0.8,1.4-1.1,1.7l0,0l0,0v0c-0.1,0.1-0.2,0.4-0.4,0.8c-0.3,0.8-0.7,1.7-1.5,2.3c0,0.1,0.1,0.2,0.2,0.3
			c0.1,0.1,0.3,0.2,0.5,0.2c1,0.1,2.8,0.6,4,1.8c0.2,0.2,0.4,0.4,0.6,0.7c2.1-2.2,3.5-5.2,3.5-8.6c0-6.8-5.5-12.4-12.4-12.4
			c-6.8,0-12.4,5.5-12.4,12.4c0,3.4,1.4,6.4,3.5,8.6c0.2-0.3,0.4-0.5,0.7-0.8C39.8,66.7,41.5,66.2,42.5,66.1z"/>
	</g>
	<g>
		<path class="st0" d="M46.7,74.3c-2.9,0-5.7-0.9-8.1-2.6l-0.1-0.1l0-0.2c0-0.7,0.2-1.2,0.5-1.8l0.2-0.3l0.3,0.2
			c2.1,1.6,4.7,2.5,7.3,2.5c2.7,0,5.3-0.9,7.4-2.6l0.3-0.2l0.2,0.3c0.3,0.5,0.5,1.1,0.6,1.8l0,0.2L55,71.6
			C52.5,73.3,49.7,74.3,46.7,74.3z"/>
		<path class="st0" d="M46.7,72.4c-2.8,0-5.4-1-7.5-2.6c-0.3,0.5-0.5,1-0.5,1.6c2.3,1.6,5,2.5,8,2.5c3,0,5.8-1,8.1-2.6
			c0-0.6-0.2-1.2-0.5-1.6C52.2,71.4,49.6,72.4,46.7,72.4z"/>
	</g>
	<g>
		<path class="st0" d="M37,70.4C34,67.7,32.4,64,32.4,60c0-7.9,6.4-14.3,14.3-14.3S61,52.1,61,60c0,3.9-1.6,7.6-4.4,10.3l-0.4,0.3
			l-0.1-0.5c-0.1-0.5-0.4-1-0.7-1.4l-0.1-0.2l0.2-0.2c2.2-2.3,3.4-5.2,3.4-8.3c0-6.7-5.4-12.1-12.1-12.1S34.6,53.3,34.6,60
			c0,3.2,1.2,6.2,3.5,8.4l0.2,0.2l-0.1,0.2c-0.3,0.4-0.5,0.9-0.7,1.4l-0.1,0.5L37,70.4z"/>
		<path class="st0" d="M60.7,60c0-7.7-6.3-14-14-14c-7.7,0-14,6.3-14,14c0,4,1.7,7.6,4.4,10.2c0.1-0.6,0.4-1.1,0.7-1.5
			c-2.2-2.2-3.5-5.3-3.5-8.6c0-6.8,5.5-12.4,12.4-12.4c6.8,0,12.4,5.5,12.4,12.4c0,3.3-1.3,6.3-3.5,8.6c0.3,0.4,0.6,0.9,0.7,1.5
			C59,67.5,60.7,64,60.7,60z"/>
	</g>
	<g>
		<path class="st0" d="M39,70c-0.5-0.4-1-0.8-1.4-1.2l-0.2-0.2l0.1-0.2c0.2-0.3,0.4-0.6,0.7-0.8c1.3-1.2,3.1-1.8,4.2-1.9
			c0.1,0,0.3-0.1,0.3-0.1c-0.8-0.7-1.1-1.6-1.4-2.3c-0.1-0.2-0.2-0.5-0.3-0.6H41l0-0.2c-0.4-0.4-0.9-1-1.1-1.7
			c-0.3-0.8-0.3-1.7,0-2.3c-0.2-0.6-0.3-1.3-0.3-2.1c0-1,0.1-2,0.4-2.9l0.1-0.1c0.4-1.2,1.1-2.2,2.1-2.8c1-0.7,2.2-1,3.7-1l0.4,0
			c0.4,0,1,0,1.5,0.1c0.9,0.2,1.6,0.5,2,1c0,0,0,0,0,0c0.8,0,1.7,0.4,2.4,1.3c0.8,0.9,1.4,2.3,1.5,3.1c0.1,0.6,0.1,1.2,0,1.9
			c-0.1,0.5-0.2,0.9-0.3,1.4c0.4,0.7,0.4,1.5,0.1,2.4c-0.3,0.7-0.8,1.4-1.1,1.7l-0.1,0.1c-0.1,0.1-0.2,0.5-0.3,0.7
			c-0.3,0.7-0.6,1.6-1.4,2.3c0,0,0,0,0,0c0.1,0.1,0.2,0.1,0.3,0.1c1.1,0.1,2.9,0.7,4.2,1.9c0.2,0.2,0.4,0.5,0.6,0.7l0.1,0.2
			l-0.2,0.2c-0.4,0.4-0.9,0.8-1.3,1.2l-0.3,0.2L54,69.9c-0.1-0.2-0.3-0.4-0.5-0.6c-0.9-0.9-2.2-1.2-2.8-1.2
			c-0.7-0.1-1.3-0.4-1.8-0.8c-0.4-0.4-0.9-1.4-0.8-2.2c0-0.4,0.2-0.8,0.6-1c0.6-0.3,0.9-1.1,1.1-1.7c0.3-0.6,0.5-1.2,0.9-1.6
			l0.1-0.1c0.2-0.2,0.4-0.5,0.5-0.8c0.1-0.3,0.1-0.4,0-0.5l-0.5-0.5h0.2c-0.1-0.3-0.1-0.6,0-0.8c0.2-0.6,0.3-1,0.3-1.5
			c0.1-0.5,0.1-0.9,0-1.2c-0.1-0.5-0.4-1.3-1-1.9C50.2,53,50,53,49.9,53c-0.1,0-0.2,0-0.3,0c-0.3,0-0.5-0.1-0.8-0.2
			c-0.3-0.1-0.5-0.4-0.7-0.6c-0.1-0.1-0.3-0.3-0.7-0.3c-0.3,0-0.6-0.1-1-0.1c-0.2,0-0.3,0-0.5,0c-1,0-1.8,0.2-2.4,0.6
			c-0.6,0.4-1,1-1.3,1.7c-0.2,0.7-0.4,1.5-0.4,2.1c0,0.7,0.1,1.2,0.3,1.7c0.1,0.2,0.2,0.5,0.1,0.7c0,0.3-0.1,0.4-0.2,0.6
			c-0.1,0.2-0.2,0.3,0,0.6c0.1,0.3,0.4,0.7,0.6,0.9l0,0c0.4,0.4,0.7,1,0.9,1.5c0.3,0.7,0.6,1.4,1.1,1.7c0.4,0.2,0.6,0.6,0.6,1
			c0,0.7-0.1,1.5-0.8,2.1c-0.4,0.5-1.1,0.8-1.8,0.8c-0.8,0.1-2,0.5-2.8,1.2c-0.2,0.2-0.3,0.4-0.5,0.6l-0.2,0.3L39,70z"/>
		<path class="st0" d="M39.2,69.8c0.2-0.3,0.3-0.5,0.5-0.7c0.9-0.9,2.2-1.3,2.9-1.3c0.6-0.1,1.2-0.3,1.6-0.7
			c0.6-0.6,0.7-1.2,0.7-1.9c0-0.3-0.2-0.6-0.5-0.8c-0.6-0.4-0.9-1.2-1.2-1.8c-0.2-0.6-0.4-1.1-0.8-1.4h0l0,0c-0.2-0.2-0.5-0.6-0.7-1
			c-0.3-0.7,0.2-0.8,0.3-1.3c0-0.2,0-0.4-0.1-0.6c-0.2-0.5-0.3-1.2-0.3-1.8c0-0.7,0.1-1.5,0.3-2.2l0-0.1c0.3-0.9,0.8-1.5,1.4-1.9
			c0.7-0.5,1.6-0.7,2.6-0.7c0.4,0,1,0,1.5,0.1c0.4,0.1,0.7,0.2,0.8,0.4l0.1,0.1c0.2,0.2,0.4,0.4,0.6,0.5c0.3,0.1,0.6,0.2,0.9,0.1
			c0.3,0,0.6,0.2,0.9,0.6c0.6,0.7,1,1.5,1,2.1c0.1,0.4,0.1,0.9,0,1.3c-0.1,0.5-0.2,1-0.3,1.5c-0.1,0.3,0,0.8,0.2,1h0
			c0.2,0.2,0.2,0.5,0.1,0.9c-0.2,0.4-0.5,0.8-0.7,1l0,0v0c-0.4,0.4-0.6,0.9-0.8,1.4c-0.3,0.7-0.6,1.4-1.2,1.8
			c-0.9,0.5-0.2,2.3,0.3,2.7c0.4,0.4,1,0.7,1.6,0.7c0.8,0.1,2,0.4,3,1.3c0.2,0.2,0.3,0.4,0.5,0.6c0.5-0.4,0.9-0.8,1.3-1.2
			c-0.2-0.2-0.4-0.5-0.6-0.7c-1.2-1.2-3-1.7-4-1.8c-0.2,0-0.4-0.1-0.5-0.2c-0.1-0.1-0.1-0.2-0.2-0.3c0.8-0.7,1.2-1.6,1.5-2.3
			c0.2-0.4,0.3-0.7,0.4-0.8v0l0,0l0,0c0.4-0.3,0.9-1,1.1-1.7c0.3-0.7,0.3-1.5-0.1-2.3c0.1-0.5,0.3-1,0.3-1.5c0.1-0.6,0.1-1.2,0-1.8
			c-0.1-0.8-0.7-2.1-1.4-2.9c-0.6-0.7-1.4-1.2-2.3-1.2c-0.4-0.6-1.2-0.9-1.9-1.1c-0.7-0.1-1.4-0.1-1.9-0.1c-1.4,0-2.6,0.3-3.5,1
			c-0.9,0.6-1.6,1.5-2,2.7l0,0.1c-0.3,0.9-0.4,1.8-0.4,2.8c0,0.7,0.1,1.4,0.3,2.1c-0.4,0.7-0.3,1.5-0.1,2.2c0.3,0.7,0.8,1.3,1.1,1.7
			v0h0l0,0l0,0c0.1,0.1,0.2,0.4,0.4,0.8c0.3,0.8,0.7,1.7,1.5,2.4c0,0.1-0.1,0.2-0.2,0.3c-0.1,0.1-0.3,0.2-0.5,0.2
			c-1,0.1-2.8,0.6-4,1.8c-0.2,0.2-0.5,0.5-0.7,0.8C38.3,69.1,38.7,69.5,39.2,69.8z"/>
	</g>
	<g>
		<path class="st0" d="M54.5,71.4c0-0.5-0.2-1-0.5-1.5l-0.1-0.2l0.2-0.2c0.5-0.4,0.9-0.7,1.3-1.1l0.2-0.3l0.2,0.3
			c0.4,0.5,0.6,1,0.8,1.6l0,0.2l-0.1,0.1c-0.5,0.5-1,0.9-1.6,1.3l-0.5,0.3L54.5,71.4z"/>
		<path class="st0" d="M54.3,69.7c0.3,0.4,0.5,1,0.5,1.6c0.5-0.4,1.1-0.8,1.5-1.3c-0.2-0.6-0.4-1.1-0.7-1.5
			C55.2,69,54.8,69.4,54.3,69.7z"/>
	</g>
	<g>
		<path class="st0" d="M38.6,71.7c-0.5-0.4-1.1-0.8-1.6-1.3l-0.1-0.1l0-0.2c0.2-0.6,0.4-1.1,0.7-1.6l0.2-0.3l0.3,0.3
			c0.4,0.4,0.8,0.8,1.3,1.1l0.2,0.2L39.4,70c-0.3,0.5-0.4,0.9-0.4,1.5l0,0.6L38.6,71.7z"/>
		<path class="st0" d="M37.9,68.6c-0.3,0.4-0.6,1-0.7,1.5c0.5,0.5,1,0.9,1.6,1.3c0-0.7,0.2-1.2,0.5-1.6
			C38.7,69.5,38.3,69.1,37.9,68.6z"/>
	</g>
</g>
<g>
	<rect x="67.5" y="62.2" class="st0" width="2.6" height="12.1"/>
	<rect x="67.8" y="62.5" class="st0" width="2" height="11.5"/>
</g>
<g>
	<rect x="74.8" y="56.2" class="st0" width="2.6" height="18.1"/>
	<rect x="75.1" y="56.5" class="st0" width="2" height="17.5"/>
</g>
<g>
	<rect x="82.1" y="58.2" class="st0" width="2.6" height="16.1"/>
	<rect x="82.4" y="58.5" class="st0" width="2" height="15.5"/>
</g>
<g>
	<polygon class="st0" points="67.7,51.4 76,43.5 83.3,49.6 106.7,25.7 108.6,27.5 83.5,53.2 76.1,47 69.5,53.3 	"/>
	<polygon class="st0" points="69.5,52.9 68.1,51.4 76.1,43.9 83.3,50.1 106.8,26.1 108.2,27.5 83.4,52.8 76.1,46.6 	"/>
</g>
<g>
	<path class="st0" d="M60,108.3c-26.6,0-48.3-21.7-48.3-48.3S33.4,11.7,60,11.7c13.6,0,26.7,5.8,35.9,16l0.2,0.2l-1.8,1.9L94,29.5
		c-8.7-9.7-21.1-15.2-34-15.2c-25.2,0-45.7,20.5-45.7,45.7s20.5,45.7,45.7,45.7s45.7-20.5,45.7-45.7c0-6.2-1.2-12.2-3.7-17.9L102,42
		l2-2l0.2,0.4c2.8,6.2,4.2,12.8,4.2,19.7C108.3,86.6,86.6,108.3,60,108.3z"/>
	<path class="st0" d="M103.8,40.5l-1.5,1.6c2.4,5.5,3.7,11.6,3.7,18c0,25.4-20.6,46-46,46S14,85.4,14,60s20.6-46,46-46
		c13.6,0,25.8,5.9,34.2,15.3l1.4-1.4C86.9,18.2,74.2,12,60,12c-26.5,0-48,21.5-48,48c0,26.5,21.5,48,48,48c26.5,0,48-21.5,48-48
		C108,53,106.5,46.4,103.8,40.5z"/>
</g>
</svg>
