<?xml version="1.0" encoding="utf-8"?>
<!-- Generator: Adobe Illustrator 19.2.0, SVG Export Plug-In . SVG Version: 6.00 Build 0)  -->
<svg version="1.1" id="图层_1" xmlns="http://www.w3.org/2000/svg" xmlns:xlink="http://www.w3.org/1999/xlink" x="0px" y="0px"
	 viewBox="0 0 120 120" style="enable-background:new 0 0 120 120;" xml:space="preserve">
<style type="text/css">
	.st0{fill:#1663A8;}
	.st1{fill:none;}
	.st2{fill:none;stroke:#1663A8;stroke-width:2;stroke-miterlimit:10;}
</style>
<g>
	<path class="st0" d="M11.7,84.8V35.2h47.6v49.6H11.7z M56.7,82.1V69.2H14.3v12.9H56.7z M56.7,66.4V53.6H14.3v12.9H56.7z M56.7,50.8
		V37.9H14.3v12.9H56.7z"/>
	<path class="st0" d="M12,84.5h47v-49H12 M57,82.4H14V68.9h43V82.4z M57,66.7H14V53.3h43V66.7z M14,51.1V37.6h43v13.5H14z"/>
	
		<rect x="18.6" y="42.8" transform="matrix(-1.836970e-16 1 -1 -1.836970e-16 64.5186 24.2227)" class="st0" width="3.1" height="3.1"/>
	<rect x="18.9" y="43.1" class="st0" width="2.5" height="2.5"/>
	
		<rect x="18.6" y="58.4" transform="matrix(-1.836970e-16 1 -1 -1.836970e-16 80.1453 39.8494)" class="st0" width="3.1" height="3.1"/>
	<rect x="18.9" y="58.7" class="st0" width="2.5" height="2.5"/>
	<g>
		<path class="st0" d="M75.2,68.4V51.7h27.1v16.7H75.2z M99.7,65.8V54.3H77.8v11.5H99.7z"/>
		<path class="st0" d="M100,54v12.1H77.5V54H100 M102,52H75.5v16.1H102V52L102,52z"/>
	</g>
	<path class="st1" d="M96.9,90.2l0.4-0.5c0.8-1,1.4-1.8,2-2.6c0.1-0.2,0.2-0.3,0.3-0.5l0.7-1.1v4.7H96.9z"/>
	<path class="st1" d="M97.6,89.9h2.4v-3.4c-0.2,0.2-0.3,0.5-0.5,0.7C98.9,88.1,98.2,89,97.6,89.9z"/>
	<path class="st1" d="M77.2,42.5V29.8h17.9l0.1,0.1c1.7,2,3.2,4,4.4,6.1c0.2,0.3,0.3,0.6,0.5,0.9l0.2,0.3v5.3H77.2z M82.4,37.1v-1.9
		h-1.9v1.9H82.4z"/>
	<path class="st1" d="M94.9,30.1H77.5v12.1H100v-4.9c-0.2-0.4-0.4-0.8-0.7-1.1C98,34,96.6,32,94.9,30.1z M82.7,37.4h-2.5v-2.5h2.5
		V37.4z"/>
	<path class="st1" d="M77.2,90.2V77.4h23.1v5.3l-0.2,0.4c-0.2,0.3-0.3,0.6-0.5,0.9c-1.3,2.1-2.8,4.1-4.4,6.1l-0.1,0.1H77.2z
		 M82.4,84.8v-1.9h-1.9v1.9H82.4z"/>
	<path class="st1" d="M100,82.7v-4.9H77.5v12.1h17.4c1.6-1.9,3.1-3.9,4.4-6.1C99.6,83.4,99.8,83,100,82.7z M82.7,85.1h-2.5v-2.5h2.5
		V85.1z"/>
	<path class="st1" d="M99.3,33c-0.6-0.8-1.2-1.7-2-2.6l-0.4-0.5h3.4v4.7C100.3,34.5,99.4,33.1,99.3,33z"/>
	<path class="st1" d="M97.6,30.1c0.7,0.9,1.4,1.7,2,2.6c0.2,0.2,0.3,0.5,0.5,0.7v-3.4H97.6z"/>
	<path class="st0" d="M99.6,37.2c-0.2-0.3-0.3-0.6-0.5-0.9c-1.2-2-2.7-4.1-4.4-6l-0.4-0.5h3.4l0.1,0.1c0.8,1,1.4,1.8,2,2.7
		c0.1,0.2,0.5,0.7,0.5,0.7l0,0.1v5.1L99.6,37.2z"/>
	<path class="st0" d="M97.6,30.1h-2.6c1.6,1.9,3.1,3.9,4.4,6.1c0.2,0.4,0.4,0.8,0.7,1.1v-3.8c-0.2-0.2-0.3-0.5-0.5-0.7
		C98.9,31.9,98.2,31,97.6,30.1z"/>
	<path class="st0" d="M94.3,90.2l0.4-0.5c1.7-2,3.1-4,4.4-6c0.2-0.3,0.3-0.6,0.5-0.8l0.7-1.3v5.1l-0.2,0.3c-0.1,0.2-0.2,0.3-0.3,0.5
		c-0.6,0.8-1.2,1.7-2,2.7l-0.1,0.1H94.3z"/>
	<path class="st0" d="M99.3,83.8c-1.3,2.1-2.8,4.2-4.4,6.1h2.6c0.7-0.9,1.3-1.7,2-2.6c0.2-0.2,0.3-0.5,0.5-0.7v-3.8
		C99.8,83,99.6,83.4,99.3,83.8z"/>
	<g>
		<path class="st0" d="M60,108.3c-13.3,0-25.8-5.4-35-15.1l-0.5-0.5h3.7l0.1,0.1c8.6,8.3,19.9,12.9,31.7,12.9
			c10.3,0,20.1-3.4,28.2-9.8c0.9-0.7,1.7-1.3,2.4-2c0.8-0.7,1.6-1.5,2.4-2.3l0.1-0.1h3.5l-0.4,0.5c-0.8,0.9-1.5,1.7-2.2,2.3
			c-0.6,0.6-1.4,1.3-2.2,2C82.9,104.1,71.7,108.3,60,108.3z"/>
		<path class="st0" d="M93.1,91.9c-0.8,0.8-1.6,1.6-2.4,2.3c-0.8,0.7-1.6,1.4-2.4,2c-7.8,6.1-17.7,9.8-28.4,9.8
			c-12.4,0-23.7-5-31.9-13h-2.9c8.7,9.2,21.1,15,34.8,15c12.1,0,23.1-4.5,31.5-11.8c0.7-0.6,1.5-1.3,2.2-2c0.8-0.7,1.5-1.5,2.2-2.3
			H93.1z"/>
		<path class="st0" d="M101.7,78.6L101.7,78.6c2.7-5.9,4-12.2,4-18.6s-1.3-12.7-4-18.6l0-0.1v-5.7l0.6,1c3.9,7.1,6,15.2,6,23.3
			c0,8.1-2.1,16.2-6,23.3l-0.6,1V78.6z"/>
		<path class="st0" d="M102,36.8v4.5c2.6,5.7,4,12,4,18.7s-1.4,13-4,18.7v4.5c3.8-6.9,6-14.8,6-23.2C108,51.6,105.8,43.7,102,36.8z"
			/>
		<path class="st0" d="M93,28.4L93,28.4c-0.9-0.9-1.7-1.7-2.5-2.4c-0.7-0.6-1.5-1.3-2.4-2C80,17.7,70.3,14.3,60,14.3
			c-11.9,0-23.1,4.6-31.7,12.9l-0.1,0.1h-3.7l0.5-0.5c9.2-9.7,21.7-15.1,35-15.1c11.7,0,22.9,4.2,31.7,11.9c0.8,0.7,1.5,1.4,2.2,2
			c0.7,0.7,1.4,1.4,2.2,2.3l0.4,0.5H93z"/>
		<path class="st0" d="M93.7,25.8c-0.7-0.7-1.4-1.4-2.2-2C83.1,16.5,72.1,12,60,12c-13.7,0-26,5.8-34.8,15h2.9
			c8.3-8,19.5-13,31.9-13c10.7,0,20.5,3.7,28.4,9.8c0.8,0.6,1.6,1.3,2.4,2c0.8,0.7,1.6,1.5,2.4,2.3h2.7
			C95.2,27.3,94.4,26.6,93.7,25.8z"/>
	</g>
	<path class="st0" d="M75.2,44.5V27.8h18.1l0.1,0.1c0.6,0.7,1.2,1.4,1.8,2l0.4,0.5H77.8v11.5h21.9v-5.7l0.7,1.3
		c0.1,0.2,0.2,0.4,0.3,0.5c0.5,0.9,1,1.9,1.5,3.1l0,0.1v3.3H75.2z"/>
	<path class="st0" d="M100,37.3v4.9H77.5V30.1h17.4c-0.6-0.7-1.2-1.4-1.8-2H75.5v16.1H102v-3c-0.5-1.1-1-2.1-1.5-3.1
		C100.3,37.9,100.2,37.6,100,37.3z"/>
	<path class="st0" d="M101.7,41.4c-0.5-1.2-1-2.2-1.5-3.1c-0.1-0.2-0.2-0.4-0.3-0.5l-0.2-0.4v-4.9l0.5,0.8c0.6,0.9,1.1,1.7,1.5,2.5
		c0.1,0.2,0.2,0.3,0.3,0.5l0.2,0.4v4.5L101.7,41.4z"/>
	<path class="st0" d="M101.5,35.9c-0.5-0.8-1-1.6-1.5-2.4v3.8c0.2,0.3,0.3,0.6,0.5,0.9c0.5,1,1,2,1.5,3.1v-4.5
		C101.8,36.5,101.7,36.2,101.5,35.9z"/>
	<path class="st0" d="M94.8,30.4l-0.1-0.1c-0.6-0.6-1.2-1.3-1.8-2l-0.5-0.5H96l0.1,0.1c0.6,0.6,1.1,1.3,1.7,2l0.4,0.5H94.8z"/>
	<path class="st0" d="M94.9,30.1h2.6c-0.5-0.7-1.1-1.3-1.7-2h-2.7C93.8,28.8,94.3,29.5,94.9,30.1z"/>
	<path class="st0" d="M75.2,92.2V75.4h27.1v3.3l0,0.1c-0.5,1.2-1,2.2-1.5,3.1c-0.1,0.2-0.2,0.4-0.3,0.5l-0.7,1.3V78H77.8v11.5h17.8
		l-0.4,0.5c-0.6,0.7-1.2,1.3-1.8,2l-0.1,0.1H75.2z"/>
	<path class="st0" d="M94.9,89.9H77.5V77.7H100v4.9c0.2-0.3,0.3-0.6,0.5-0.9c0.5-1,1-2,1.5-3.1v-3H75.5v16.1h17.6
		C93.8,91.2,94.4,90.5,94.9,89.9z"/>
	<path class="st0" d="M99.7,82.6l0.2-0.4c0.1-0.2,0.2-0.3,0.3-0.5c0.5-0.9,1-1.9,1.5-3.1l0.6,0.1v4.5c0,0-0.2,0.3-0.2,0.4
		c-0.1,0.2-0.2,0.3-0.3,0.5c-0.5,0.8-1,1.6-1.5,2.5l-0.5,0.8V82.6z"/>
	<path class="st0" d="M100,82.7v3.8c0.5-0.8,1-1.6,1.5-2.4c0.2-0.3,0.3-0.6,0.5-0.9v-4.5c-0.5,1.1-1,2.1-1.5,3.1
		C100.3,82.1,100.2,82.4,100,82.7z"/>
	<path class="st0" d="M92.4,92.2l0.5-0.5c0.6-0.7,1.2-1.3,1.8-2l0.1-0.1h3.4L97.8,90c-0.5,0.7-1.1,1.4-1.7,2L96,92.2H92.4z"/>
	<path class="st0" d="M94.9,89.9c-0.6,0.7-1.2,1.4-1.8,2h2.7c0.6-0.7,1.1-1.3,1.7-2H94.9z"/>
	<g>
		
			<rect x="89.4" y="53.7" transform="matrix(-1.836970e-16 1 -1 -1.836970e-16 150.9961 -30.9658)" class="st0" width="3.1" height="12.7"/>
		<rect x="85" y="58.7" class="st0" width="12.1" height="2.5"/>
		<rect x="84.7" y="34.6" class="st0" width="12.7" height="3.1"/>
		<rect x="85" y="34.9" class="st0" width="12.1" height="2.5"/>
		<rect x="84.7" y="82.2" class="st0" width="12.7" height="3.1"/>
		<rect x="85" y="82.5" class="st0" width="12.1" height="2.5"/>
		
			<rect x="80.2" y="58.4" transform="matrix(-1.836970e-16 1 -1 -1.836970e-16 141.8076 -21.7773)" class="st0" width="3.1" height="3.2"/>
		
			<rect x="80.5" y="58.7" transform="matrix(-1 -1.224647e-16 1.224647e-16 -1 163.5846 120.0302)" class="st0" width="2.6" height="2.5"/>
		<rect x="80.2" y="34.6" class="st0" width="3.2" height="3.1"/>
		<rect x="80.5" y="34.9" class="st0" width="2.6" height="2.5"/>
		<rect x="80.2" y="82.2" class="st0" width="3.2" height="3.1"/>
		<rect x="80.5" y="82.5" class="st0" width="2.6" height="2.5"/>
	</g>
	
		<rect x="18.6" y="74.1" transform="matrix(-1.836970e-16 1 -1 -1.836970e-16 95.7773 55.4814)" class="st0" width="3.1" height="3.1"/>
	<rect x="18.9" y="74.4" class="st0" width="2.5" height="2.5"/>
	<polygon class="st2" points="75.5,84.1 68.6,84.1 68.6,35.9 75.5,35.9 75.5,36.5 69.2,36.5 69.2,83.5 75.5,83.5 	"/>
	<polyline class="st2" points="75.5,36.2 68.9,36.2 68.9,83.8 75.5,83.8 	"/>
	<rect x="62.2" y="71.7" class="st2" width="6.7" height="0.6"/>
	<line class="st2" x1="68.9" y1="72" x2="62.2" y2="72"/>
	<rect x="68.8" y="59.7" class="st2" width="6.7" height="0.6"/>
	<line class="st2" x1="75.5" y1="60" x2="68.8" y2="60"/>
	<rect x="62.2" y="47.6" class="st2" width="6.7" height="0.6"/>
	<line class="st2" x1="68.9" y1="47.9" x2="62.2" y2="47.9"/>
</g>
</svg>
