<?xml version="1.0" encoding="utf-8"?>
<!-- Generator: Adobe Illustrator 19.2.0, SVG Export Plug-In . SVG Version: 6.00 Build 0)  -->
<svg version="1.1" id="图层_1" xmlns="http://www.w3.org/2000/svg" xmlns:xlink="http://www.w3.org/1999/xlink" x="0px" y="0px"
	 viewBox="0 0 120 120" enable-background="new 0 0 120 120" xml:space="preserve">
<g>
	<path fill="#1663A8" d="M65,109.8c-2.4,0-4.3-1.9-4.3-4.3c0-1.9,1.2-3.5,3-4.1V78.7h-7.4v18c1.8,0.6,3,2.2,3,4.1
		c0,2.4-1.9,4.3-4.3,4.3s-4.3-1.9-4.3-4.3c0-1.9,1.2-3.5,3-4.1v-18h-7.4v23.4h-5c-0.6,1.8-2.2,3-4.1,3c-2.4,0-4.3-1.9-4.3-4.3
		s1.9-4.3,4.3-4.3c1.9,0,3.5,1.2,4.1,3h2.4V78.7H29.2V35h61.6v43.7H76.3v19.1h1.6c0.6-1.8,2.2-3,4.1-3c2.4,0,4.3,1.9,4.3,4.3
		s-1.9,4.3-4.3,4.3c-1.9,0-3.5-1.2-4.1-3h-4.2V78.7h-7.4v22.7c1.8,0.6,3,2.2,3,4.1C69.3,107.8,67.4,109.8,65,109.8z M65,103.8
		c-0.9,0-1.7,0.8-1.7,1.7s0.8,1.7,1.7,1.7s1.7-0.8,1.7-1.7S65.9,103.8,65,103.8z M55,99.1c-0.9,0-1.7,0.8-1.7,1.7s0.8,1.7,1.7,1.7
		s1.7-0.8,1.7-1.7S55.9,99.1,55,99.1z M37.3,99.1c-0.9,0-1.7,0.8-1.7,1.7s0.8,1.7,1.7,1.7s1.7-0.8,1.7-1.7S38.2,99.1,37.3,99.1z
		 M82,97.3c-0.8,0-1.5,0.6-1.7,1.4l0,0.6c0.1,0.8,0.8,1.4,1.7,1.4c0.9,0,1.7-0.8,1.7-1.7S82.9,97.3,82,97.3z M88.2,76.1V45.3H31.8
		v30.8h11.9v-4.5h2.6v4.5h7.4v-4.5h2.6v4.5h7.4v-4.5h2.6v4.5h7.4v-4.5h2.6v4.5H88.2z M88.2,42.7v-5.1H31.8v5.1H88.2z"/>
	<path fill="#1663A8" d="M29.5,78.4H44v21.4h-2.9c-0.4-1.7-2-3-3.9-3c-2.2,0-4,1.8-4,4s1.8,4,4,4c1.9,0,3.4-1.3,3.9-3H46V78.4h8
		v18.6c-1.7,0.4-3,2-3,3.9c0,2.2,1.8,4,4,4s4-1.8,4-4c0-1.9-1.3-3.4-3-3.9V78.4h8v23.2c-1.7,0.5-3,2-3,3.9c0,2.2,1.8,4,4,4
		s4-1.8,4-4c0-1.9-1.3-3.4-3-3.9V78.4h8V100h4.1c0.4,1.7,2,3,3.9,3c2.2,0,4-1.8,4-4s-1.8-4-4-4c-1.9,0-3.4,1.3-3.9,3H76V78.4h14.5
		V35.3h-61V78.4z M37.3,102.8c-1.1,0-2-0.9-2-2s0.9-2,2-2s2,0.9,2,2S38.4,102.8,37.3,102.8z M80,98.7c0.2-0.9,1-1.7,2-1.7
		c1.1,0,2,0.9,2,2s-0.9,2-2,2c-1,0-1.8-0.7-2-1.7V98.7z M57,100.8c0,1.1-0.9,2-2,2s-2-0.9-2-2s0.9-2,2-2S57,99.7,57,100.8z
		 M67,105.5c0,1.1-0.9,2-2,2s-2-0.9-2-2s0.9-2,2-2S67,104.4,67,105.5z M31.5,37.3h57V43h-57V37.3z M31.5,45h57v31.4H76v-4.5h-2v4.5
		h-8v-4.5h-2v4.5h-8v-4.5h-2v4.5h-8v-4.5h-2v4.5H31.5V45z"/>
	<rect x="33.1" y="38.8" fill="#1663A8" width="2.6" height="2.6"/>
	<rect x="33.4" y="39.1" fill="#1663A8" width="2" height="2"/>
	<rect x="37.1" y="38.8" fill="#1663A8" width="2.6" height="2.6"/>
	<rect x="37.4" y="39.1" fill="#1663A8" width="2" height="2"/>
	<rect x="41.1" y="38.8" fill="#1663A8" width="2.6" height="2.6"/>
	<rect x="41.4" y="39.1" fill="#1663A8" width="2" height="2"/>
	<polygon fill="#1663A8" points="44.3,57.8 53.1,50.4 54.8,52.4 48.3,57.8 54.8,63.2 53.1,65.2 	"/>
	<polygon fill="#1663A8" points="54.3,63.3 47.8,57.8 54.4,52.4 53.1,50.8 44.7,57.8 53.1,64.8 	"/>
	<polygon fill="#1663A8" points="65.2,63.2 71.7,57.8 65.2,52.4 66.9,50.4 75.7,57.8 66.9,65.2 	"/>
	<polygon fill="#1663A8" points="66.9,64.8 75.3,57.8 66.9,50.8 65.7,52.4 72.2,57.8 65.6,63.3 	"/>
	
		<rect x="51.7" y="56.5" transform="matrix(0.1614 -0.9869 0.9869 0.1614 -6.743 107.6987)" fill="#1663A8" width="16.6" height="2.6"/>
	<rect x="52" y="56.8" transform="matrix(0.1616 -0.9869 0.9869 0.1616 -6.7525 107.6858)" fill="#1663A8" width="16" height="2"/>
	<path fill="#1663A8" d="M91.6,93L91.6,93c9.1-8.8,14.1-20.5,14.1-33c0-25.2-20.5-45.7-45.7-45.7S14.3,34.8,14.3,60
		c0,12.5,5,24.2,14,32.9l0.1,0.1v3.6l-0.5-0.4C17.6,86.9,11.7,73.8,11.7,60c0-26.6,21.7-48.3,48.3-48.3s48.3,21.7,48.3,48.3
		c0,13.8-5.9,26.9-16.2,36.1l-0.5,0.4V93z"/>
	<path fill="#1663A8" d="M60,12c-26.5,0-48,21.5-48,48c0,14.3,6.2,27.1,16.1,35.9v-2.8C19.4,84.8,14,73,14,60c0-25.4,20.6-46,46-46
		c25.4,0,46,20.6,46,46c0,13-5.4,24.7-14.1,33.1v2.8C101.8,87.1,108,74.3,108,60C108,33.5,86.5,12,60,12z"/>
</g>
</svg>
