<?xml version="1.0" encoding="utf-8"?>
<!-- Generator: Adobe Illustrator 19.2.0, SVG Export Plug-In . SVG Version: 6.00 Build 0)  -->
<svg version="1.1" id="图层_1" xmlns="http://www.w3.org/2000/svg" xmlns:xlink="http://www.w3.org/1999/xlink" x="0px" y="0px"
	 viewBox="0 0 140 140" enable-background="new 0 0 140 140" xml:space="preserve">
<g>
	<g>
		<path fill="#1663A8" d="M70.1,92.9c-12.6,0-22.9-10.3-22.9-22.9s10.3-22.9,22.9-22.9C82.7,47.1,93,57.4,93,70S82.7,92.9,70.1,92.9
			z M70.1,49.1c-11.5,0-20.9,9.4-20.9,20.9s9.4,20.9,20.9,20.9C81.6,90.9,91,81.5,91,70S81.6,49.1,70.1,49.1z"/>
	</g>
	<g>
		<path fill="#1663A8" d="M70.1,87.7c-9.8,0-17.7-7.9-17.7-17.7s7.9-17.7,17.7-17.7c9.8,0,17.7,7.9,17.7,17.7S79.9,87.7,70.1,87.7z
			 M70.1,54.3c-8.7,0-15.7,7-15.7,15.7s7,15.7,15.7,15.7c8.7,0,15.7-7,15.7-15.7S78.7,54.3,70.1,54.3z"/>
	</g>
	<g>
		<g>
			
				<rect x="53.7" y="36" transform="matrix(0.5626 -0.8268 0.8268 0.5626 -5.469006e-02 73.9765)" fill="#1663A8" width="32.4" height="2"/>
		</g>
		<g>
			
				<rect x="64.2" y="36" transform="matrix(0.5626 -0.8268 0.8268 0.5626 3.4924 80.5635)" fill="#1663A8" width="27.3" height="2"/>
		</g>
		<g>
			
				<rect x="72.1" y="38.3" transform="matrix(0.5628 -0.8266 0.8266 0.5628 4.3893 86.8343)" fill="#1663A8" width="24.5" height="2"/>
		</g>
	</g>
	<g>
		<g>
			
				<rect x="54.7" y="25.7" transform="matrix(0.8266 -0.5627 0.5627 0.8266 -12.1077 38.0568)" fill="#1663A8" width="2" height="25.9"/>
		</g>
		<g>
			
				<rect x="59.3" y="23.2" transform="matrix(0.8266 -0.5627 0.5627 0.8266 -8.5315 39.7878)" fill="#1663A8" width="2" height="21"/>
		</g>
		<g>
			
				<rect x="64.8" y="22.3" transform="matrix(0.8266 -0.5627 0.5627 0.8266 -5.5372 42.245)" fill="#1663A8" width="2" height="15.6"/>
		</g>
	</g>
	<g>
		<rect x="34.8" y="83.8" fill="#FFFFFF" width="70.5" height="20.3"/>
		<path fill="#1663A8" d="M106.3,105.1H33.8V82.8h72.5V105.1z M35.8,103.1h68.5V84.8H35.8V103.1z"/>
	</g>
	<g>
		<path fill="#1663A8" d="M46.9,88.9c3,0.2,4.6,1.9,4.8,5c-0.1,3.2-1.7,4.9-4.9,5c-3.1-0.2-4.7-1.8-4.8-5
			C42.2,90.8,43.8,89.1,46.9,88.9z M46.8,97.6c2.1-0.1,3.2-1.3,3.2-3.7c-0.2-2.2-1.2-3.5-3.1-3.7c-2,0.2-3.1,1.4-3.2,3.7
			C43.8,96.3,44.8,97.5,46.8,97.6z"/>
	</g>
	<g>
		<path fill="#1663A8" d="M59.3,94.3v4.5h-1.5v-4.4c0-1.1-0.4-1.6-1.3-1.6c-1.1,0.1-1.7,0.6-1.8,1.6v4.4h-1.5v-7.2h1.5v0.9
			c0.4-0.7,1.1-1,2-1C58.5,91.4,59.3,92.4,59.3,94.3z"/>
	</g>
	<g>
		<path fill="#1663A8" d="M65.9,96.4l1.6,0.4C67.1,98.3,66,99,64.2,99c-2.3-0.1-3.5-1.3-3.6-3.7c0.1-2.4,1.3-3.7,3.5-3.8
			c2.2,0.1,3.4,1.4,3.4,3.9v0.4c-1.5,0-3.3,0-5.3,0c0.2,1.2,0.8,1.9,1.9,1.9C65.1,97.8,65.7,97.3,65.9,96.4z M64.2,92.9
			c-1,0.1-1.6,0.6-1.8,1.6c1.2,0,2.4,0,3.5,0C65.8,93.5,65.2,92.9,64.2,92.9z"/>
	</g>
	<g>
		<path fill="#1663A8" d="M76.1,98.8l-0.9-2.3h-4.4l-1,2.3h-1.7l4.1-9.8h1.5l4.1,9.8H76.1z M71.4,95.1h3.2l-1.3-3.4
			c-0.2-0.4-0.2-0.7-0.2-0.9h0c0,0.3-0.1,0.6-0.3,0.9L71.4,95.1z"/>
	</g>
	<g>
		<path fill="#1663A8" d="M83.2,95.1h-2.6v3.8h-1.6v-9.8h4.4c2.1,0.1,3.3,1.1,3.4,3C86.7,94,85.5,95,83.2,95.1z M83,90.5h-2.5v3.1
			H83c1.3,0,2-0.5,2-1.6C85,91.1,84.3,90.6,83,90.5z"/>
	</g>
	<g>
		<path fill="#1663A8" d="M96.2,89.1h1.9v9.7h-1.5v-5.8c0-0.5,0-1.2,0.1-2.1h0c-0.1,0.6-0.3,1.1-0.6,1.7l-2.4,6.2h-1.1l-2.4-6.2
			c-0.2-0.6-0.4-1.2-0.5-1.7h0c0.1,0.7,0.1,1.4,0.1,2.1v5.8h-1.5v-9.7h1.9l2.6,6.6c0,0.2,0.1,0.4,0.3,0.8c0,0.2,0.1,0.3,0.1,0.3
			c0.2-0.4,0.3-0.8,0.4-1.1L96.2,89.1z"/>
	</g>
	<g>
		<path fill="none" d="M28.3,93.6h-3.6l3.8,6.9l-3.8,6.9h15.4C35.3,103.6,31.3,98.9,28.3,93.6z"/>
	</g>
	<g>
		<path fill="none" d="M100.1,107.4h15.4l-3.8-6.9l3.8-6.9h-3.6C108.9,98.9,104.9,103.6,100.1,107.4z"/>
	</g>
	<g>
		<path fill="none" d="M109.5,93.6h-4.2v-2h5.3c3.5-6.5,5.4-13.8,5.4-21.6c0-25.4-20.6-46-46-46c-25.4,0-46,20.6-46,46
			c0,7.8,2,15.2,5.4,21.6h5.3v2h-4.2c3.3,5.4,7.6,10.1,12.8,13.8H45v-3.1h2v5.1h-0.6c6.9,4.2,15,6.6,23.7,6.6s16.7-2.4,23.7-6.6
			h-0.6v-5.1h2v3.1h1.6C101.9,103.8,106.3,99.1,109.5,93.6z"/>
	</g>
	<g>
		<path fill="#1663A8" d="M24.7,107.4l3.8-6.9l-3.8-6.9h3.6c-0.4-0.7-0.7-1.3-1.1-2h-5.9l4.9,8.9l-4.9,8.9h21.4
			c-0.9-0.6-1.8-1.3-2.7-2H24.7z"/>
	</g>
	<g>
		<path fill="#1663A8" d="M47,104.4h-2v3.1h-1.6c1,0.7,2,1.4,3,2H47V104.4z"/>
	</g>
	<g>
		<path fill="#1663A8" d="M34.8,91.6h-5.3c0.4,0.7,0.7,1.3,1.1,2h4.2V91.6z"/>
	</g>
	<g>
		<path fill="#1663A8" d="M30.6,93.6c-0.4-0.7-0.8-1.3-1.1-2h-2.3c0.3,0.7,0.7,1.3,1.1,2H30.6z"/>
	</g>
	<g>
		<path fill="#1663A8" d="M43.4,107.4h-3.3c0.9,0.7,1.8,1.4,2.7,2h3.7C45.4,108.8,44.4,108.1,43.4,107.4z"/>
	</g>
	<g>
		<path fill="#1663A8" d="M105.3,93.6h4.2c0.4-0.7,0.8-1.3,1.1-2h-5.3V93.6z"/>
	</g>
	<g>
		<path fill="#1663A8" d="M114,100.5l4.9-8.9h-5.9c-0.3,0.7-0.7,1.3-1.1,2h3.6l-3.8,6.9l3.8,6.9h-15.4c-0.9,0.7-1.8,1.4-2.7,2h21.4
			L114,100.5z"/>
	</g>
	<g>
		<path fill="#1663A8" d="M95.2,104.4h-2v5.1h0.6c1-0.6,2-1.3,3-2h-1.6V104.4z"/>
	</g>
	<g>
		<path fill="#1663A8" d="M96.8,107.4c-1,0.7-2,1.4-3,2h3.7c0.9-0.6,1.8-1.3,2.7-2H96.8z"/>
	</g>
	<g>
		<path fill="#1663A8" d="M109.5,93.6h2.3c0.4-0.7,0.7-1.3,1.1-2h-2.3C110.3,92.3,109.9,93,109.5,93.6z"/>
	</g>
	<g>
		<path fill="none" stroke="#1663A8" stroke-width="2" stroke-miterlimit="10" d="M46.1,99.9"/>
	</g>
	<g>
		<path fill="none" stroke="#1663A8" stroke-width="2" stroke-miterlimit="10" d="M34.9,87.4"/>
	</g>
	<g>
		<polygon fill-rule="evenodd" clip-rule="evenodd" fill="#FFFFFF" points="70.1,62 72.7,67.3 78.5,68.1 74.3,72.2 75.3,78 
			70.1,75.3 64.9,78 65.9,72.2 61.7,68.1 67.5,67.3 		"/>
		<path fill="#1663A8" d="M76.6,79.8l-6.5-3.4l-6.5,3.4l1.2-7.3l-5.3-5.1l7.3-1.1l3.3-6.6l3.3,6.6l7.3,1.1l-5.3,5.1L76.6,79.8z
			 M63.8,68.8l3.1,3.1l-0.7,4.3l3.9-2l3.9,2l-0.7-4.3l3.1-3.1L72,68.2l-1.9-3.9l-1.9,3.9L63.8,68.8z"/>
	</g>
	<g>
		<path fill="#1663A8" d="M113.5,85.1h2.1c1.6-4.8,2.5-9.8,2.5-15.1c0-26.5-21.5-48-48-48s-48,21.5-48,48c0,5.3,0.9,10.4,2.5,15.1
			h2.1c-1.7-4.7-2.6-9.8-2.6-15.1c0-25.4,20.6-46,46-46c25.4,0,46,20.6,46,46C116.1,75.3,115.2,80.4,113.5,85.1z"/>
	</g>
	<g>
		<path fill="#1663A8" d="M86.7,112.9c-5.2,2-10.8,3.1-16.6,3.1c-5.9,0-11.4-1.1-16.6-3.1v2.2c5.2,1.9,10.8,3,16.6,3
			c5.8,0,11.4-1.1,16.6-3V112.9z"/>
	</g>
</g>
<g>
</g>
<g>
</g>
<g>
</g>
<g>
</g>
<g>
</g>
<g>
</g>
</svg>
